# Blender 4.3.2
# www.blender.org
mtllib 场景.mtl
o 立方体.002
v 5.081815 -0.578466 7.913497
v 5.081815 4.056582 7.913497
v 5.081815 -0.578466 2.566420
v 5.081815 4.056582 2.566420
v 5.619531 -0.578466 7.913497
v 5.619531 4.056582 7.913497
v 5.619531 -0.578466 2.566420
v 5.619531 4.056582 2.566420
vn -1.0000 -0.0000 -0.0000
vn -0.0000 -0.0000 -1.0000
vn 1.0000 -0.0000 -0.0000
vn -0.0000 -0.0000 1.0000
vn -0.0000 -1.0000 -0.0000
vn -0.0000 1.0000 -0.0000
vt 0.448024 0.516849
vt 0.000000 0.516849
vt 0.000000 0.000000
vt 0.448024 0.000000
vt 0.000000 0.964873
vt 0.000000 0.516849
vt 0.051976 0.516849
vt 0.051976 0.964873
vt 0.896049 0.516849
vt 0.448024 0.516849
vt 0.448024 0.000000
vt 0.896049 0.000000
vt 0.103951 0.516849
vt 0.103951 0.964873
vt 0.948024 0.516849
vt 0.896049 0.516849
vt 0.896049 0.000000
vt 0.948024 0.000000
vt 1.000000 0.516849
vt 1.000000 0.000000
s 0
f 1/1/1 2/2/1 4/3/1 3/4/1
f 3/5/2 4/6/2 8/7/2 7/8/2
f 7/9/3 8/10/3 6/11/3 5/12/3
f 5/8/4 6/7/4 2/13/4 1/14/4
f 3/15/5 7/16/5 5/17/5 1/18/5
f 8/19/6 4/15/6 2/18/6 6/20/6
o Cube.064
v 4.975605 -0.547607 -3.731594
v 4.975605 5.125534 -3.731594
v 4.975605 -0.547607 -14.071602
v 4.975605 5.125534 -14.071602
v 5.542333 -0.547607 -3.731594
v 5.542333 5.125534 -3.731594
v 5.542333 -0.547607 -14.071602
v 5.542333 5.125534 -14.071602
v 4.975605 3.415555 -3.731594
v 4.975605 3.415555 -14.071602
v 5.542333 3.415555 -14.071602
v 5.542333 3.415555 -3.731594
vn -1.0000 -0.0000 -0.0000
vn -0.0000 -0.0000 -1.0000
vn 1.0000 -0.0000 -0.0000
vn -0.0000 -1.0000 -0.0000
vn -0.0000 1.0000 -0.0000
vn -0.0000 -0.0000 1.0000
vt 0.135352 0.550946
vt -0.000000 0.550946
vt 0.000000 0.000000
vt 0.135352 0.000000
vt 0.964961 0.686298
vt 0.964961 0.550946
vt 0.985801 0.550946
vt 0.985801 0.686298
vt 0.584407 0.601526
vt 0.449054 0.601526
vt 0.449054 0.050581
vt 0.584407 0.050581
vt 0.985801 0.550946
vt 0.964961 0.550946
vt 0.964961 0.000000
vt 0.985801 0.000000
vt 0.964961 0.601526
vt 0.944121 0.601526
vt 0.944121 0.050581
vt 0.964961 0.050581
vt 0.817929 0.915228
vt 0.817929 0.601526
vt 0.838769 0.601526
vt 0.838769 0.915228
vt 0.898108 0.601526
vt 0.898108 0.050581
vt 0.964961 1.000000
vt 0.985801 1.000000
vt 0.449054 0.550946
vt 0.449054 0.000000
s 0
usemtl 材质
f 17/21/7 10/22/7 12/23/7 18/24/7
f 18/25/8 12/26/8 16/27/8 19/28/8
f 19/29/9 16/30/9 14/31/9 20/32/9
f 11/33/10 15/34/10 13/35/10 9/36/10
f 16/37/11 12/38/11 10/39/11 14/40/11
f 13/41/12 20/42/12 17/43/12 9/44/12
f 15/45/9 19/29/9 20/32/9 13/46/9
f 11/47/8 18/25/8 19/28/8 15/48/8
f 9/49/7 17/21/7 18/24/7 11/50/7
f 17/43/12 20/42/12 14/31/12 10/39/12
