# Blender 4.4.3
# www.blender.org
mtllib 场景.mtl
o Cube.105
v 12.922227 6.664514 2.798434
v 12.922227 7.677799 2.798434
v 12.922227 6.664514 2.648060
v 12.922227 7.677799 2.648060
v 13.072602 6.664514 2.798434
v 13.072602 7.677799 2.798434
v 13.072602 6.664514 2.648060
v 13.072602 7.677799 2.648060
v 12.922227 6.664514 0.547321
v 12.922227 7.677799 0.547321
v 12.922227 6.664514 0.396946
v 12.922227 7.677799 0.396946
v 13.072602 6.664514 0.547321
v 13.072602 7.677799 0.547321
v 13.072602 6.664514 0.396946
v 13.072602 7.677799 0.396946
v 12.922227 6.664514 -1.703792
v 12.922227 7.677799 -1.703792
v 12.922227 6.664514 -1.854167
v 12.922227 7.677799 -1.854167
v 13.072602 6.664514 -1.703792
v 13.072602 7.677799 -1.703792
v 13.072602 6.664514 -1.854167
v 13.072602 7.677799 -1.854167
v 12.922227 6.664514 -3.954905
v 12.922227 7.677799 -3.954905
v 12.922227 6.664514 -4.105280
v 12.922227 7.677799 -4.105280
v 13.072602 6.664514 -3.954905
v 13.072602 7.677799 -3.954905
v 13.072602 6.664514 -4.105280
v 13.072602 7.677799 -4.105280
v 12.922227 6.664514 -6.206019
v 12.922227 7.677799 -6.206019
v 12.922227 6.664514 -6.356393
v 12.922227 7.677799 -6.356393
v 13.072602 6.664514 -6.206019
v 13.072602 7.677799 -6.206019
v 13.072602 6.664514 -6.356393
v 13.072602 7.677799 -6.356393
v 12.922227 6.664514 -8.457132
v 12.922227 7.677799 -8.457132
v 12.922227 6.664514 -8.607508
v 12.922227 7.677799 -8.607508
v 13.072602 6.664514 -8.457132
v 13.072602 7.677799 -8.457132
v 13.072602 6.664514 -8.607508
v 13.072602 7.677799 -8.607508
v 12.922227 6.664514 -10.708246
v 12.922227 7.677799 -10.708246
v 12.922227 6.664514 -10.858622
v 12.922227 7.677799 -10.858622
v 13.072602 6.664514 -10.708246
v 13.072602 7.677799 -10.708246
v 13.072602 6.664514 -10.858622
v 13.072602 7.677799 -10.858622
vn -1.0000 -0.0000 -0.0000
vn -0.0000 -0.0000 -1.0000
vn 1.0000 -0.0000 -0.0000
vn -0.0000 -0.0000 1.0000
vn -0.0000 -1.0000 -0.0000
vn -0.0000 1.0000 -0.0000
vt 0.375000 0.000000
vt 0.625000 0.000000
vt 0.625000 0.250000
vt 0.375000 0.250000
vt 0.625000 0.500000
vt 0.375000 0.500000
vt 0.625000 0.750000
vt 0.375000 0.750000
vt 0.625000 1.000000
vt 0.375000 1.000000
vt 0.125000 0.500000
vt 0.125000 0.750000
vt 0.875000 0.500000
vt 0.875000 0.750000
s 0
f 1/1/1 2/2/1 4/3/1 3/4/1
f 3/4/2 4/3/2 8/5/2 7/6/2
f 7/6/3 8/5/3 6/7/3 5/8/3
f 5/8/4 6/7/4 2/9/4 1/10/4
f 3/11/5 7/6/5 5/8/5 1/12/5
f 8/5/6 4/13/6 2/14/6 6/7/6
f 9/1/1 10/2/1 12/3/1 11/4/1
f 11/4/2 12/3/2 16/5/2 15/6/2
f 15/6/3 16/5/3 14/7/3 13/8/3
f 13/8/4 14/7/4 10/9/4 9/10/4
f 11/11/5 15/6/5 13/8/5 9/12/5
f 16/5/6 12/13/6 10/14/6 14/7/6
f 17/1/1 18/2/1 20/3/1 19/4/1
f 19/4/2 20/3/2 24/5/2 23/6/2
f 23/6/3 24/5/3 22/7/3 21/8/3
f 21/8/4 22/7/4 18/9/4 17/10/4
f 19/11/5 23/6/5 21/8/5 17/12/5
f 24/5/6 20/13/6 18/14/6 22/7/6
f 25/1/1 26/2/1 28/3/1 27/4/1
f 27/4/2 28/3/2 32/5/2 31/6/2
f 31/6/3 32/5/3 30/7/3 29/8/3
f 29/8/4 30/7/4 26/9/4 25/10/4
f 27/11/5 31/6/5 29/8/5 25/12/5
f 32/5/6 28/13/6 26/14/6 30/7/6
f 33/1/1 34/2/1 36/3/1 35/4/1
f 35/4/2 36/3/2 40/5/2 39/6/2
f 39/6/3 40/5/3 38/7/3 37/8/3
f 37/8/4 38/7/4 34/9/4 33/10/4
f 35/11/5 39/6/5 37/8/5 33/12/5
f 40/5/6 36/13/6 34/14/6 38/7/6
f 41/1/1 42/2/1 44/3/1 43/4/1
f 43/4/2 44/3/2 48/5/2 47/6/2
f 47/6/3 48/5/3 46/7/3 45/8/3
f 45/8/4 46/7/4 42/9/4 41/10/4
f 43/11/5 47/6/5 45/8/5 41/12/5
f 48/5/6 44/13/6 42/14/6 46/7/6
f 49/1/1 50/2/1 52/3/1 51/4/1
f 51/4/2 52/3/2 56/5/2 55/6/2
f 55/6/3 56/5/3 54/7/3 53/8/3
f 53/8/4 54/7/4 50/9/4 49/10/4
f 51/11/5 55/6/5 53/8/5 49/12/5
f 56/5/6 52/13/6 50/14/6 54/7/6
o Cube.082
v 12.885611 7.600991 3.265179
v 12.885611 7.708221 3.265179
v 12.885611 7.600991 -10.617104
v 12.885611 7.708221 -10.617104
v 13.120796 7.600991 3.265179
v 13.120796 7.708221 3.265179
v 13.120796 7.600991 -10.617104
v 13.120796 7.708221 -10.617104
vn -1.0000 -0.0000 -0.0000
vn -0.0000 -0.0000 -1.0000
vn 1.0000 -0.0000 -0.0000
vn -0.0000 -0.0000 1.0000
vn -0.0000 -1.0000 -0.0000
vn -0.0000 1.0000 -0.0000
vt 0.375000 0.000000
vt 0.625000 0.000000
vt 0.625000 0.250000
vt 0.375000 0.250000
vt 0.625000 0.500000
vt 0.375000 0.500000
vt 0.625000 0.750000
vt 0.375000 0.750000
vt 0.625000 1.000000
vt 0.375000 1.000000
vt 0.125000 0.500000
vt 0.125000 0.750000
vt 0.875000 0.500000
vt 0.875000 0.750000
s 0
f 57/15/7 58/16/7 60/17/7 59/18/7
f 59/18/8 60/17/8 64/19/8 63/20/8
f 63/20/9 64/19/9 62/21/9 61/22/9
f 61/22/10 62/21/10 58/23/10 57/24/10
f 59/25/11 63/20/11 61/22/11 57/26/11
f 64/19/12 60/27/12 58/28/12 62/21/12
o Cube.102
v 9.033407 5.272475 -0.700908
v 9.033407 6.100373 -0.700908
v 9.033407 5.272475 -2.117155
v 9.033407 6.100373 -2.117155
v 12.856585 5.272475 -0.700908
v 12.856585 6.100373 -0.700908
v 12.856585 5.272475 -2.117155
v 12.856585 6.100373 -2.117155
v 9.033407 4.916479 -1.409032
v 9.033407 5.744377 -1.409032
v 9.033407 4.916479 -2.825279
v 9.033407 5.744377 -2.825279
v 12.856585 4.916479 -1.409032
v 12.856585 5.744377 -1.409032
v 12.856585 4.916479 -2.825279
v 12.856585 5.744377 -2.825279
v 9.033407 4.560483 -2.117155
v 9.033407 5.388381 -2.117155
v 9.033407 4.560483 -3.533402
v 9.033407 5.388381 -3.533402
v 12.856585 4.560483 -2.117155
v 12.856585 5.388381 -2.117155
v 12.856585 4.560483 -3.533402
v 12.856585 5.388381 -3.533402
v 9.033407 4.204486 -2.825279
v 9.033407 5.032385 -2.825279
v 9.033407 4.204486 -4.241526
v 9.033407 5.032385 -4.241526
v 12.856585 4.204486 -2.825279
v 12.856585 5.032385 -2.825279
v 12.856585 4.204486 -4.241526
v 12.856585 5.032385 -4.241526
v 9.033407 3.848490 -3.533402
v 9.033407 4.676389 -3.533402
v 9.033407 3.848490 -4.949649
v 9.033407 4.676389 -4.949649
v 12.856585 3.848490 -3.533402
v 12.856585 4.676389 -3.533402
v 12.856585 3.848490 -4.949649
v 12.856585 4.676389 -4.949649
v 9.033407 3.492494 -4.241525
v 9.033407 4.320392 -4.241525
v 9.033407 3.492494 -5.657772
v 9.033407 4.320392 -5.657772
v 12.856585 3.492494 -4.241525
v 12.856585 4.320392 -4.241525
v 12.856585 3.492494 -5.657772
v 12.856585 4.320392 -5.657772
v 9.033407 3.136498 -4.949649
v 9.033407 3.964396 -4.949649
v 9.033407 3.136498 -6.365895
v 9.033407 3.964396 -6.365895
v 12.856585 3.136498 -4.949649
v 12.856585 3.964396 -4.949649
v 12.856585 3.136498 -6.365895
v 12.856585 3.964396 -6.365895
v 9.033407 2.780502 -5.657772
v 9.033407 3.608400 -5.657772
v 9.033407 2.780502 -7.074018
v 9.033407 3.608400 -7.074018
v 12.856585 2.780502 -5.657772
v 12.856585 3.608400 -5.657772
v 12.856585 2.780502 -7.074018
v 12.856585 3.608400 -7.074018
v 9.033407 2.424505 -6.365895
v 9.033407 3.252403 -6.365895
v 9.033407 2.424505 -7.782143
v 9.033407 3.252403 -7.782143
v 12.856585 2.424505 -6.365895
v 12.856585 3.252403 -6.365895
v 12.856585 2.424505 -7.782143
v 12.856585 3.252403 -7.782143
v 9.033407 2.068509 -7.074019
v 9.033407 2.896407 -7.074019
v 9.033407 2.068509 -8.490266
v 9.033407 2.896407 -8.490266
v 12.856585 2.068509 -7.074019
v 12.856585 2.896407 -7.074019
v 12.856585 2.068509 -8.490266
v 12.856585 2.896407 -8.490266
v 9.033407 1.712513 -7.782143
v 9.033407 2.540411 -7.782143
v 9.033407 1.712513 -9.198389
v 9.033407 2.540411 -9.198389
v 12.856585 1.712513 -7.782143
v 12.856585 2.540411 -7.782143
v 12.856585 1.712513 -9.198389
v 12.856585 2.540411 -9.198389
v 9.033407 1.356517 -8.490267
v 9.033407 2.184415 -8.490267
v 9.033407 1.356517 -9.906513
v 9.033407 2.184415 -9.906513
v 12.856585 1.356517 -8.490267
v 12.856585 2.184415 -8.490267
v 12.856585 1.356517 -9.906513
v 12.856585 2.184415 -9.906513
v 9.033407 1.000520 -9.198390
v 9.033407 1.828418 -9.198390
v 9.033407 1.000520 -10.614636
v 9.033407 1.828418 -10.614636
v 12.856585 1.000520 -9.198390
v 12.856585 1.828418 -9.198390
v 12.856585 1.000520 -10.614636
v 12.856585 1.828418 -10.614636
v 9.033407 0.644524 -9.906513
v 9.033407 1.472422 -9.906513
v 9.033407 0.644524 -11.322760
v 9.033407 1.472422 -11.322760
v 12.856585 0.644524 -9.906513
v 12.856585 1.472422 -9.906513
v 12.856585 0.644524 -11.322760
v 12.856585 1.472422 -11.322760
vn -1.0000 -0.0000 -0.0000
vn -0.0000 -0.0000 -1.0000
vn 1.0000 -0.0000 -0.0000
vn -0.0000 -0.0000 1.0000
vn -0.0000 -1.0000 -0.0000
vn -0.0000 1.0000 -0.0000
vt 0.375000 0.000000
vt 0.625000 0.000000
vt 0.625000 0.250000
vt 0.375000 0.250000
vt 0.625000 0.500000
vt 0.375000 0.500000
vt 0.625000 0.750000
vt 0.375000 0.750000
vt 0.625000 1.000000
vt 0.375000 1.000000
vt 0.125000 0.500000
vt 0.125000 0.750000
vt 0.875000 0.500000
vt 0.875000 0.750000
s 0
f 65/29/13 66/30/13 68/31/13 67/32/13
f 67/32/14 68/31/14 72/33/14 71/34/14
f 71/34/15 72/33/15 70/35/15 69/36/15
f 69/36/16 70/35/16 66/37/16 65/38/16
f 67/39/17 71/34/17 69/36/17 65/40/17
f 72/33/18 68/41/18 66/42/18 70/35/18
f 73/29/13 74/30/13 76/31/13 75/32/13
f 75/32/14 76/31/14 80/33/14 79/34/14
f 79/34/15 80/33/15 78/35/15 77/36/15
f 77/36/16 78/35/16 74/37/16 73/38/16
f 75/39/17 79/34/17 77/36/17 73/40/17
f 80/33/18 76/41/18 74/42/18 78/35/18
f 81/29/13 82/30/13 84/31/13 83/32/13
f 83/32/14 84/31/14 88/33/14 87/34/14
f 87/34/15 88/33/15 86/35/15 85/36/15
f 85/36/16 86/35/16 82/37/16 81/38/16
f 83/39/17 87/34/17 85/36/17 81/40/17
f 88/33/18 84/41/18 82/42/18 86/35/18
f 89/29/13 90/30/13 92/31/13 91/32/13
f 91/32/14 92/31/14 96/33/14 95/34/14
f 95/34/15 96/33/15 94/35/15 93/36/15
f 93/36/16 94/35/16 90/37/16 89/38/16
f 91/39/17 95/34/17 93/36/17 89/40/17
f 96/33/18 92/41/18 90/42/18 94/35/18
f 97/29/13 98/30/13 100/31/13 99/32/13
f 99/32/14 100/31/14 104/33/14 103/34/14
f 103/34/15 104/33/15 102/35/15 101/36/15
f 101/36/16 102/35/16 98/37/16 97/38/16
f 99/39/17 103/34/17 101/36/17 97/40/17
f 104/33/18 100/41/18 98/42/18 102/35/18
f 105/29/13 106/30/13 108/31/13 107/32/13
f 107/32/14 108/31/14 112/33/14 111/34/14
f 111/34/15 112/33/15 110/35/15 109/36/15
f 109/36/16 110/35/16 106/37/16 105/38/16
f 107/39/17 111/34/17 109/36/17 105/40/17
f 112/33/18 108/41/18 106/42/18 110/35/18
f 113/29/13 114/30/13 116/31/13 115/32/13
f 115/32/14 116/31/14 120/33/14 119/34/14
f 119/34/15 120/33/15 118/35/15 117/36/15
f 117/36/16 118/35/16 114/37/16 113/38/16
f 115/39/17 119/34/17 117/36/17 113/40/17
f 120/33/18 116/41/18 114/42/18 118/35/18
f 121/29/13 122/30/13 124/31/13 123/32/13
f 123/32/14 124/31/14 128/33/14 127/34/14
f 127/34/15 128/33/15 126/35/15 125/36/15
f 125/36/16 126/35/16 122/37/16 121/38/16
f 123/39/17 127/34/17 125/36/17 121/40/17
f 128/33/18 124/41/18 122/42/18 126/35/18
f 129/29/13 130/30/13 132/31/13 131/32/13
f 131/32/14 132/31/14 136/33/14 135/34/14
f 135/34/15 136/33/15 134/35/15 133/36/15
f 133/36/16 134/35/16 130/37/16 129/38/16
f 131/39/17 135/34/17 133/36/17 129/40/17
f 136/33/18 132/41/18 130/42/18 134/35/18
f 137/29/13 138/30/13 140/31/13 139/32/13
f 139/32/14 140/31/14 144/33/14 143/34/14
f 143/34/15 144/33/15 142/35/15 141/36/15
f 141/36/16 142/35/16 138/37/16 137/38/16
f 139/39/17 143/34/17 141/36/17 137/40/17
f 144/33/18 140/41/18 138/42/18 142/35/18
f 145/29/13 146/30/13 148/31/13 147/32/13
f 147/32/14 148/31/14 152/33/14 151/34/14
f 151/34/15 152/33/15 150/35/15 149/36/15
f 149/36/16 150/35/16 146/37/16 145/38/16
f 147/39/17 151/34/17 149/36/17 145/40/17
f 152/33/18 148/41/18 146/42/18 150/35/18
f 153/29/13 154/30/13 156/31/13 155/32/13
f 155/32/14 156/31/14 160/33/14 159/34/14
f 159/34/15 160/33/15 158/35/15 157/36/15
f 157/36/16 158/35/16 154/37/16 153/38/16
f 155/39/17 159/34/17 157/36/17 153/40/17
f 160/33/18 156/41/18 154/42/18 158/35/18
f 161/29/13 162/30/13 164/31/13 163/32/13
f 163/32/14 164/31/14 168/33/14 167/34/14
f 167/34/15 168/33/15 166/35/15 165/36/15
f 165/36/16 166/35/16 162/37/16 161/38/16
f 163/39/17 167/34/17 165/36/17 161/40/17
f 168/33/18 164/41/18 162/42/18 166/35/18
f 169/29/13 170/30/13 172/31/13 171/32/13
f 171/32/14 172/31/14 176/33/14 175/34/14
f 175/34/15 176/33/15 174/35/15 173/36/15
f 173/36/16 174/35/16 170/37/16 169/38/16
f 171/39/17 175/34/17 173/36/17 169/40/17
f 176/33/18 172/41/18 170/42/18 174/35/18
