# Blender 4.3.2
# www.blender.org
mtllib Dealer0.mtl
o 11.051
v 1.470480 0.955755 -0.241090
v 1.434438 0.955755 -0.298482
v 1.430854 0.955755 -0.177149
v 1.502952 0.955755 -0.267620
v 1.631365 0.955755 -0.241235
v 1.488670 0.955755 -0.274729
v 1.503966 0.956814 -0.268448
v 1.489551 0.956814 -0.275617
v 1.504980 0.957872 -0.269276
v 1.632353 0.956814 -0.242071
v 1.633341 0.957872 -0.242908
v 1.636808 0.956814 -0.238820
v 1.637832 0.957872 -0.239249
v 1.635783 0.955755 -0.238392
v 1.637306 0.956814 -0.233195
v 1.633843 0.956814 -0.229203
v 1.638367 0.957872 -0.233216
v 1.636246 0.955755 -0.233175
v 1.632746 0.955755 -0.229590
v 1.634940 0.957872 -0.228815
v 1.638367 0.986221 -0.233216
v 1.637089 0.987488 -0.233277
v 1.637832 0.986221 -0.239249
v 1.634940 0.986221 -0.228815
v 1.429775 0.986221 -0.175409
v 1.633627 0.987488 -0.229279
v 1.632313 0.988755 -0.229743
v 1.430421 0.987488 -0.176451
v 1.390975 0.987488 -0.214443
v 1.431066 0.988755 -0.177493
v 1.432613 0.988755 -0.183941
v 1.390378 0.988755 -0.216646
v 1.360936 0.988755 -0.234747
v 1.393898 0.988755 -0.221194
v 1.379984 0.988755 -0.331071
v 1.363437 0.988755 -0.239922
v 1.319665 0.988755 -0.255856
v 1.258050 0.988755 -0.266453
v 1.318191 0.988755 -0.250307
v 1.258285 0.988755 -0.260610
v 1.317277 0.987488 -0.249090
v 1.316364 0.986221 -0.247873
v 1.359825 0.987488 -0.233609
v 1.256601 0.987488 -0.259505
v 1.170498 0.987488 -0.249349
v 1.254916 0.986221 -0.258401
v 1.254916 0.957872 -0.258401
v 1.169429 0.986221 -0.248376
v 1.169429 0.957872 -0.248376
v 1.110185 0.986221 -0.522812
v 1.110185 0.957872 -0.522812
v 1.110704 0.986221 -0.529983
v 1.111613 0.987488 -0.522196
v 1.111573 0.987488 -0.529028
v 1.113041 0.988755 -0.521581
v 1.115697 0.988755 -0.520292
v 1.112442 0.988755 -0.528073
v 1.171566 0.988755 -0.250321
v 1.175848 0.988755 -0.257321
v 1.235597 0.988755 -0.298546
v 1.249863 0.988755 -0.335709
v 1.261088 0.988755 -0.305888
v 1.283589 0.988755 -0.312370
v 1.260893 0.988755 -0.326571
v 1.260570 0.988755 -0.334578
v 1.273252 0.988755 -0.337048
v 1.268301 0.988755 -0.340130
v 1.272721 0.988755 -0.441756
v 1.275721 0.988755 -0.446900
v 1.271787 0.988755 -0.449897
v 1.274325 0.988755 -0.454046
v 1.270969 0.987488 -0.451307
v 1.270151 0.986221 -0.452716
v 1.274074 0.987488 -0.455368
v 1.267570 0.987488 -0.341457
v 1.266840 0.986221 -0.342784
v 1.260386 0.987488 -0.336486
v 1.260202 0.986221 -0.338395
v 1.252683 0.987488 -0.342805
v 1.253111 0.986221 -0.344169
v 1.252255 0.988755 -0.341441
v 1.120131 0.987488 -0.526734
v 1.120380 0.986221 -0.528367
v 1.119883 0.988755 -0.525100
v 1.114698 0.987488 -0.530584
v 1.114388 0.986221 -0.531879
v 1.115008 0.988755 -0.529290
v 1.117308 0.988755 -0.524516
v 1.115185 0.988755 -0.523713
v 1.119756 0.988755 -0.521510
v 1.114388 0.957872 -0.531879
v 1.120380 0.957872 -0.528367
v 1.114627 0.956814 -0.530785
v 1.110704 0.957872 -0.529983
v 1.111420 0.956814 -0.529179
v 1.111378 0.956814 -0.522298
v 1.112135 0.955755 -0.528375
v 1.114865 0.955755 -0.529692
v 1.112570 0.955755 -0.521784
v 1.171214 0.955755 -0.250001
v 1.257730 0.955755 -0.260246
v 1.170322 0.956814 -0.249189
v 1.235597 0.955755 -0.298546
v 1.283589 0.955755 -0.312370
v 1.252367 0.955755 -0.341800
v 1.260378 0.955755 -0.335198
v 1.252739 0.956814 -0.342985
v 1.119903 0.955755 -0.525601
v 1.120142 0.956814 -0.526984
v 1.253111 0.957872 -0.344169
v 1.260290 0.956814 -0.336796
v 1.267429 0.956814 -0.341714
v 1.260202 0.957872 -0.338395
v 1.266840 0.957872 -0.342784
v 1.270151 0.957872 -0.452716
v 1.273822 0.957872 -0.456689
v 1.270803 0.956814 -0.451544
v 1.271454 0.955755 -0.450372
v 1.274011 0.956814 -0.455589
v 1.274200 0.955755 -0.454488
v 1.278115 0.956814 -0.455279
v 1.277842 0.955755 -0.454251
v 1.282388 0.956814 -0.450643
v 1.278389 0.957872 -0.456308
v 1.283125 0.957872 -0.451599
v 1.278389 0.986221 -0.456308
v 1.283125 0.986221 -0.451599
v 1.278074 0.987488 -0.455074
v 1.273822 0.986221 -0.456689
v 1.277759 0.988755 -0.453841
v 1.282243 0.987488 -0.450454
v 1.365117 0.987488 -0.343157
v 1.281362 0.988755 -0.449309
v 1.281104 0.988755 -0.443129
v 1.364118 0.988755 -0.342135
v 1.359609 0.988755 -0.337524
v 1.377437 0.988755 -0.337816
v 1.535597 0.988755 -0.584834
v 1.376872 0.987488 -0.339310
v 1.376308 0.986221 -0.340805
v 1.534887 0.987488 -0.586881
v 1.534176 0.986221 -0.588927
v 1.541945 0.987488 -0.589697
v 1.542272 0.986221 -0.591359
v 1.541618 0.988755 -0.588034
v 1.549241 0.987488 -0.585797
v 1.550739 0.986221 -0.587044
v 1.547742 0.988755 -0.584550
v 1.553080 0.987488 -0.578880
v 1.555314 0.986221 -0.579860
v 1.550845 0.988755 -0.577900
v 1.485803 0.987488 -0.292615
v 1.487292 0.986221 -0.292445
v 1.489041 0.987488 -0.276047
v 1.484313 0.988755 -0.292785
v 1.478472 0.988755 -0.292866
v 1.487650 0.988755 -0.275588
v 1.503168 0.988755 -0.267796
v 1.482572 0.988755 -0.271739
v 1.455479 0.988755 -0.264977
v 1.501685 0.988755 -0.262141
v 1.626003 0.988755 -0.238318
v 1.470480 0.988755 -0.241090
v 1.629809 0.988755 -0.236289
v 1.630929 0.988755 -0.241419
v 1.635349 0.988755 -0.238566
v 1.632135 0.987488 -0.242163
v 1.633341 0.986221 -0.242908
v 1.636590 0.987488 -0.238907
v 1.504074 0.987488 -0.268536
v 1.504980 0.986221 -0.269276
v 1.490432 0.986221 -0.276506
v 1.490432 0.957872 -0.276506
v 1.487292 0.957872 -0.292445
v 1.486213 0.956814 -0.292568
v 1.555314 0.957872 -0.579860
v 1.550739 0.957872 -0.587044
v 1.553647 0.956814 -0.578969
v 1.551980 0.955755 -0.578079
v 1.549637 0.956814 -0.585948
v 1.548535 0.955755 -0.584853
v 1.542105 0.956814 -0.589963
v 1.534770 0.956814 -0.587218
v 1.541938 0.955755 -0.588566
v 1.542272 0.957872 -0.591359
v 1.534176 0.957872 -0.588927
v 1.376308 0.957872 -0.340805
v 1.366116 0.957872 -0.344179
v 1.376779 0.956814 -0.339557
v 1.377251 0.955755 -0.338308
v 1.365281 0.956814 -0.343325
v 1.364447 0.955755 -0.342472
v 1.281652 0.955755 -0.449686
v 1.390575 0.955755 -0.215920
v 1.535363 0.955755 -0.585509
v 1.317890 0.955755 -0.249906
v 1.360569 0.955755 -0.234372
v 1.317127 0.956814 -0.248889
v 1.359642 0.956814 -0.233422
v 1.256323 0.956814 -0.259323
v 1.316364 0.957872 -0.247873
v 1.358714 0.957872 -0.232471
v 1.391573 0.957872 -0.212240
v 1.358714 0.986221 -0.232471
v 1.391573 0.986221 -0.212240
v 1.429775 0.957872 -0.175409
v 1.391074 0.956814 -0.214080
v 1.430314 0.956814 -0.176279
v 1.366116 0.986221 -0.344179
v 1.485133 0.955755 -0.292691
v 1.635812 0.988755 -0.233338
v 1.629989 0.988755 -0.234260
v 1.626938 0.988755 -0.231176
v 1.434438 0.988755 -0.298482
v 1.542338 0.988755 -0.565994
v 1.542799 0.988755 -0.575844
v 1.539010 0.988755 -0.577216
v 1.531085 0.988755 -0.568534
v 1.278053 0.988755 -0.447342
v 1.268018 0.955755 -0.340644
v 1.535452 0.955755 0.057546
v 1.555768 0.955755 0.079306
v 1.554150 0.955755 0.018894
v 1.516704 0.955755 0.102282
v 1.548489 0.955755 0.095033
v 1.409538 0.955755 0.190171
v 1.593730 0.955755 0.178368
v 1.482208 0.955755 0.005409
v 1.405676 0.956874 0.193338
v 1.404077 0.959576 0.194650
v 1.479537 0.956874 0.005517
v 1.595421 0.956874 0.181210
v 1.596122 0.959576 0.182387
v 1.598659 0.956874 0.178343
v 1.596305 0.955755 0.176988
v 1.599634 0.959576 0.178905
v 1.599065 0.956874 0.173709
v 1.596049 0.955755 0.173840
v 1.600315 0.959576 0.173655
v 1.551200 0.956874 0.094414
v 1.552323 0.959576 0.094158
v 1.549965 0.956874 0.085119
v 1.551227 0.959576 0.085921
v 1.546916 0.955755 0.083182
v 1.557944 0.956874 0.081636
v 1.780918 0.956874 0.082508
v 1.558845 0.959576 0.082601
v 1.782046 0.959576 0.083482
v 1.558845 0.984935 0.082601
v 1.782046 0.984935 0.083482
v 1.551227 0.984935 0.085921
v 1.558115 0.987636 0.081820
v 1.780919 0.987636 0.082683
v 1.549843 0.987636 0.085453
v 1.556354 0.988755 0.079933
v 1.546500 0.988755 0.084322
v 1.778198 0.988755 0.080754
v 1.555944 0.988755 0.077988
v 1.777508 0.988755 0.078808
v 1.535452 0.988755 0.057546
v 1.544376 0.988755 0.083141
v 1.526996 0.988755 0.077724
v 1.546122 0.988755 0.095808
v 1.516704 0.988755 0.102282
v 1.593947 0.988755 0.175006
v 1.547993 0.988755 0.095146
v 1.551055 0.987636 0.094447
v 1.595821 0.988755 0.174351
v 1.598999 0.987636 0.173859
v 1.596195 0.988755 0.177236
v 1.598626 0.987636 0.178416
v 1.593737 0.988755 0.178353
v 1.594083 0.988755 0.176061
v 1.593257 0.988755 0.176436
v 1.412486 0.988755 0.188020
v 1.484261 0.988755 0.005540
v 1.409558 0.988755 0.190155
v 1.405682 0.987636 0.193334
v 1.482224 0.988755 0.005408
v 1.468142 0.988755 -0.050816
v 1.479541 0.987636 0.005517
v 1.465808 0.987636 -0.049310
v 1.478430 0.984935 0.005562
v 1.464841 0.984935 -0.048687
v 1.404077 0.984935 0.194650
v 1.478430 0.959576 0.005562
v 1.464841 0.959576 -0.048687
v 1.465778 0.956874 -0.049408
v 1.449638 0.959576 -0.091993
v 1.420967 0.959576 -0.206463
v 1.449638 0.984935 -0.091993
v 1.450783 0.956874 -0.092116
v 1.453547 0.955755 -0.092411
v 1.422529 0.956874 -0.204917
v 1.539010 0.956874 -0.175679
v 1.426300 0.955755 -0.201185
v 1.536308 0.955755 -0.173572
v 1.542328 0.955755 -0.168939
v 1.545006 0.956874 -0.171086
v 1.543466 0.955755 -0.161116
v 1.531235 0.955755 -0.107813
v 1.546148 0.956874 -0.163343
v 1.547269 0.959576 -0.164310
v 1.533935 0.956874 -0.110208
v 1.535054 0.959576 -0.111200
v 1.535195 0.956874 -0.103818
v 1.541873 0.956874 -0.103512
v 1.536262 0.959576 -0.105035
v 1.532617 0.955755 -0.100882
v 1.540265 0.955755 -0.100518
v 1.534891 0.955755 -0.090514
v 1.637285 0.955755 -0.137340
v 1.639911 0.955755 -0.134421
v 1.639804 0.956874 -0.140713
v 1.640848 0.959576 -0.142110
v 1.642541 0.956874 -0.135797
v 1.641487 0.956874 -0.128415
v 1.643630 0.959576 -0.136366
v 1.643630 0.984935 -0.136366
v 1.642622 0.959576 -0.128158
v 1.642622 0.984935 -0.128158
v 1.577120 0.959576 -0.008081
v 1.577120 0.984935 -0.008081
v 1.576407 0.959576 -0.000161
v 1.576025 0.956874 -0.008411
v 1.573382 0.955755 -0.009207
v 1.575227 0.956874 0.000454
v 1.572378 0.955755 0.001938
v 1.581096 0.956874 0.005759
v 1.578167 0.955755 0.007187
v 1.781944 0.956874 0.073617
v 1.582310 0.959576 0.005168
v 1.783057 0.959576 0.072985
v 1.582310 0.984935 0.005168
v 1.576407 0.984935 -0.000161
v 1.581350 0.987636 0.005636
v 1.783057 0.984935 0.072985
v 1.781942 0.987636 0.073417
v 1.785261 0.984935 0.078737
v 1.785261 0.959576 0.078737
v 1.784140 0.987636 0.078553
v 1.781434 0.988755 0.078109
v 1.779251 0.988755 0.074459
v 1.778905 0.988755 0.077666
v 1.777950 0.988755 0.076070
v 1.578021 0.988755 0.008474
v 1.569916 0.988755 0.001014
v 1.579034 0.988755 0.006765
v 1.554150 0.988755 0.018894
v 1.540603 0.988755 0.003045
v 1.550800 0.988755 -0.016012
v 1.539449 0.988755 -0.086131
v 1.570974 0.988755 -0.009944
v 1.572870 0.988755 -0.009362
v 1.636874 0.988755 -0.130702
v 1.637710 0.988755 -0.133913
v 1.638694 0.988755 -0.129981
v 1.641471 0.987636 -0.128692
v 1.639901 0.988755 -0.134612
v 1.642538 0.987636 -0.135853
v 1.637316 0.988755 -0.136778
v 1.636941 0.988755 -0.134557
v 1.639814 0.987636 -0.140548
v 1.541840 0.988755 -0.100541
v 1.533074 0.988755 -0.100930
v 1.542155 0.988755 -0.098582
v 1.542334 0.987636 -0.103518
v 1.542539 0.984935 -0.104752
v 1.535328 0.987636 -0.103832
v 1.533960 0.987636 -0.110766
v 1.536262 0.984935 -0.105035
v 1.535054 0.984935 -0.111200
v 1.547270 0.984935 -0.164316
v 1.546058 0.987636 -0.163386
v 1.546124 0.984935 -0.171988
v 1.540144 0.984935 -0.176548
v 1.546126 0.959576 -0.171986
v 1.544905 0.987636 -0.171117
v 1.538888 0.987636 -0.175710
v 1.541997 0.988755 -0.169034
v 1.540191 0.988755 -0.167969
v 1.535945 0.988755 -0.173663
v 1.543153 0.988755 -0.161235
v 1.531322 0.988755 -0.109717
v 1.541177 0.988755 -0.161313
v 1.529334 0.988755 -0.109746
v 1.513730 0.988755 -0.102728
v 1.531466 0.988755 -0.099056
v 1.520250 0.988755 -0.084423
v 1.470005 0.988755 -0.051375
v 1.455321 0.988755 -0.093192
v 1.428939 0.988755 -0.198519
v 1.453458 0.988755 -0.092633
v 1.426266 0.988755 -0.201194
v 1.450757 0.987636 -0.092181
v 1.422519 0.987636 -0.204920
v 1.420967 0.984935 -0.206463
v 1.535083 0.988755 -0.171876
v 1.540154 0.959576 -0.176546
v 1.640848 0.984935 -0.142110
v 1.542539 0.959576 -0.104752
v 1.575875 0.987636 -0.008456
v 1.575099 0.987636 -0.000044
v 1.571944 0.988755 0.000239
v 1.784140 0.956874 0.078566
v 1.781434 0.955755 0.078152
v 1.779258 0.955755 0.075142
v 1.778192 0.955755 0.080157
v 1.550800 0.955755 -0.016012
v 1.638747 0.955755 -0.129037
v 1.540603 0.955755 0.003045
v 1.524281 0.955755 -0.094415
v 1.522144 0.955755 -0.099748
v 1.468040 0.955755 -0.051148
v 1.596122 0.984935 0.182387
v 1.599634 0.984935 0.178905
v 1.595423 0.987636 0.181206
v 1.600315 0.984935 0.173655
v 1.552323 0.984935 0.094158
v 1.470480 0.955755 0.241090
v 1.430854 0.955755 0.177149
v 1.434438 0.955755 0.298482
v 1.502952 0.955755 0.267620
v 1.648120 0.955755 0.258167
v 1.488670 0.955755 0.274729
v 1.503966 0.956814 0.268448
v 1.504980 0.957872 0.269276
v 1.649109 0.956814 0.259003
v 1.489551 0.956814 0.275618
v 1.490432 0.957872 0.276506
v 1.486213 0.956814 0.292568
v 1.544648 0.956814 0.565365
v 1.487292 0.957872 0.292445
v 1.485133 0.955755 0.292691
v 1.543392 0.955755 0.564694
v 1.540797 0.955755 0.569797
v 1.541627 0.956814 0.570622
v 1.535827 0.955755 0.572594
v 1.530875 0.955755 0.570291
v 1.535953 0.956814 0.573646
v 1.536079 0.957872 0.574698
v 1.530428 0.956814 0.571579
v 1.529981 0.957872 0.572866
v 1.364973 0.956814 0.310773
v 1.364502 0.957872 0.312021
v 1.365445 0.955755 0.309525
v 1.344629 0.956814 0.316924
v 1.345464 0.957872 0.317777
v 1.343795 0.955755 0.316070
v 1.310489 0.956814 0.418433
v 1.309664 0.955755 0.417552
v 1.311314 0.957872 0.419314
v 1.306685 0.956814 0.423461
v 1.307057 0.957872 0.424459
v 1.302630 0.956814 0.424167
v 1.306313 0.955755 0.422464
v 1.302712 0.955755 0.423053
v 1.299580 0.955755 0.419222
v 1.268018 0.955755 0.340644
v 1.299045 0.956814 0.420452
v 1.298510 0.957872 0.421681
v 1.267429 0.956814 0.341714
v 1.266840 0.957872 0.342784
v 1.258485 0.956814 0.332202
v 1.258573 0.955755 0.330604
v 1.258398 0.957872 0.333801
v 1.248897 0.956814 0.340902
v 1.111976 0.956814 0.535395
v 1.249269 0.957872 0.342086
v 1.248525 0.955755 0.339717
v 1.111737 0.955755 0.534012
v 1.235597 0.955755 0.298546
v 1.283589 0.955755 0.312370
v 1.168356 0.955755 0.237344
v 1.104404 0.955755 0.530194
v 1.257730 0.955755 0.260246
v 1.167464 0.956814 0.236532
v 1.166571 0.957872 0.235720
v 1.256323 0.956814 0.259323
v 1.103212 0.956814 0.530709
v 1.102020 0.957872 0.531223
v 1.103254 0.956814 0.537590
v 1.103969 0.955755 0.536786
v 1.106461 0.956814 0.539196
v 1.102539 0.957872 0.538394
v 1.102539 0.986221 0.538394
v 1.106223 0.957872 0.540289
v 1.112214 0.957872 0.536778
v 1.106223 0.986221 0.540289
v 1.106533 0.987488 0.538995
v 1.112214 0.986221 0.536778
v 1.249269 0.986221 0.342086
v 1.111966 0.987488 0.535145
v 1.248841 0.987488 0.340722
v 1.111717 0.988755 0.533511
v 1.248413 0.988755 0.339358
v 1.106843 0.988755 0.537701
v 1.111591 0.988755 0.529920
v 1.109142 0.988755 0.532927
v 1.244084 0.988755 0.335563
v 1.235597 0.988755 0.298546
v 1.259088 0.988755 0.321976
v 1.261088 0.988755 0.305888
v 1.258765 0.988755 0.329984
v 1.273252 0.988755 0.337048
v 1.300007 0.988755 0.410523
v 1.268301 0.988755 0.340130
v 1.283589 0.988755 0.312370
v 1.338957 0.988755 0.311122
v 1.308484 0.988755 0.411078
v 1.258050 0.988755 0.266453
v 1.368178 0.988755 0.302288
v 1.343466 0.988755 0.315733
v 1.365631 0.988755 0.309032
v 1.344465 0.987488 0.316755
v 1.309338 0.988755 0.417204
v 1.306191 0.988755 0.422064
v 1.310326 0.987488 0.418259
v 1.311314 0.986221 0.419314
v 1.306624 0.987488 0.423261
v 1.302671 0.987488 0.423941
v 1.307057 0.986221 0.424459
v 1.302549 0.986221 0.425280
v 1.298510 0.986221 0.421681
v 1.302549 0.957872 0.425280
v 1.266840 0.986221 0.342784
v 1.299188 0.987488 0.420199
v 1.299865 0.988755 0.418717
v 1.267570 0.987488 0.341457
v 1.258582 0.987488 0.331892
v 1.258398 0.986221 0.333801
v 1.302793 0.988755 0.422601
v 1.303491 0.988755 0.415353
v 1.305854 0.988755 0.415567
v 1.345464 0.986221 0.317777
v 1.364502 0.986221 0.312021
v 1.529981 0.986221 0.572866
v 1.365066 0.987488 0.310527
v 1.530516 0.987488 0.571325
v 1.531051 0.988755 0.569783
v 1.535833 0.987488 0.573446
v 1.536079 0.986221 0.574698
v 1.535587 0.988755 0.572194
v 1.541328 0.987488 0.570508
v 1.542457 0.986221 0.571447
v 1.540200 0.988755 0.569569
v 1.544220 0.987488 0.565298
v 1.545903 0.986221 0.566036
v 1.542537 0.988755 0.564560
v 1.485803 0.987488 0.292615
v 1.487292 0.986221 0.292445
v 1.484313 0.988755 0.292785
v 1.489041 0.987488 0.276047
v 1.490432 0.986221 0.276506
v 1.487650 0.988755 0.275588
v 1.504074 0.987488 0.268536
v 1.504980 0.986221 0.269276
v 1.503168 0.988755 0.267796
v 1.648891 0.987488 0.259095
v 1.650097 0.986221 0.259840
v 1.647685 0.988755 0.258351
v 1.653346 0.987488 0.255839
v 1.654588 0.986221 0.256181
v 1.653845 0.987488 0.250209
v 1.652104 0.988755 0.255498
v 1.652568 0.988755 0.250271
v 1.646565 0.988755 0.253221
v 1.646745 0.988755 0.251192
v 1.642759 0.988755 0.255250
v 1.501685 0.988755 0.262141
v 1.482572 0.988755 0.271739
v 1.470480 0.988755 0.241090
v 1.455479 0.988755 0.264977
v 1.432613 0.988755 0.183941
v 1.393898 0.988755 0.221194
v 1.643694 0.988755 0.248108
v 1.431066 0.988755 0.177493
v 1.430421 0.987488 0.176451
v 1.390378 0.988755 0.216646
v 1.649069 0.988755 0.246676
v 1.650382 0.987488 0.246211
v 1.651696 0.986221 0.245747
v 1.429775 0.986221 0.175409
v 1.651696 0.957872 0.245747
v 1.655123 0.986221 0.250148
v 1.655123 0.957872 0.250148
v 1.654062 0.956814 0.250128
v 1.654588 0.957872 0.256181
v 1.653563 0.956814 0.255752
v 1.650097 0.957872 0.259840
v 1.652539 0.955755 0.255324
v 1.653001 0.955755 0.250107
v 1.649502 0.955755 0.246523
v 1.650599 0.956814 0.246135
v 1.430314 0.956814 0.176279
v 1.429775 0.957872 0.175409
v 1.391074 0.956814 0.214080
v 1.391573 0.957872 0.212240
v 1.390575 0.955755 0.215920
v 1.359642 0.956814 0.233422
v 1.317127 0.956814 0.248889
v 1.358714 0.957872 0.232471
v 1.360569 0.955755 0.234372
v 1.317890 0.955755 0.249906
v 1.316364 0.957872 0.247873
v 1.358714 0.986221 0.232471
v 1.391573 0.986221 0.212240
v 1.359825 0.987488 0.233609
v 1.316364 0.986221 0.247873
v 1.254916 0.986221 0.258401
v 1.317277 0.987488 0.249090
v 1.318191 0.988755 0.250307
v 1.256601 0.987488 0.259505
v 1.167640 0.987488 0.236692
v 1.258285 0.988755 0.260610
v 1.168708 0.988755 0.237665
v 1.172990 0.988755 0.244665
v 1.104875 0.988755 0.529992
v 1.107532 0.988755 0.528702
v 1.104276 0.988755 0.536484
v 1.103447 0.987488 0.530607
v 1.102020 0.986221 0.531223
v 1.103408 0.987488 0.537439
v 1.166571 0.986221 0.235720
v 1.107020 0.988755 0.532123
v 1.360936 0.988755 0.234747
v 1.319665 0.988755 0.255856
v 1.363437 0.988755 0.239922
v 1.254916 0.957872 0.258401
v 1.390975 0.987488 0.214443
v 1.434438 0.988755 0.298482
v 1.478472 0.988755 0.292866
v 1.536129 0.988755 0.555591
v 1.536476 0.988755 0.563012
v 1.533622 0.988755 0.564045
v 1.527652 0.988755 0.557505
v 1.545903 0.957872 0.566036
v 1.542457 0.957872 0.571447
v 1.106700 0.955755 0.538103
vn 0.3166 -0.9485 0.0056
vn 0.2765 -0.9353 -0.2208
vn 0.1212 -0.9404 -0.3179
vn -0.0000 -1.0000 -0.0000
vn -0.1877 -0.9448 0.2687
vn -0.0585 -0.9823 -0.1777
vn -0.0825 -0.8584 0.5063
vn 0.1456 -0.9084 -0.3919
vn 0.3736 -0.8988 -0.2292
vn 0.4265 -0.8865 0.1795
vn 0.2181 -0.8616 0.4583
vn 0.2216 -0.7234 -0.6539
vn 0.2787 -0.7151 -0.6410
vn 0.5238 -0.7598 -0.3851
vn 0.7122 -0.4700 -0.5215
vn 0.2846 -0.4009 -0.8708
vn 0.4092 -0.3721 -0.8331
vn 0.8209 -0.3759 -0.4300
vn 0.5822 -0.7463 -0.3226
vn 0.8983 -0.3617 0.2497
vn 0.6637 -0.7147 0.2206
vn 0.5442 -0.3226 0.7745
vn 0.4002 -0.6192 0.6756
vn -0.1604 -0.6652 0.7292
vn 0.8966 0.3633 0.2533
vn 0.5429 0.3264 0.7738
vn 0.8274 0.3645 -0.4273
vn 0.6597 0.7194 0.2174
vn 0.5983 0.7246 -0.3420
vn 0.3969 0.6249 0.6723
vn -0.2557 -0.3286 0.9092
vn -0.2557 0.3286 0.9092
vn -0.1603 0.6653 0.7292
vn 0.2163 0.8633 0.4560
vn 0.4244 0.8890 0.1718
vn -0.0826 0.8583 0.5064
vn -0.1877 0.9447 0.2690
vn -0.4207 0.7331 0.5344
vn -0.5801 0.3948 0.7125
vn -0.0000 1.0000 -0.0000
vn -0.1439 0.9472 0.2867
vn -0.2784 0.7664 0.5789
vn -0.0920 0.9411 0.3253
vn -0.0323 0.9341 0.3556
vn -0.1703 0.7446 0.6455
vn -0.0093 0.6571 0.7537
vn -0.2269 0.4152 0.8810
vn 0.0079 0.3364 0.9417
vn -0.3867 0.4324 0.8145
vn -0.2316 0.8729 0.4294
vn -0.3501 0.7450 0.5677
vn -0.5553 0.3598 0.7498
vn 0.0079 -0.3365 0.9417
vn -0.2269 -0.4152 0.8810
vn -0.5553 -0.3598 0.7498
vn -0.9307 -0.3610 0.0589
vn -0.9306 0.3611 0.0603
vn -0.7211 0.6881 0.0809
vn -0.7642 -0.3707 -0.5278
vn -0.7651 0.3710 -0.5262
vn -0.5695 0.7463 -0.3446
vn -0.4024 0.9135 0.0606
vn -0.4194 0.8851 -0.2018
vn 0.0001 0.9844 -0.1762
vn 0.2512 0.9353 -0.2493
vn -0.2178 0.9653 -0.1444
vn -0.4879 0.8670 -0.1008
vn -0.2222 0.8924 -0.3928
vn -0.2672 0.7505 -0.6044
vn -0.7300 0.6422 -0.2338
vn -0.6411 0.7109 -0.2893
vn -0.8314 0.4119 -0.3729
vn -0.8594 0.3403 -0.3815
vn -0.3273 0.3753 -0.8672
vn 0.0690 0.5538 -0.8298
vn 0.0436 0.8220 -0.5678
vn 0.6803 0.3877 -0.6221
vn 0.5204 0.7033 -0.4842
vn 0.6188 0.3558 -0.7004
vn 0.5202 0.6794 -0.5175
vn 0.3218 0.9034 -0.2834
vn 0.0082 0.3725 -0.9280
vn 0.0523 0.7472 -0.6625
vn 0.0900 0.8872 -0.4525
vn 0.0079 -0.3750 -0.9270
vn 0.6163 -0.3629 -0.6989
vn 0.5066 -0.6938 -0.5119
vn 0.0447 -0.7526 -0.6570
vn -0.5689 -0.7455 -0.3473
vn -0.7208 -0.6890 0.0758
vn -0.4157 -0.8861 -0.2048
vn -0.4050 -0.9125 0.0579
vn 0.0767 -0.8911 -0.4473
vn 0.2449 -0.9385 -0.2434
vn -0.2318 -0.8728 0.4295
vn 0.3142 -0.9066 -0.2818
vn -0.3502 -0.7450 0.5677
vn -0.0323 -0.9340 0.3558
vn -0.0094 -0.6571 0.7538
vn 0.1756 -0.9548 -0.2396
vn 0.0028 -0.9532 -0.3024
vn -0.2226 -0.9637 -0.1473
vn 0.5105 -0.7168 -0.4749
vn 0.0355 -0.8233 -0.5665
vn 0.6774 -0.3969 -0.6193
vn 0.0592 -0.5563 -0.8288
vn -0.8348 -0.4027 -0.3755
vn -0.6510 -0.6993 -0.2953
vn -0.8596 -0.3362 -0.3847
vn -0.7343 -0.6343 -0.2418
vn -0.3253 -0.3737 -0.8687
vn -0.2646 -0.7470 -0.6100
vn -0.4965 -0.8614 -0.1069
vn -0.2153 -0.8923 -0.3967
vn 0.3821 -0.3706 -0.8466
vn 0.2969 -0.7308 -0.6147
vn 0.2101 -0.8968 -0.3894
vn 0.5279 -0.7230 -0.4457
vn 0.2904 -0.9268 -0.2380
vn 0.6922 -0.3874 -0.6089
vn 0.3822 0.3704 -0.8466
vn 0.6931 0.3867 -0.6084
vn 0.5316 0.7217 -0.4434
vn 0.2996 0.7307 -0.6134
vn 0.2158 0.8955 -0.3893
vn 0.2910 0.9275 -0.2348
vn 0.3830 0.7401 -0.5527
vn 0.5111 0.4342 -0.7418
vn 0.1754 0.9549 -0.2395
vn -0.0585 0.9823 -0.1778
vn -0.1792 0.8075 -0.5620
vn -0.2599 0.9304 -0.2584
vn -0.3884 0.8040 -0.4503
vn -0.2672 0.5434 -0.7958
vn -0.5407 0.4186 -0.7297
vn 0.0373 0.8360 -0.5474
vn 0.0864 0.4336 -0.8970
vn 0.0021 0.9321 -0.3622
vn 0.3647 0.8453 -0.3904
vn 0.6038 0.4526 -0.6562
vn 0.2269 0.9452 -0.2348
vn 0.5199 0.8524 -0.0556
vn 0.8816 0.4457 -0.1554
vn 0.3298 0.9439 -0.0131
vn 0.6186 0.7857 0.0046
vn 0.8879 0.4599 0.0094
vn 0.2866 0.9580 0.0052
vn 0.5246 0.7342 -0.4310
vn 0.6872 0.4431 -0.5757
vn 0.2166 0.9653 -0.1461
vn 0.1430 0.9153 -0.3765
vn 0.2545 0.6203 -0.7419
vn 0.1577 0.8827 -0.4426
vn 0.3816 0.8890 -0.2531
vn 0.3015 0.6443 -0.7029
vn 0.2947 0.3340 -0.8953
vn 0.4192 0.3364 -0.8433
vn 0.9055 -0.4243 0.0096
vn 0.6731 -0.7396 0.0051
vn 0.5590 -0.8271 -0.0592
vn 0.8879 -0.4307 -0.1616
vn 0.6039 -0.4435 -0.6623
vn 0.3759 -0.8338 -0.4043
vn 0.3611 -0.9325 -0.0121
vn 0.2338 -0.9420 -0.2408
vn 0.0181 -0.9329 -0.3596
vn 0.0452 -0.8343 -0.5495
vn 0.0835 -0.4329 -0.8975
vn -0.2564 -0.9302 -0.2626
vn -0.3810 -0.8079 -0.4495
vn -0.5393 -0.4206 -0.7296
vn -0.2671 -0.5435 -0.7958
vn -0.1792 -0.8074 -0.5621
vn 0.5111 -0.4347 -0.7415
vn 0.3832 -0.7400 -0.5528
vn -0.0920 -0.9411 0.3254
vn -0.1539 -0.9393 0.3065
vn -0.1703 -0.7445 0.6456
vn -0.2784 -0.7663 0.5790
vn -0.3867 -0.4325 0.8145
vn -0.4208 -0.7330 0.5344
vn -0.5801 -0.3949 0.7124
vn 0.1579 -0.9860 -0.0533
vn 0.0425 -0.9865 0.1583
vn 0.1301 -0.9886 0.0755
vn 0.0915 -0.9865 -0.1361
vn 0.1348 -0.9707 -0.1991
vn 0.2291 -0.9728 0.0340
vn 0.0513 -0.9728 0.2258
vn -0.1605 -0.9835 0.0830
vn -0.1596 -0.9872 -0.0080
vn 0.2072 -0.9761 -0.0652
vn 0.2079 -0.9727 0.1030
vn 0.0605 -0.9800 0.1894
vn -0.5395 -0.7573 0.3680
vn 0.2730 -0.7011 0.6588
vn -0.6689 -0.7419 -0.0465
vn -0.7734 -0.2787 0.5694
vn 0.4006 -0.2103 0.8918
vn -0.9776 -0.1994 -0.0675
vn 0.6442 -0.6941 0.3214
vn 0.8756 -0.2060 0.4368
vn 0.7128 -0.6811 -0.1674
vn 0.9601 -0.1959 -0.1995
vn 0.6359 -0.7384 -0.2245
vn 0.9227 -0.2042 -0.3271
vn 0.4586 -0.8525 0.2509
vn 0.8402 -0.2768 0.4663
vn 0.1322 -0.7303 0.6702
vn 0.1827 -0.1980 0.9630
vn 0.3001 -0.6753 0.6737
vn 0.4685 -0.2026 0.8599
vn 0.4745 0.1874 0.8601
vn 0.1869 0.1630 0.9688
vn 0.8285 0.2654 0.4930
vn 0.1406 0.6739 0.7254
vn 0.3140 0.6503 0.6918
vn 0.4579 0.8426 0.2834
vn 0.0516 0.9803 0.1907
vn 0.0583 0.9628 0.2637
vn 0.0819 0.9958 0.0408
vn 0.1413 0.9888 -0.0481
vn 0.1911 0.9799 -0.0573
vn 0.6041 0.7677 -0.2137
vn 0.6955 0.7000 -0.1621
vn 0.2053 0.9724 0.1104
vn 0.6407 0.6968 0.3225
vn 0.0574 0.9804 0.1886
vn 0.2710 0.6996 0.6612
vn -0.1599 0.9837 0.0827
vn -0.1590 0.9873 -0.0080
vn -0.5387 0.7582 0.3674
vn -0.6677 0.7430 -0.0464
vn -0.1829 0.9815 0.0564
vn -0.6751 0.7094 0.2024
vn -0.9401 0.1938 0.2805
vn -0.9774 0.2002 -0.0675
vn -0.7733 0.2794 0.5692
vn -0.9403 -0.1936 0.2800
vn -0.6754 -0.7091 0.2025
vn -0.9396 0.1951 0.2813
vn -0.9395 -0.1961 0.2809
vn -0.6797 -0.7045 0.2041
vn -0.6773 -0.2881 -0.6770
vn -0.4501 -0.7693 -0.4534
vn -0.6773 0.2874 -0.6773
vn -0.1826 -0.9815 0.0567
vn -0.1900 -0.9801 0.0581
vn -0.1178 -0.9855 -0.1218
vn 0.2961 -0.7158 -0.6324
vn 0.0753 -0.9794 -0.1873
vn 0.4343 -0.2160 -0.8745
vn 0.1748 -0.9803 -0.0914
vn 0.2429 -0.9695 0.0331
vn 0.1614 -0.9868 -0.0105
vn 0.6010 -0.7205 -0.3458
vn 0.7351 -0.6769 0.0387
vn 0.6949 -0.7188 0.0200
vn 0.8355 -0.2277 -0.5001
vn 0.9815 -0.1901 0.0214
vn 0.9811 -0.1897 0.0389
vn 0.6219 -0.2989 -0.7238
vn 0.3213 -0.8696 -0.3750
vn 0.0912 -0.9902 -0.1054
vn -0.1156 -0.7259 -0.6780
vn -0.0146 -0.9866 -0.1623
vn -0.1740 -0.1949 -0.9652
vn 0.0077 -0.9743 -0.2253
vn 0.2175 -0.9757 -0.0267
vn 0.2010 -0.9769 0.0721
vn 0.1599 -0.9859 0.0485
vn 0.2080 -0.7083 -0.6746
vn 0.6941 -0.7102 -0.1174
vn 0.3744 -0.2358 -0.8968
vn 0.9611 -0.2159 -0.1724
vn 0.6918 -0.6847 0.2293
vn 0.9346 -0.1907 0.3002
vn 0.3694 0.2476 -0.8957
vn 0.9603 0.2200 -0.1717
vn 0.9305 0.2044 0.3039
vn 0.9313 0.2294 0.2830
vn 0.9368 -0.2041 0.2843
vn 0.6456 -0.7382 0.1959
vn 0.9066 -0.2411 -0.3463
vn 0.8989 0.2289 -0.3735
vn 0.5546 -0.8051 -0.2102
vn 0.1554 -0.9858 -0.0644
vn 0.4812 -0.1967 -0.8543
vn 0.3412 -0.7282 -0.5945
vn 0.5000 -0.6610 -0.5595
vn 0.6867 -0.1890 -0.7020
vn 0.4876 0.1586 -0.8585
vn 0.6933 0.1727 -0.6997
vn 0.5635 0.7916 -0.2364
vn 0.3692 0.6648 -0.6494
vn 0.5167 0.6327 -0.5768
vn 0.9707 0.2105 0.1160
vn 0.9692 -0.2175 0.1159
vn 0.7189 0.6897 0.0863
vn 0.2338 0.9718 0.0296
vn 0.1509 0.9596 -0.2376
vn 0.1131 0.9794 -0.1672
vn 0.1169 0.9924 -0.0376
vn 0.1423 0.9889 0.0436
vn 0.1873 0.9802 0.0643
vn 0.2152 0.9760 -0.0328
vn 0.6112 0.7692 0.1865
vn 0.6737 0.7046 0.2226
vn 0.6873 0.7164 -0.1202
vn 0.2041 0.7264 -0.6563
vn 0.0086 0.9798 -0.2000
vn -0.0200 0.9871 -0.1588
vn -0.1083 0.7462 -0.6568
vn 0.0548 0.9963 -0.0655
vn 0.3395 0.8582 -0.3850
vn -0.1637 0.2103 -0.9638
vn 0.6311 0.2824 -0.7225
vn 0.6902 0.7234 0.0159
vn 0.1717 0.9851 -0.0046
vn 0.9808 0.1932 0.0264
vn 0.9788 0.2038 0.0220
vn 0.7160 0.6971 0.0382
vn 0.8347 0.2365 -0.4974
vn 0.5889 0.7320 -0.3426
vn 0.4353 0.2198 -0.8731
vn 0.2925 0.7195 -0.6299
vn 0.0733 0.9796 -0.1870
vn 0.1647 0.9822 -0.0905
vn 0.2228 0.9744 0.0288
vn -0.1910 0.9799 0.0581
vn -0.1191 0.9854 -0.1213
vn -0.6811 0.7031 0.2044
vn -0.4515 0.7684 -0.4536
vn 0.7091 -0.6997 0.0874
vn 0.4000 0.2094 0.8922
vn 0.8762 0.2079 0.4347
vn 0.9568 0.2084 -0.2029
vn 0.9175 0.2280 -0.3260
vn -0.0643 -0.8583 -0.5091
vn 0.2329 -0.8645 -0.4453
vn 0.4264 -0.8866 -0.1795
vn 0.3737 -0.8988 0.2292
vn 0.1140 -0.8942 0.4330
vn 0.1030 -0.9434 0.3153
vn -0.1878 -0.9446 -0.2691
vn -0.0695 -0.9800 0.1864
vn 0.3342 -0.9425 -0.0056
vn 0.2764 -0.9353 0.2208
vn 0.2329 -0.6990 0.6762
vn 0.1749 -0.7053 0.6870
vn 0.5238 -0.7598 0.3850
vn 0.3591 -0.3617 0.8604
vn 0.2130 -0.3897 0.8960
vn 0.7122 -0.4699 0.5216
vn 0.6993 -0.7148 -0.0041
vn 0.9137 -0.4065 -0.0031
vn 0.6373 -0.7655 0.0883
vn 0.9031 -0.3909 0.1778
vn 0.4091 -0.9120 0.0290
vn 0.2844 -0.9135 0.2909
vn 0.0214 -0.9007 0.4340
vn -0.2878 -0.9082 0.3041
vn 0.4511 -0.7515 0.4814
vn 0.0520 -0.7519 0.6573
vn -0.4270 -0.7411 0.5180
vn 0.6215 -0.3890 0.6799
vn 0.0848 -0.3805 0.9209
vn -0.5480 -0.3777 0.7463
vn -0.2969 -0.5187 0.8018
vn -0.2156 -0.7834 0.5829
vn 0.6165 -0.4633 0.6366
vn 0.4617 -0.7481 0.4766
vn 0.1772 -0.9672 0.1823
vn 0.6230 -0.7098 0.3287
vn 0.8085 -0.3704 0.4574
vn 0.3689 -0.9121 0.1788
vn 0.3550 -0.7308 0.5830
vn 0.2467 -0.8968 0.3672
vn 0.4622 -0.3706 0.8056
vn -0.2396 -0.3736 0.8961
vn -0.2043 -0.7469 0.6327
vn -0.1757 -0.8924 0.4156
vn -0.3778 -0.9022 0.2079
vn -0.2754 -0.9420 0.1915
vn -0.6113 -0.6892 0.3889
vn -0.5967 -0.7104 0.3732
vn -0.7547 -0.3603 0.5482
vn -0.7843 -0.3965 0.4771
vn -0.0128 -0.9556 0.2943
vn -0.0174 -0.8343 0.5510
vn -0.0270 -0.5936 0.8043
vn 0.2597 -0.9349 0.2420
vn 0.5308 -0.7081 0.4656
vn 0.6981 -0.3894 0.6008
vn 0.5106 -0.6923 0.5098
vn 0.6198 -0.3620 0.6963
vn 0.3182 -0.9054 0.2810
vn 0.0769 -0.8911 0.4473
vn -0.4157 -0.8861 0.2048
vn -0.4052 -0.9123 -0.0586
vn -0.1829 -0.8541 -0.4868
vn -0.0199 -0.9367 -0.3495
vn -0.7208 -0.6888 -0.0767
vn -0.2930 -0.7234 -0.6252
vn 0.0539 -0.6154 -0.7863
vn -0.9307 -0.3608 -0.0599
vn -0.5078 -0.3499 -0.7872
vn 0.0934 -0.2973 -0.9502
vn -0.7642 -0.3710 0.5277
vn -0.5689 -0.7456 0.3471
vn 0.0446 -0.7525 0.6571
vn 0.0080 -0.3749 0.9270
vn -0.7651 0.3710 0.5263
vn -0.9306 0.3609 -0.0613
vn 0.0083 0.3724 0.9280
vn 0.6223 0.3548 0.6977
vn 0.0523 0.7474 0.6623
vn -0.5696 0.7461 0.3447
vn 0.5242 0.6779 0.5154
vn 0.7010 0.3799 0.6035
vn 0.5409 0.6942 0.4749
vn 0.2659 0.9316 0.2479
vn 0.3259 0.9022 0.2825
vn 0.0900 0.8872 0.4525
vn -0.0081 0.9888 0.1490
vn -0.2691 0.9448 0.1871
vn -0.3717 0.9066 0.1998
vn 0.3690 0.9127 0.1754
vn 0.1773 0.9671 0.1826
vn -0.0695 0.9800 0.1862
vn 0.4615 0.7483 0.4765
vn -0.2156 0.7836 0.5827
vn 0.6262 0.7082 0.3260
vn 0.2524 0.8955 0.3665
vn 0.3576 0.7307 0.5815
vn 0.4624 0.3704 0.8056
vn 0.8092 0.3697 0.4567
vn 0.6165 0.4633 0.6366
vn -0.1832 0.8924 0.4125
vn -0.2075 0.7505 0.6274
vn -0.2418 0.3753 0.8948
vn -0.6089 0.6965 0.3796
vn -0.7547 0.3650 0.5452
vn -0.7813 0.4051 0.4749
vn -0.5862 0.7227 0.3662
vn -0.0066 0.8338 0.5521
vn -0.0137 0.5925 0.8055
vn -0.2969 0.5187 0.8018
vn -0.5497 0.3755 0.7462
vn -0.4355 0.7363 0.5178
vn -0.2921 0.9085 0.2987
vn 0.0875 0.3813 0.9203
vn 0.0433 0.7540 0.6554
vn 0.0038 0.8993 0.4373
vn 0.6218 0.3993 0.6738
vn 0.4406 0.7666 0.4671
vn 0.2779 0.9175 0.2844
vn 0.8966 0.4083 0.1717
vn 0.5992 0.7963 0.0829
vn 0.3784 0.9252 0.0283
vn 0.8968 0.4424 -0.0032
vn 0.6461 0.7632 -0.0046
vn 0.3038 0.9527 -0.0057
vn 0.5246 0.7342 0.4310
vn 0.6872 0.4431 0.5757
vn 0.2166 0.9653 0.1461
vn 0.2024 0.5969 0.7764
vn 0.2226 0.3191 0.9212
vn 0.1209 0.9191 0.3751
vn 0.3695 0.3268 0.8699
vn 0.2505 0.6236 0.7405
vn 0.1198 0.8646 0.4880
vn 0.5983 0.7246 0.3420
vn 0.8274 0.3646 0.4273
vn 0.3815 0.8890 0.2530
vn 0.6595 0.7196 -0.2174
vn 0.8966 0.3633 -0.2533
vn 0.4243 0.8891 -0.1718
vn -0.0644 0.8585 -0.5088
vn -0.1877 0.9447 -0.2690
vn 0.2311 0.8662 -0.4431
vn 0.4165 0.6233 -0.6618
vn -0.1385 0.6722 -0.7273
vn -0.4207 0.7331 -0.5344
vn 0.5596 0.3259 -0.7620
vn -0.2354 0.3321 -0.9134
vn -0.2354 -0.3322 -0.9134
vn 0.5609 -0.3221 -0.7627
vn 0.8982 -0.3617 -0.2497
vn 0.8208 -0.3760 0.4300
vn 0.6636 -0.7148 -0.2204
vn 0.4198 -0.6177 -0.6650
vn 0.5820 -0.7464 0.3226
vn -0.1387 -0.6721 -0.7273
vn -0.4208 -0.7330 -0.5344
vn -0.5801 -0.3949 -0.7124
vn -0.3867 -0.4325 -0.8145
vn -0.2784 -0.7663 -0.5790
vn -0.1539 -0.9393 -0.3065
vn -0.1703 -0.7445 -0.6456
vn -0.0920 -0.9411 -0.3254
vn -0.2269 -0.4152 -0.8810
vn -0.2269 0.4152 -0.8810
vn -0.3867 0.4324 -0.8145
vn -0.5801 0.3948 -0.7125
vn -0.2784 0.7664 -0.5789
vn -0.1703 0.7446 -0.6455
vn 0.0934 0.2972 -0.9502
vn 0.0539 0.6157 -0.7862
vn -0.0199 0.9368 -0.3494
vn -0.0920 0.9411 -0.3253
vn -0.1439 0.9472 -0.2867
vn -0.2930 0.7234 -0.6252
vn -0.1828 0.8544 -0.4865
vn -0.5078 0.3498 -0.7873
vn -0.4025 0.9134 -0.0613
vn -0.7211 0.6880 -0.0818
vn -0.4194 0.8851 0.2018
vt 0.135219 0.539051
vt 0.139073 0.538031
vt 0.141514 0.538109
vt 0.146271 0.546511
vt 0.122525 0.553602
vt 0.145550 0.564032
vt 0.095851 0.568963
vt 0.165062 0.556350
vt 0.144054 0.508023
vt 0.145051 0.506562
vt 0.145643 0.507488
vt 0.144964 0.508111
vt 0.140973 0.537284
vt 0.143324 0.507484
vt 0.139103 0.537901
vt 0.100844 0.673939
vt 0.100448 0.673782
vt 0.100464 0.669627
vt 0.101366 0.669831
vt 0.100631 0.635547
vt 0.101532 0.635733
vt 0.100679 0.634057
vt 0.101089 0.634236
vt 0.144908 0.506219
vt 0.281201 0.404622
vt 0.281582 0.404487
vt 0.281599 0.406033
vt 0.281211 0.406127
vt 0.145931 0.507464
vt 0.145435 0.506588
vt 0.281148 0.403267
vt 0.282258 0.403035
vt 0.145917 0.508232
vt 0.165394 0.555508
vt 0.274053 0.404620
vt 0.274091 0.403270
vt 0.274038 0.406121
vt 0.273599 0.404488
vt 0.273570 0.406045
vt 0.273049 0.402989
vt 0.281136 0.350448
vt 0.274071 0.350452
vt 0.273154 0.350676
vt 0.846870 0.736186
vt 0.848248 0.735105
vt 0.848037 0.736914
vt 0.847664 0.736695
vt 0.829196 0.701115
vt 0.830286 0.701047
vt 0.821825 0.694134
vt 0.822623 0.694326
vt 0.113921 0.974705
vt 0.113452 0.974661
vt 0.112734 0.959950
vt 0.113243 0.960431
vt 0.828391 0.701691
vt 0.845644 0.735832
vt 0.820240 0.694630
vt 0.817001 0.686888
vt 0.817584 0.686746
vt 0.815244 0.686973
vt 0.819180 0.714237
vt 0.812742 0.711435
vt 0.801341 0.704050
vt 0.782003 0.681495
vt 0.813761 0.677380
vt 0.815508 0.677642
vt 0.783421 0.675512
vt 0.819083 0.665294
vt 0.820659 0.666582
vt 0.816125 0.677608
vt 0.821508 0.666751
vt 0.113464 0.937848
vt 0.112956 0.937994
vt 0.113060 0.921669
vt 0.113513 0.921225
vt 0.113204 0.949937
vt 0.112677 0.950066
vt 0.847221 0.661390
vt 0.848805 0.663028
vt 0.112752 0.898631
vt 0.113153 0.898308
vt 0.121132 0.921212
vt 0.121062 0.937952
vt 0.120711 0.898128
vt 0.676773 0.523062
vt 0.676769 0.590915
vt 0.669917 0.590915
vt 0.669923 0.523057
vt 0.668668 0.590738
vt 0.668666 0.523279
vt 0.676834 0.521339
vt 0.669911 0.521315
vt 0.669524 0.521541
vt 0.846965 0.659765
vt 0.817750 0.612686
vt 0.819537 0.612954
vt 0.818177 0.611445
vt 0.818540 0.611211
vt 0.817133 0.613395
vt 0.844457 0.660829
vt 0.817421 0.612213
vt 0.803233 0.662427
vt 0.808613 0.658410
vt 0.816208 0.655720
vt 0.801223 0.647059
vt 0.816453 0.613198
vt 0.816673 0.612087
vt 0.802436 0.652795
vt 0.799171 0.655304
vt 0.799516 0.650158
vt 0.799993 0.644856
vt 0.798238 0.653179
vt 0.777976 0.644493
vt 0.776691 0.643371
vt 0.776136 0.646146
vt 0.775892 0.644922
vt 0.776401 0.644445
vt 0.775599 0.643105
vt 0.775454 0.642692
vt 0.777087 0.642726
vt 0.797464 0.652455
vt 0.286280 0.381100
vt 0.285707 0.381455
vt 0.285707 0.352651
vt 0.286279 0.352293
vt 0.285746 0.351156
vt 0.286231 0.350882
vt 0.286266 0.383549
vt 0.285714 0.383790
vt 0.798363 0.648855
vt 0.875929 0.229810
vt 0.876400 0.230158
vt 0.877054 0.232708
vt 0.875963 0.232467
vt 0.799928 0.643625
vt 0.876981 0.289661
vt 0.875929 0.289353
vt 0.814594 0.611476
vt 0.816067 0.612350
vt 0.876999 0.291381
vt 0.876567 0.291242
vt 0.817111 0.610494
vt 0.817072 0.610980
vt 0.877001 0.292411
vt 0.876518 0.292278
vt 0.884149 0.291279
vt 0.884190 0.292313
vt 0.884086 0.289572
vt 0.885357 0.289343
vt 0.884530 0.291152
vt 0.884562 0.292186
vt 0.677170 0.521546
vt 0.678232 0.523245
vt 0.121000 0.649490
vt 0.120713 0.649380
vt 0.119574 0.647652
vt 0.121362 0.647540
vt 0.119664 0.649803
vt 0.119767 0.649511
vt 0.120517 0.649765
vt 0.110270 0.608426
vt 0.125793 0.599529
vt 0.157123 0.591053
vt 0.119129 0.648171
vt 0.157342 0.592303
vt 0.127234 0.591166
vt 0.128049 0.590755
vt 0.159344 0.590690
vt 0.097869 0.573760
vt 0.112255 0.592448
vt 0.107773 0.607112
vt 0.106122 0.601088
vt 0.110016 0.609711
vt 0.108219 0.607514
vt 0.118039 0.648800
vt 0.883678 0.232657
vt 0.884944 0.232458
vt 0.883641 0.230403
vt 0.883900 0.229991
vt 0.293995 0.383240
vt 0.293597 0.382940
vt 0.293605 0.381184
vt 0.294334 0.381422
vt 0.107088 0.606325
vt 0.105464 0.601637
vt 0.293705 0.352314
vt 0.294442 0.352593
vt 0.293760 0.350914
vt 0.294170 0.351154
vt 0.079101 0.604050
vt 0.079052 0.603413
vt 0.077838 0.604048
vt 0.077885 0.603709
vt 0.407208 0.640417
vt 0.407585 0.640338
vt 0.407642 0.641514
vt 0.407230 0.641611
vt 0.077546 0.602637
vt 0.077859 0.602739
vt 0.077503 0.603549
vt 0.078460 0.601361
vt 0.079043 0.602026
vt 0.407193 0.638683
vt 0.408158 0.638614
vt 0.399808 0.640488
vt 0.399773 0.638747
vt 0.399811 0.641680
vt 0.399131 0.638633
vt 0.399360 0.640410
vt 0.399316 0.641565
vt 0.774758 0.643939
vt 0.774296 0.643776
vt 0.774998 0.645502
vt 0.774209 0.645900
vt 0.399131 0.603180
vt 0.399901 0.603249
vt 0.781308 0.674858
vt 0.780634 0.674075
vt 0.777150 0.681014
vt 0.777566 0.679558
vt 0.777638 0.743488
vt 0.776764 0.746477
vt 0.775506 0.744907
vt 0.776408 0.682575
vt 0.399186 0.599915
vt 0.399647 0.600180
vt 0.964764 0.870451
vt 0.966177 0.870114
vt 0.966087 0.941980
vt 0.964764 0.942214
vt 0.965629 0.868189
vt 0.966156 0.868099
vt 0.774912 0.746831
vt 0.774469 0.746503
vt 0.965615 0.865992
vt 0.966176 0.865791
vt 0.774927 0.748770
vt 0.774209 0.747970
vt 0.730500 0.852866
vt 0.729868 0.852743
vt 0.729288 0.850429
vt 0.730558 0.850805
vt 0.776366 0.749304
vt 0.775602 0.748464
vt 0.777485 0.747925
vt 0.778721 0.749249
vt 0.729848 0.778116
vt 0.731156 0.778205
vt 0.810793 0.724258
vt 0.809678 0.725288
vt 0.730122 0.773790
vt 0.730612 0.773764
vt 0.814211 0.726812
vt 0.813133 0.726911
vt 0.811437 0.722078
vt 0.778571 0.745805
vt 0.814998 0.722811
vt 0.819334 0.725505
vt 0.819830 0.726105
vt 0.815428 0.726734
vt 0.819689 0.723933
vt 0.844298 0.737140
vt 0.844797 0.738079
vt 0.846215 0.736554
vt 0.845684 0.737058
vt 0.846329 0.738150
vt 0.846595 0.738487
vt 0.844399 0.738823
vt 0.093226 0.669545
vt 0.092599 0.669757
vt 0.092599 0.635793
vt 0.093272 0.635523
vt 0.092784 0.634249
vt 0.093238 0.634021
vt 0.093091 0.673898
vt 0.092670 0.674171
vt 0.737601 0.778185
vt 0.737620 0.774477
vt 0.739151 0.778170
vt 0.737920 0.774213
vt 0.739151 0.850502
vt 0.737519 0.850758
vt 0.737750 0.852785
vt 0.738323 0.852495
vt 0.080387 0.518818
vt 0.081361 0.517628
vt 0.134917 0.537607
vt 0.078720 0.516918
vt 0.078919 0.516504
vt 0.077928 0.518379
vt 0.077503 0.518381
vt 0.078368 0.516948
vt 0.973697 0.868293
vt 0.973235 0.868215
vt 0.973280 0.865905
vt 0.973724 0.866038
vt 0.079146 0.518714
vt 0.077656 0.519322
vt 0.974705 0.870441
vt 0.973089 0.870179
vt 0.972484 0.942017
vt 0.974018 0.942196
vt 0.406985 0.600597
vt 0.406963 0.603149
vt 0.407318 0.600306
vt 0.407932 0.603133
vt 0.095801 0.569668
vt 0.096963 0.573756
vt 0.095012 0.567611
vt 0.127699 0.579094
vt 0.134981 0.570529
vt 0.128043 0.579266
vt 0.135243 0.570797
vt 0.121481 0.938096
vt 0.121244 0.950126
vt 0.120805 0.950004
vt 0.121838 0.921539
vt 0.121257 0.959831
vt 0.120851 0.960244
vt 0.121452 0.974322
vt 0.121838 0.974243
vt 0.166512 0.556600
vt 0.146358 0.564047
vt 0.282258 0.350617
vt 0.121369 0.898366
vt 0.138726 0.537984
vt 0.777271 0.746918
vt 0.777160 0.746572
vt 0.678223 0.590789
vt 0.937373 0.730689
vt 0.933128 0.738325
vt 0.926174 0.726522
vt 0.933178 0.724548
vt 0.933864 0.727964
vt 0.918439 0.709571
vt 0.959773 0.671436
vt 0.960870 0.671320
vt 0.960369 0.672390
vt 0.918240 0.716581
vt 0.929972 0.773515
vt 0.909186 0.731058
vt 0.912675 0.717512
vt 0.961190 0.738158
vt 0.961743 0.738757
vt 0.960867 0.738826
vt 0.929655 0.775702
vt 0.962254 0.739764
vt 0.908097 0.732317
vt 0.313389 0.682292
vt 0.312023 0.681854
vt 0.312029 0.632642
vt 0.313393 0.632492
vt 0.230972 0.272653
vt 0.230937 0.274026
vt 0.178096 0.274136
vt 0.177623 0.272752
vt 0.962521 0.738748
vt 0.312413 0.631605
vt 0.313289 0.631245
vt 0.961856 0.737575
vt 0.239260 0.457352
vt 0.240046 0.457503
vt 0.240009 0.458923
vt 0.239190 0.458716
vt 0.937863 0.730046
vt 0.239190 0.432384
vt 0.239978 0.432464
vt 0.934731 0.727459
vt 0.239193 0.429954
vt 0.239983 0.430219
vt 0.905941 0.833661
vt 0.905275 0.834064
vt 0.904673 0.831942
vt 0.906074 0.831738
vt 0.934921 0.724828
vt 0.962521 0.672712
vt 0.904673 0.775666
vt 0.906073 0.775399
vt 0.912471 0.775375
vt 0.912755 0.831680
vt 0.912520 0.834220
vt 0.913786 0.831889
vt 0.913507 0.775658
vt 0.913200 0.834591
vt 0.331514 0.915464
vt 0.331955 0.916664
vt 0.288766 0.954398
vt 0.288301 0.952812
vt 0.335053 0.915062
vt 0.334526 0.915893
vt 0.330900 0.914501
vt 0.335257 0.914468
vt 0.287832 0.951885
vt 0.320518 0.901994
vt 0.331677 0.907608
vt 0.286475 0.951917
vt 0.287004 0.951290
vt 0.314125 0.903905
vt 0.337471 0.910139
vt 0.338806 0.917868
vt 0.338425 0.918222
vt 0.344406 0.912272
vt 0.376344 0.901560
vt 0.353180 0.939464
vt 0.353347 0.940062
vt 0.352444 0.939857
vt 0.352126 0.940264
vt 0.337881 0.918910
vt 0.351659 0.941043
vt 0.353556 0.940698
vt 0.353604 0.941449
vt 0.353892 0.939997
vt 0.355132 0.941046
vt 0.377688 0.900955
vt 0.320304 0.896458
vt 0.332219 0.890597
vt 0.332922 0.889750
vt 0.379729 0.900133
vt 0.333650 0.888915
vt 0.330396 0.877868
vt 0.330887 0.877909
vt 0.331609 0.878128
vt 0.245497 0.265033
vt 0.245407 0.265797
vt 0.230686 0.265784
vt 0.230889 0.264843
vt 0.177616 0.266123
vt 0.178076 0.265150
vt 0.245314 0.272482
vt 0.245449 0.273243
vt 0.257446 0.265942
vt 0.257308 0.272576
vt 0.257243 0.273341
vt 0.288162 0.273381
vt 0.287647 0.274136
vt 0.288350 0.266749
vt 0.896322 0.731991
vt 0.896755 0.732637
vt 0.889178 0.737914
vt 0.888725 0.737274
vt 0.867261 0.757600
vt 0.867683 0.756209
vt 0.860683 0.725809
vt 0.861542 0.726144
vt 0.328546 0.288211
vt 0.329334 0.287697
vt 0.329369 0.320854
vt 0.328579 0.320616
vt 0.861961 0.724201
vt 0.863770 0.722963
vt 0.879273 0.719147
vt 0.882338 0.720466
vt 0.861046 0.723883
vt 0.862788 0.722560
vt 0.878253 0.718747
vt 0.483291 0.704411
vt 0.482476 0.704628
vt 0.482452 0.702538
vt 0.483221 0.702228
vt 0.482481 0.687845
vt 0.483253 0.687534
vt 0.482447 0.686134
vt 0.483242 0.685838
vt 0.880980 0.716843
vt 0.881852 0.717456
vt 0.882128 0.714238
vt 0.882935 0.714751
vt 0.394281 0.203483
vt 0.393508 0.203208
vt 0.393505 0.201488
vt 0.394303 0.201779
vt 0.885345 0.716419
vt 0.883830 0.719422
vt 0.876344 0.688095
vt 0.877195 0.687518
vt 0.878574 0.688004
vt 0.910517 0.708047
vt 0.907830 0.713448
vt 0.875471 0.687335
vt 0.876916 0.686723
vt 0.393500 0.231450
vt 0.394279 0.231813
vt 0.394130 0.233523
vt 0.393316 0.233269
vt 0.878810 0.687237
vt 0.328613 0.001308
vt 0.329408 0.001108
vt 0.329410 0.003332
vt 0.328622 0.003412
vt 0.401100 0.231828
vt 0.401256 0.233505
vt 0.336291 0.001124
vt 0.336248 0.003347
vt 0.336252 0.040244
vt 0.329403 0.040255
vt 0.328613 0.040310
vt 0.329447 0.042414
vt 0.336231 0.042394
vt 0.328669 0.042643
vt 0.910810 0.707316
vt 0.915357 0.708753
vt 0.915428 0.709660
vt 0.171006 0.509149
vt 0.169645 0.508924
vt 0.170350 0.506943
vt 0.171040 0.507280
vt 0.917799 0.707957
vt 0.959120 0.669866
vt 0.171005 0.562874
vt 0.169645 0.562677
vt 0.177690 0.509220
vt 0.177434 0.562938
vt 0.177681 0.506772
vt 0.178398 0.506512
vt 0.178696 0.509006
vt 0.178444 0.562707
vt 0.177282 0.564516
vt 0.170847 0.564380
vt 0.177929 0.564470
vt 0.912352 0.773908
vt 0.912987 0.773940
vt 0.905914 0.774014
vt 0.286082 0.953259
vt 0.286462 0.952590
vt 0.283729 0.950625
vt 0.285274 0.950830
vt 0.313106 0.903499
vt 0.313591 0.899941
vt 0.313032 0.900042
vt 0.317511 0.871172
vt 0.315456 0.892619
vt 0.312900 0.872506
vt 0.311293 0.895889
vt 0.285457 0.869082
vt 0.285105 0.868102
vt 0.285301 0.867842
vt 0.311417 0.869494
vt 0.310765 0.896249
vt 0.284947 0.869440
vt 0.284508 0.868098
vt 0.309886 0.896878
vt 0.284291 0.869967
vt 0.283729 0.867911
vt 0.284144 0.866528
vt 0.285039 0.867325
vt 0.311350 0.868971
vt 0.310998 0.868211
vt 0.314426 0.867492
vt 0.313983 0.867045
vt 0.313302 0.866302
vt 0.401895 0.231456
vt 0.401134 0.203475
vt 0.401921 0.203315
vt 0.401094 0.201766
vt 0.401881 0.201488
vt 0.314620 0.862804
vt 0.315271 0.863309
vt 0.475626 0.687836
vt 0.474848 0.687671
vt 0.474871 0.685838
vt 0.475653 0.686135
vt 0.475619 0.702542
vt 0.474842 0.702235
vt 0.475609 0.704630
vt 0.474779 0.704435
vt 0.336209 0.320845
vt 0.336239 0.322871
vt 0.329341 0.322871
vt 0.336999 0.320574
vt 0.337085 0.322715
vt 0.318156 0.844766
vt 0.318688 0.845530
vt 0.316857 0.846259
vt 0.316344 0.845428
vt 0.315970 0.848203
vt 0.315344 0.847345
vt 0.317205 0.846679
vt 0.316462 0.848360
vt 0.318735 0.846034
vt 0.315787 0.863405
vt 0.333705 0.869294
vt 0.319435 0.865812
vt 0.347581 0.846448
vt 0.334140 0.869550
vt 0.348443 0.845992
vt 0.334826 0.869876
vt 0.349693 0.845336
vt 0.257432 0.265176
vt 0.287879 0.265969
vt 0.336178 0.287689
vt 0.336967 0.288198
vt 0.328499 0.322745
vt 0.402066 0.233229
vt 0.337085 0.001338
vt 0.337052 0.003364
vt 0.337060 0.040305
vt 0.337017 0.042486
vt 0.312343 0.900604
vt 0.311847 0.903362
vt 0.905021 0.774548
vt 0.169988 0.563909
vt 0.961416 0.670759
vt 0.319957 0.632473
vt 0.319952 0.682293
vt 0.320840 0.681854
vt 0.320840 0.632639
vt 0.319885 0.631175
vt 0.320562 0.631170
vt 0.246881 0.457500
vt 0.246910 0.458915
vt 0.247680 0.457374
vt 0.247737 0.458730
vt 0.246831 0.432431
vt 0.247634 0.432332
vt 0.246771 0.430172
vt 0.247569 0.429956
vt 0.518050 0.080836
vt 0.457771 0.086023
vt 0.456701 0.086594
vt 0.456231 0.085338
vt 0.457311 0.084697
vt 0.491657 0.067256
vt 0.502200 0.070401
vt 0.523419 0.067796
vt 0.504702 0.052283
vt 0.519567 0.040871
vt 0.493542 0.059974
vt 0.494606 0.064363
vt 0.456676 0.083954
vt 0.491012 0.066519
vt 0.494196 0.064217
vt 0.348578 0.042366
vt 0.348448 0.004696
vt 0.349377 0.004481
vt 0.349511 0.042139
vt 0.349136 0.046366
vt 0.349528 0.046203
vt 0.492336 0.061015
vt 0.970063 0.233269
vt 0.968873 0.237245
vt 0.968570 0.236983
vt 0.968573 0.233266
vt 0.970643 0.164538
vt 0.969154 0.164320
vt 0.444804 0.005175
vt 0.443419 0.006147
vt 0.443902 0.004207
vt 0.444833 0.002847
vt 0.445778 0.003879
vt 0.443496 0.004101
vt 0.444592 0.002529
vt 0.446317 0.002217
vt 0.969714 0.161163
vt 0.969725 0.162896
vt 0.969295 0.162806
vt 0.969343 0.161052
vt 0.079485 0.621932
vt 0.080477 0.620491
vt 0.080930 0.620241
vt 0.081075 0.621738
vt 0.081058 0.697017
vt 0.079485 0.697087
vt 0.520196 0.039239
vt 0.080763 0.700492
vt 0.080465 0.700553
vt 0.524904 0.036620
vt 0.525681 0.036942
vt 0.075133 0.461138
vt 0.075035 0.489383
vt 0.074213 0.489252
vt 0.074312 0.460999
vt 0.533914 0.009213
vt 0.533163 0.008843
vt 0.534046 0.007331
vt 0.534238 0.007694
vt 0.074340 0.459252
vt 0.074729 0.459336
vt 0.074351 0.458048
vt 0.074768 0.458142
vt 0.535228 0.007075
vt 0.535156 0.007473
vt 0.535701 0.008561
vt 0.546784 0.028108
vt 0.542718 0.035698
vt 0.536200 0.008015
vt 0.547278 0.027562
vt 0.205094 0.461135
vt 0.205094 0.483667
vt 0.204388 0.483894
vt 0.204387 0.461317
vt 0.204409 0.485322
vt 0.204803 0.485118
vt 0.551771 0.030664
vt 0.551900 0.030138
vt 0.204723 0.457795
vt 0.204342 0.458133
vt 0.557830 0.029152
vt 0.557523 0.027776
vt 0.791488 0.423022
vt 0.790401 0.426250
vt 0.790127 0.425854
vt 0.790183 0.422840
vt 0.791947 0.363702
vt 0.790639 0.363453
vt 0.614749 0.003633
vt 0.614526 0.002217
vt 0.616574 0.003435
vt 0.616921 0.004237
vt 0.614954 0.004768
vt 0.563391 0.061835
vt 0.556061 0.040328
vt 0.548480 0.048138
vt 0.616310 0.005881
vt 0.564165 0.063350
vt 0.548497 0.048918
vt 0.030946 0.771517
vt 0.030946 0.699282
vt 0.032483 0.699101
vt 0.032477 0.771639
vt 0.702599 0.054370
vt 0.701948 0.078936
vt 0.701301 0.079195
vt 0.701907 0.054692
vt 0.032435 0.697407
vt 0.032093 0.697535
vt 0.617313 0.004238
vt 0.616965 0.003234
vt 0.032417 0.696421
vt 0.032026 0.696529
vt 0.039259 0.697389
vt 0.039280 0.699095
vt 0.039283 0.696400
vt 0.783571 0.363359
vt 0.783564 0.361636
vt 0.790736 0.361733
vt 0.791098 0.361971
vt 0.039719 0.696552
vt 0.039671 0.697505
vt 0.782476 0.363659
vt 0.783141 0.361880
vt 0.783606 0.422769
vt 0.782476 0.423011
vt 0.388325 0.744658
vt 0.448923 0.751204
vt 0.449113 0.752377
vt 0.388608 0.745790
vt 0.386393 0.747656
vt 0.385872 0.747679
vt 0.449123 0.753851
vt 0.389338 0.746905
vt 0.387694 0.747618
vt 0.454170 0.762201
vt 0.452411 0.782655
vt 0.388514 0.749760
vt 0.387532 0.748770
vt 0.459453 0.757276
vt 0.456607 0.753761
vt 0.455527 0.752008
vt 0.460885 0.748802
vt 0.465153 0.754174
vt 0.459463 0.748247
vt 0.464383 0.729241
vt 0.463996 0.727190
vt 0.480014 0.751918
vt 0.465036 0.727881
vt 0.465599 0.727717
vt 0.466480 0.728740
vt 0.462913 0.765801
vt 0.466293 0.727177
vt 0.480987 0.750652
vt 0.489179 0.754466
vt 0.476688 0.765822
vt 0.489033 0.752637
vt 0.481276 0.750177
vt 0.488433 0.751289
vt 0.466637 0.726755
vt 0.465351 0.726072
vt 0.465451 0.725614
vt 0.066304 0.461144
vt 0.066384 0.459308
vt 0.066842 0.459215
vt 0.066840 0.460962
vt 0.066865 0.489204
vt 0.066334 0.489383
vt 0.464513 0.726108
vt 0.464325 0.725683
vt 0.066331 0.458142
vt 0.066832 0.458014
vt 0.196380 0.485073
vt 0.196414 0.483585
vt 0.196876 0.483878
vt 0.196843 0.485311
vt 0.196833 0.461355
vt 0.196366 0.461119
vt 0.459096 0.747896
vt 0.463628 0.726815
vt 0.196382 0.457758
vt 0.196891 0.458084
vt 0.455165 0.751517
vt 0.782490 0.426433
vt 0.782939 0.426065
vt 0.088806 0.697188
vt 0.087827 0.702599
vt 0.087382 0.702424
vt 0.087449 0.696883
vt 0.087968 0.621732
vt 0.089348 0.621989
vt 0.548444 0.700800
vt 0.547737 0.699523
vt 0.088043 0.620189
vt 0.088517 0.620423
vt 0.550718 0.700473
vt 0.550424 0.700820
vt 0.962185 0.160923
vt 0.962155 0.162678
vt 0.961641 0.162679
vt 0.961746 0.161006
vt 0.552850 0.702513
vt 0.552409 0.702740
vt 0.962180 0.164210
vt 0.960852 0.164475
vt 0.554363 0.705309
vt 0.553039 0.704889
vt 0.962104 0.233168
vt 0.960852 0.233237
vt 0.518558 0.766182
vt 0.517385 0.765637
vt 0.961068 0.237561
vt 0.961557 0.237584
vt 0.517340 0.770443
vt 0.517854 0.770442
vt 0.357392 0.042274
vt 0.357244 0.046705
vt 0.356830 0.046425
vt 0.356703 0.042028
vt 0.520816 0.774186
vt 0.521375 0.773723
vt 0.356709 0.004454
vt 0.357392 0.004758
vt 0.553763 0.790768
vt 0.553154 0.791193
vt 0.357192 0.003075
vt 0.356721 0.002981
vt 0.553915 0.792821
vt 0.554363 0.792968
vt 0.357212 0.001496
vt 0.356747 0.001423
vt 0.553258 0.794627
vt 0.553665 0.794826
vt 0.552498 0.792606
vt 0.551750 0.791198
vt 0.552258 0.793430
vt 0.496729 0.787191
vt 0.510682 0.777397
vt 0.519890 0.775358
vt 0.551017 0.793535
vt 0.515860 0.770964
vt 0.508759 0.770310
vt 0.491506 0.776098
vt 0.505524 0.760416
vt 0.495754 0.788128
vt 0.490308 0.776931
vt 0.551999 0.794840
vt 0.552109 0.796009
vt 0.495386 0.789221
vt 0.490143 0.777543
vt 0.942189 0.113435
vt 0.942181 0.170573
vt 0.941069 0.170346
vt 0.941064 0.113704
vt 0.941669 0.112351
vt 0.942130 0.112087
vt 0.949139 0.170572
vt 0.949144 0.113441
vt 0.949225 0.112087
vt 0.349334 0.001452
vt 0.349340 0.003014
vt 0.949615 0.112345
vt 0.950337 0.113663
vt 0.348926 0.003070
vt 0.348947 0.001473
vt 0.455819 0.085362
vt 0.456384 0.086834
vt 0.457646 0.087317
vt 0.518300 0.082082
vt 0.950322 0.170380
vt 0.702424 0.001713
vt 0.701850 0.016113
vt 0.701444 0.015699
vt 0.702039 0.001634
vt 0.523617 0.068336
vt 0.518460 0.082062
vt 0.701405 0.025930
vt 0.701843 0.025808
vt 0.528528 0.060159
vt 0.528120 0.059973
vt 0.535995 0.053084
vt 0.535681 0.052784
vt 0.701694 0.037962
vt 0.702113 0.037816
vt 0.694085 0.038091
vt 0.693811 0.026004
vt 0.693843 0.015517
vt 0.693283 0.025876
vt 0.693335 0.015998
vt 0.693577 0.037949
vt 0.694436 0.054742
vt 0.693920 0.054214
vt 0.476122 0.767686
vt 0.463829 0.767815
vt 0.463769 0.767148
vt 0.476344 0.767242
vt 0.484819 0.771517
vt 0.484449 0.771865
vt 0.453105 0.786409
vt 0.452937 0.784814
vt 0.693748 0.078993
vt 0.693283 0.078630
vt 0.387337 0.751235
vt 0.386531 0.752378
vt 0.386080 0.748873
vt 0.385616 0.748710
vt 0.039276 0.771641
vt 0.040613 0.699316
vt 0.040600 0.771478
vt 0.485628 0.770325
vt 0.694513 0.001255
vt 0.694045 0.001299
vt 0.515960 0.765185
vt 0.547070 0.704027
vt 0.549663 0.703141
vt 0.550711 0.704027
vt 0.550705 0.706514
s 1
usemtl 333.001
f 210/1/1 6/2/2 4/3/3 1/4/4 2/5/4
f 194/6/5 190/7/6 2/5/4 1/4/4 3/8/7
f 3/8/7 1/4/4 4/3/3 5/9/8 14/10/9 18/11/10 19/12/11
f 4/3/3 7/13/12 10/14/13 5/9/8
f 6/2/2 8/15/14 7/13/12 4/3/3
f 8/16/14 173/17/15 9/18/16 7/19/12
f 7/19/12 9/18/16 11/20/17 10/21/13
f 13/22/18 12/23/19 10/21/13 11/20/17
f 12/24/19 14/10/9 5/9/8 10/14/13
f 17/25/20 15/26/21 12/27/19 13/28/18
f 15/29/21 18/11/10 14/10/9 12/30/19
f 20/31/22 16/32/23 15/26/21 17/25/20
f 16/33/23 19/12/11 18/11/10 15/29/21
f 19/12/11 16/33/23 208/34/24 3/8/7
f 20/31/22 17/25/20 21/35/25 24/36/26
f 17/25/20 13/28/18 23/37/27 21/35/25
f 22/38/28 21/35/25 23/37/27 169/39/29
f 26/40/30 24/36/26 21/35/25 22/38/28
f 206/41/31 20/31/22 24/36/26 25/42/32
f 24/36/26 26/40/30 28/43/33 25/42/32
f 27/44/34 26/45/30 22/46/28 211/47/35
f 26/45/30 27/44/34 30/48/36 28/49/33
f 28/49/33 30/48/36 32/50/37 29/51/38
f 25/52/32 28/53/33 29/54/38 205/55/39
f 31/56/40 30/48/36 27/44/34 213/57/40
f 34/58/40 32/50/37 30/48/36 31/56/40
f 33/59/41 43/60/42 29/51/38 32/50/37
f 36/61/40 33/59/41 32/50/37 34/58/40
f 34/58/40 31/56/40 163/62/40 160/63/40 214/64/40 35/65/40
f 36/61/40 34/58/40 35/65/40 37/66/40
f 37/66/40 39/67/43 33/59/41 36/61/40
f 35/65/40 136/68/40 38/69/40 37/66/40
f 38/69/40 40/70/44 39/67/43 37/66/40
f 39/67/43 41/71/45 43/60/42 33/59/41
f 41/71/45 39/67/43 40/70/44 44/72/46
f 42/73/47 41/74/45 44/75/46 46/76/48
f 41/74/45 42/73/47 204/77/49 43/78/42
f 44/72/46 40/70/44 58/79/50 45/80/51
f 46/76/48 44/75/46 45/81/51 48/82/52
f 47/83/53 201/84/54 42/73/47 46/76/48
f 49/85/55 47/83/53 46/76/48 48/82/52
f 51/86/56 49/87/55 48/88/52 50/89/57
f 48/88/52 45/90/51 53/91/58 50/89/57
f 94/92/59 51/86/56 50/89/57 52/93/60
f 54/94/61 52/93/60 50/89/57 53/91/58
f 45/95/51 58/79/50 55/96/62 53/97/58
f 57/98/63 54/99/61 53/97/58 55/96/62
f 56/100/40 55/96/62 58/79/50 59/101/40
f 89/102/40 57/98/63 55/96/62 56/100/40
f 59/101/40 58/79/50 40/70/44 38/69/40
f 136/68/40 63/103/40 62/104/40 60/105/40 59/101/40 38/69/40
f 60/105/40 61/106/40 90/107/40 88/108/40 89/102/40 56/100/40 59/101/40
f 62/104/40 64/109/40 61/106/40 60/105/40
f 66/110/40 64/109/40 62/104/40 63/103/40
f 64/109/40 65/111/64 81/112/65 61/106/40
f 66/110/40 67/113/66 65/111/64 64/109/40
f 68/114/40 70/115/67 67/113/66 66/110/40
f 136/68/40 134/116/40 219/117/40 69/118/40 68/114/40 66/110/40 63/103/40
f 69/118/40 71/119/68 70/115/67 68/114/40
f 71/119/68 74/120/69 72/121/70 70/115/67
f 75/122/71 67/113/66 70/115/67 72/121/70
f 76/123/72 75/124/71 72/125/70 73/126/73
f 74/127/69 129/128/74 73/126/73 72/125/70
f 75/124/71 76/123/72 78/129/75 77/130/76
f 67/113/66 75/122/71 77/131/76 65/111/64
f 77/132/76 78/133/75 80/134/77 79/135/78
f 65/111/64 77/131/76 79/136/78 81/112/65
f 83/137/79 82/138/80 79/135/78 80/134/77
f 82/139/80 84/140/81 81/112/65 79/136/78
f 82/138/80 83/137/79 86/141/82 85/142/83
f 84/140/81 82/139/80 85/143/83 87/144/84
f 87/144/84 85/143/83 54/99/61 57/98/63
f 85/142/83 86/141/82 52/145/60 54/146/61
f 90/107/40 84/140/81 87/144/84 88/108/40
f 88/108/40 87/144/84 57/98/63 89/102/40
f 61/106/40 81/112/65 84/140/81 90/107/40
f 91/147/85 94/148/59 52/145/60 86/141/82
f 92/149/86 91/147/85 86/141/82 83/137/79
f 92/149/86 109/150/87 93/151/88 91/147/85
f 91/147/85 93/151/88 95/152/89 94/148/59
f 94/92/59 95/153/89 96/154/90 51/86/56
f 95/155/89 97/156/91 99/157/92 96/158/90
f 93/159/88 98/160/93 97/156/91 95/161/89
f 105/162/94 103/163/4 100/164/95 99/157/92 97/156/91 98/160/93 108/165/96
f 100/164/95 102/166/97 96/158/90 99/157/92
f 101/167/98 200/168/99 102/169/97 100/164/95
f 192/170/100 101/167/98 100/164/95 103/163/4 104/171/4
f 105/162/94 106/172/101 220/173/102 104/171/4 103/163/4
f 105/162/94 107/174/103 111/175/104 106/172/101
f 108/165/96 109/176/87 107/174/103 105/162/94
f 109/176/87 108/165/96 98/160/93 93/159/88
f 109/150/87 92/149/86 110/177/105 107/178/103
f 107/178/103 110/177/105 113/179/106 111/180/104
f 111/181/104 113/182/106 114/183/107 112/184/108
f 106/172/101 111/185/104 112/186/108 220/173/102
f 113/182/106 78/129/75 76/123/72 114/183/107
f 110/177/105 80/134/77 78/133/75 113/179/106
f 112/184/108 114/183/107 115/187/109 117/188/110
f 115/187/109 114/183/107 76/123/72 73/126/73
f 116/189/111 115/187/109 73/126/73 129/128/74
f 116/189/111 119/190/112 117/188/110 115/187/109
f 220/173/102 112/186/108 117/191/110 118/192/113
f 119/193/112 120/194/114 118/192/113 117/191/110
f 124/195/115 121/196/116 119/197/112 116/198/111
f 121/199/116 122/200/117 120/194/114 119/201/112
f 123/202/118 193/203/119 122/200/117 121/199/116
f 125/204/120 123/205/118 121/196/116 124/195/115
f 125/204/120 124/195/115 126/206/121 127/207/122
f 124/195/115 116/198/111 129/208/74 126/206/121
f 131/209/123 127/207/122 126/206/121 128/210/124
f 128/210/124 126/206/121 129/208/74 74/211/69
f 130/212/125 128/213/124 74/120/69 71/119/68
f 133/214/126 131/215/123 128/213/124 130/212/125
f 127/207/122 131/209/123 132/216/127 209/217/128
f 131/215/123 133/214/126 135/218/129 132/219/127
f 134/116/40 133/214/126 130/212/125 219/117/40
f 136/68/40 135/218/129 133/214/126 134/116/40
f 35/65/40 137/220/130 135/218/129 136/68/40
f 137/220/130 139/221/131 132/219/127 135/218/129
f 218/222/40 138/223/132 137/220/130 35/65/40
f 138/223/132 141/224/133 139/225/131 137/220/130
f 139/226/131 140/227/134 209/217/128 132/216/127
f 141/228/133 142/229/135 140/230/134 139/231/131
f 142/229/135 141/228/133 143/232/136 144/233/137
f 141/224/133 138/223/132 145/234/138 143/235/136
f 144/233/137 143/232/136 146/236/139 147/237/140
f 143/235/136 145/234/138 148/238/141 146/239/139
f 147/240/140 146/241/139 149/242/142 150/243/143
f 146/244/139 148/245/141 151/246/144 149/247/142
f 150/243/143 149/242/142 152/248/145 153/249/146
f 149/247/142 151/246/144 155/250/147 152/251/145
f 154/252/148 172/253/149 153/249/146 152/248/145
f 157/254/150 154/255/148 152/251/145 155/250/147
f 156/256/40 155/250/147 151/246/144 215/257/40
f 159/258/40 157/254/150 155/250/147 156/256/40
f 158/259/151 170/260/152 154/261/148 157/254/150
f 161/262/40 158/259/151 157/254/150 159/258/40
f 160/63/40 159/258/40 156/256/40 214/64/40
f 161/262/40 159/258/40 160/63/40 163/62/40
f 162/263/40 165/264/153 158/259/151 161/262/40
f 31/56/40 213/57/40 212/265/40 164/266/40 162/263/40 161/262/40 163/62/40
f 164/266/40 166/267/154 165/264/153 162/263/40
f 166/267/154 169/268/29 167/269/155 165/264/153
f 170/260/152 158/259/151 165/264/153 167/269/155
f 171/270/156 170/271/152 167/272/155 168/273/157
f 169/274/29 23/275/27 168/273/157 167/272/155
f 170/271/152 171/270/156 172/276/149 154/277/148
f 173/17/15 172/276/149 171/270/156 9/18/16
f 11/20/17 9/18/16 171/270/156 168/273/157
f 174/278/158 153/249/146 172/253/149 173/279/15
f 175/280/159 174/278/158 173/279/15 8/281/14
f 178/282/160 176/283/161 174/278/158 175/280/159
f 174/278/158 176/283/161 150/243/143 153/249/146
f 176/283/161 177/284/162 147/240/140 150/243/143
f 180/285/163 177/284/162 176/283/161 178/282/160
f 179/286/164 178/287/160 175/288/159 210/1/1
f 181/289/165 180/290/163 178/287/160 179/286/164
f 184/291/166 182/292/167 180/293/163 181/289/165
f 182/294/167 185/295/168 177/296/162 180/297/163
f 195/298/169 183/299/170 182/292/167 184/291/166
f 183/300/170 186/301/171 185/295/168 182/294/167
f 177/296/162 185/295/168 144/233/137 147/237/140
f 185/295/168 186/301/171 142/229/135 144/233/137
f 186/301/171 187/302/172 140/230/134 142/229/135
f 186/301/171 183/300/170 189/303/173 187/302/172
f 187/304/172 188/305/174 209/217/128 140/227/134
f 187/304/172 189/306/173 191/307/175 188/305/174
f 189/308/173 190/7/6 192/170/100 191/309/175
f 183/299/170 195/298/169 190/7/6 189/310/173
f 123/205/118 125/204/120 188/305/174 191/307/175
f 193/203/119 123/202/118 191/309/175 192/170/100
f 192/170/100 104/171/4 220/173/102 118/192/113 120/194/114 122/200/117 193/203/119
f 190/7/6 196/311/176 101/167/98 192/170/100
f 210/1/1 2/5/4 190/7/6 195/298/169 184/291/166 181/289/165 179/286/164
f 197/312/177 196/311/176 190/7/6 194/6/5
f 198/313/178 196/311/176 197/312/177 199/314/179
f 196/311/176 198/313/178 200/168/99 101/167/98
f 201/84/54 198/315/178 199/316/179 202/317/180
f 198/315/178 201/84/54 47/83/53 200/318/99
f 201/84/54 202/317/180 204/77/49 42/73/47
f 202/317/180 199/316/179 207/319/181 203/320/182
f 202/317/180 203/320/182 205/55/39 204/77/49
f 43/78/42 204/77/49 205/55/39 29/54/38
f 203/320/182 206/321/31 25/52/32 205/55/39
f 208/322/24 206/321/31 203/320/182 207/319/181
f 3/8/7 208/323/24 207/324/181 194/6/5
f 199/314/179 197/312/177 194/6/5 207/324/181
f 16/32/23 20/31/22 206/41/31 208/325/24
f 200/318/99 47/83/53 49/85/55 102/326/97
f 188/305/174 125/204/120 127/207/122 209/217/128
f 210/1/1 175/288/159 8/327/14 6/2/2
f 211/47/35 22/46/28 169/268/29 166/267/154
f 13/22/18 11/20/17 168/273/157 23/275/27
f 212/265/40 211/47/35 166/267/154 164/266/40
f 213/57/40 27/44/34 211/47/35 212/265/40
f 214/64/40 156/256/40 215/257/40 216/328/40 217/329/40 218/222/40 35/65/40
f 215/257/40 151/246/144 148/245/141 216/328/40
f 216/328/40 148/238/141 145/234/138 217/329/40
f 217/329/40 145/234/138 138/223/132 218/222/40
f 219/117/40 130/212/125 71/119/68 69/118/40
f 110/177/105 92/149/86 83/137/79 80/134/77
f 102/330/97 49/87/55 51/86/56 96/154/90
f 225/331/183 224/332/4 221/333/4 222/334/184 244/335/185
f 330/336/186 407/337/187 406/338/188 408/339/189 222/334/184 221/333/4 223/340/4
f 223/340/4 221/333/4 224/332/4 226/341/190 228/342/191 411/343/4
f 225/331/183 238/344/192 235/345/193 227/346/194 226/341/190 224/332/4
f 229/347/195 226/341/190 227/346/194 232/348/196
f 231/349/197 228/342/191 226/341/190 229/347/195
f 230/350/198 229/351/195 232/352/196 233/353/199
f 286/354/200 231/355/197 229/356/195 230/357/198
f 235/345/193 234/358/201 232/348/196 227/346/194
f 234/359/201 236/360/202 233/353/199 232/352/196
f 238/344/192 237/361/203 234/358/201 235/345/193
f 237/362/203 239/363/204 236/364/202 234/365/201
f 237/361/203 238/344/192 225/331/183 240/366/205
f 239/363/204 237/362/203 240/367/205 241/368/206
f 240/366/205 225/331/183 244/335/185 242/369/207
f 241/368/206 240/367/205 242/370/207 243/371/208
f 243/372/208 242/373/207 245/374/209 247/375/210
f 242/369/207 244/335/185 222/334/184 245/376/209
f 245/376/209 222/334/184 408/339/189 246/377/211
f 247/375/210 245/374/209 246/378/211 248/379/212
f 248/379/212 250/380/213 249/381/214 247/375/210
f 243/372/208 247/375/210 249/381/214 251/382/215
f 252/383/216 249/381/214 250/380/213 253/384/217
f 249/381/214 252/383/216 254/385/218 251/382/215
f 255/386/219 252/387/216 253/388/217 257/389/220
f 252/387/216 255/386/219 256/390/221 254/391/218
f 258/392/40 261/393/40 256/390/221 255/386/219
f 259/394/40 258/392/40 255/386/219 257/389/220
f 349/395/40 260/396/40 258/392/40 259/394/40 344/397/40 345/398/40 346/399/40
f 258/392/40 260/396/40 262/400/40 261/393/40
f 261/393/40 263/401/40 266/402/222 256/390/221
f 262/400/40 264/403/40 263/401/40 261/393/40
f 264/403/40 275/404/40 274/405/40 273/406/40 265/407/40 263/401/40
f 263/401/40 265/407/40 268/408/223 266/402/222
f 254/391/218 256/390/221 266/402/222 267/409/224
f 268/408/223 269/410/225 267/409/224 266/402/222
f 269/410/225 268/408/223 270/411/226 271/412/227
f 265/407/40 273/406/40 270/411/226 268/408/223
f 271/412/227 270/411/226 272/413/228 417/414/229
f 273/406/40 274/405/40 272/413/228 270/411/226
f 274/405/40 275/404/40 277/415/230 272/413/228
f 350/416/40 276/417/40 275/404/40 264/403/40 262/400/40 260/396/40 349/395/40
f 275/404/40 276/417/40 279/418/231 277/415/230
f 277/415/230 278/419/232 417/414/229 272/413/228
f 279/418/231 281/420/233 278/419/232 277/415/230
f 276/417/40 390/421/40 280/422/234 279/418/231
f 280/422/234 282/423/235 281/420/233 279/418/231
f 282/424/235 284/425/236 283/426/237 281/427/233
f 281/427/233 283/426/237 285/428/238 278/429/232
f 286/354/200 283/426/237 284/425/236 287/430/239
f 230/357/198 285/428/238 283/426/237 286/354/200
f 287/430/239 288/431/240 231/355/197 286/354/200
f 287/430/239 284/425/236 291/432/241 289/433/242
f 288/431/240 287/430/239 289/433/242 292/434/243
f 290/435/244 294/436/245 292/434/243 289/433/242
f 289/433/242 291/432/241 397/437/246 290/435/244
f 414/438/247 288/439/240 292/440/243 293/441/248
f 294/442/245 296/443/249 293/441/248 292/440/243
f 296/443/249 294/442/245 295/444/250 297/445/251
f 294/446/245 290/447/244 399/448/252 295/449/250
f 293/441/248 296/443/249 297/445/251 298/450/253 300/451/254 301/452/255 413/453/4
f 297/445/251 295/444/250 299/454/256 298/450/253
f 298/450/253 299/454/256 302/455/257 300/451/254
f 304/456/258 301/452/255 300/451/254 302/455/257
f 299/457/256 377/458/259 303/459/260 302/460/257
f 305/461/261 304/462/258 302/460/257 303/459/260
f 308/463/262 306/464/263 304/462/258 305/461/261
f 306/465/263 309/466/264 301/452/255 304/456/258
f 307/467/265 310/468/266 309/466/264 306/465/263
f 401/469/267 307/470/265 306/471/263 308/472/262
f 310/468/266 311/473/4 412/474/4 413/453/4 301/452/255 309/466/264
f 310/468/266 312/475/268 313/476/269 410/477/270 326/478/271 409/479/4 311/473/4
f 310/468/266 307/467/265 314/480/272 312/475/268
f 312/475/268 314/480/272 316/481/273 313/476/269
f 314/482/272 315/483/274 318/484/275 316/485/273
f 307/470/265 401/469/267 315/483/274 314/482/272
f 313/476/269 316/481/273 317/486/276 410/477/270
f 316/487/273 318/488/275 320/489/277 317/490/276
f 315/483/274 400/491/278 319/492/279 318/484/275
f 318/488/275 319/493/279 321/494/280 320/489/277
f 320/489/277 321/494/280 323/495/281 322/496/282
f 322/496/282 325/497/283 317/490/276 320/489/277
f 324/498/284 322/496/282 323/495/281 335/499/285
f 324/498/284 327/500/286 325/497/283 322/496/282
f 325/501/283 326/478/271 410/477/270 317/486/276
f 327/502/286 328/503/287 326/478/271 325/501/283
f 332/504/288 329/505/289 327/506/286 324/507/284
f 329/508/289 330/336/186 328/503/287 327/502/286
f 331/509/290 407/337/187 330/336/186 329/508/289
f 333/510/291 331/511/290 329/505/289 332/504/288
f 332/504/288 334/512/292 337/513/293 333/510/291
f 332/504/288 324/507/284 335/514/285 334/512/292
f 335/514/285 403/515/294 336/516/295 334/512/292
f 338/517/296 337/513/293 334/512/292 336/516/295
f 333/510/291 337/513/293 339/518/297 340/519/298
f 337/513/293 338/517/296 341/520/299 339/518/297
f 339/521/297 341/522/299 253/384/217 250/380/213
f 340/523/298 339/521/297 250/380/213 248/379/212
f 341/524/299 342/525/300 257/389/220 253/388/217
f 338/526/296 343/527/301 342/525/300 341/524/299
f 344/397/40 259/394/40 257/389/220 342/525/300
f 345/398/40 344/397/40 342/525/300 343/527/301
f 346/399/40 345/398/40 343/527/301 348/528/302
f 347/529/40 346/399/40 348/528/302 404/530/303
f 347/529/40 350/416/40 349/395/40 346/399/40
f 389/531/40 390/421/40 276/417/40 350/416/40 351/532/40 352/533/40
f 353/534/40 351/532/40 350/416/40 347/529/40
f 352/533/40 351/532/40 353/534/40 355/535/40 356/536/40 362/537/40 366/538/40
f 353/534/40 347/529/40 404/530/303 354/539/304
f 355/535/40 353/534/40 354/539/304 357/540/305
f 356/536/40 355/535/40 357/540/305 359/541/306
f 354/539/304 402/542/307 358/543/308 357/540/305
f 360/544/309 359/541/306 357/540/305 358/543/308
f 363/545/310 361/546/311 359/541/306 360/544/309
f 362/537/40 356/536/40 359/541/306 361/546/311
f 366/538/40 362/537/40 361/546/311 364/547/312
f 361/546/311 363/545/310 367/548/313 364/547/312
f 388/549/40 366/538/40 364/547/312 365/550/314
f 369/551/315 365/550/314 364/547/312 367/548/313
f 363/552/310 400/491/278 368/553/316 367/554/313
f 371/555/317 369/556/315 367/554/313 368/553/316
f 370/557/318 384/558/319 365/550/314 369/551/315
f 372/559/320 370/560/318 369/561/315 371/562/317
f 308/463/262 305/461/261 372/559/320 371/562/317
f 401/469/267 308/472/262 371/555/317 368/553/316
f 370/560/318 372/559/320 373/563/321 374/564/322
f 303/459/260 373/563/321 372/559/320 305/461/261
f 375/565/323 378/566/324 374/564/322 373/563/321
f 377/458/259 375/565/323 373/563/321 303/459/260
f 399/448/252 376/567/325 375/568/323 377/569/259
f 376/567/325 379/570/326 378/571/324 375/568/323
f 379/572/326 382/573/327 380/574/328 378/575/324
f 378/575/324 380/574/328 383/576/329 374/577/322
f 381/578/40 385/579/40 383/576/329 380/574/328
f 398/580/40 381/578/40 380/574/328 382/573/327
f 385/579/40 386/581/40 384/558/319 383/576/329
f 384/558/319 370/557/318 374/577/322 383/576/329
f 391/582/40 387/583/40 386/581/40 385/579/40 381/578/40 398/580/40 392/584/40
f 386/581/40 387/583/40 389/531/40 388/549/40
f 386/581/40 388/549/40 365/550/314 384/558/319
f 388/549/40 389/531/40 352/533/40 366/538/40
f 390/421/40 389/531/40 387/583/40 391/582/40
f 390/421/40 391/582/40 393/585/330 280/422/234
f 391/582/40 392/584/40 394/586/331 393/585/330
f 282/423/235 280/422/234 393/585/330 395/587/332
f 394/586/331 396/588/333 395/587/332 393/585/330
f 284/425/236 282/424/235 395/589/332 291/432/241
f 396/590/333 397/437/246 291/432/241 395/589/332
f 397/591/246 396/592/333 379/570/326 376/567/325
f 396/588/333 394/586/331 382/573/327 379/572/326
f 290/447/244 397/591/246 376/567/325 399/448/252
f 392/584/40 398/580/40 382/573/327 394/586/331
f 295/449/250 399/448/252 377/569/259 299/593/256
f 401/469/267 368/553/316 400/491/278 315/483/274
f 400/491/278 363/552/310 360/594/309 319/492/279
f 319/493/279 360/595/309 358/596/308 321/494/280
f 402/597/307 323/495/281 321/494/280 358/596/308
f 323/495/281 402/597/307 403/598/294 335/499/285
f 402/542/307 354/539/304 404/530/303 403/599/294
f 403/599/294 404/530/303 348/528/302 336/600/295
f 343/527/301 338/526/296 336/600/295 348/528/302
f 405/601/334 340/523/298 248/379/212 246/378/211
f 331/511/290 333/510/291 340/519/298 405/602/334
f 407/337/187 331/509/290 405/603/334 406/338/188
f 406/338/188 405/603/334 246/377/211 408/339/189
f 330/336/186 223/340/4 411/343/4 409/479/4 326/478/271 328/503/287
f 311/473/4 409/479/4 411/343/4 228/342/191 414/438/247 412/474/4
f 414/438/247 293/441/248 413/453/4 412/474/4
f 288/439/240 414/438/247 228/342/191 231/349/197
f 233/353/199 415/604/335 285/605/238 230/350/198
f 278/606/232 285/605/238 415/604/335 417/607/229
f 416/608/336 271/609/227 417/607/229 415/604/335
f 236/360/202 416/608/336 415/604/335 233/353/199
f 239/363/204 418/610/337 416/611/336 236/364/202
f 418/610/337 269/612/225 271/613/227 416/611/336
f 241/368/206 419/614/338 418/610/337 239/363/204
f 269/612/225 418/610/337 419/614/338 267/615/224
f 241/368/206 243/371/208 251/616/215 419/614/338
f 251/616/215 254/617/218 267/615/224 419/614/338
f 421/618/339 593/619/340 592/620/341 591/621/342 424/622/343 423/623/344 420/624/4
f 599/625/345 421/618/339 420/624/4 422/626/4 446/627/346
f 434/628/347 422/626/4 420/624/4 423/623/344 425/629/348
f 423/623/344 424/622/343 428/630/349 426/631/350
f 425/629/348 423/623/344 426/631/350 429/632/351
f 426/633/350 428/634/349 590/635/352 427/636/353
f 429/637/351 426/633/350 427/636/353 430/638/354
f 434/628/347 425/629/348 429/632/351 431/639/355
f 431/640/355 429/641/351 430/642/354 433/643/356
f 432/644/357 431/640/355 433/643/356 637/645/358
f 435/646/359 434/628/347 431/639/355 432/647/357
f 434/628/347 435/646/359 436/648/360 438/649/361 439/650/362 446/627/346 422/626/4
f 436/648/360 435/646/359 432/647/357 437/651/363
f 438/649/361 436/648/360 437/651/363 440/652/364
f 439/650/362 438/649/361 440/652/364 442/653/365
f 440/654/364 437/655/363 638/656/366 441/657/367
f 442/658/365 440/659/364 441/660/367 443/661/368
f 443/661/368 445/662/369 444/663/370 442/658/365
f 442/653/365 444/664/370 446/627/346 439/650/362
f 445/662/369 448/665/371 447/666/372 444/663/370
f 444/664/370 447/667/372 449/668/373 446/627/346
f 450/669/374 447/670/372 448/671/371 452/672/375
f 451/673/376 449/668/373 447/667/372 450/674/374
f 450/674/374 453/675/377 456/676/378 451/673/376
f 452/672/375 454/677/379 453/678/377 450/669/374
f 454/677/379 525/679/380 455/680/381 453/678/377
f 453/675/377 455/681/381 457/682/382 456/676/378
f 449/668/373 451/673/376 456/676/378 457/682/382 458/683/383 459/684/384 473/685/4
f 455/681/381 460/686/385 458/683/383 457/682/382
f 459/684/384 458/683/383 460/686/385 462/687/386
f 462/688/386 460/689/385 461/690/387 463/691/388
f 525/692/380 461/690/387 460/689/385 455/693/381
f 465/694/389 459/684/384 462/687/386 464/695/390
f 464/696/390 462/688/386 463/691/388 466/697/391
f 470/698/392 465/694/389 464/695/390 467/699/393
f 467/700/393 464/701/390 466/702/391 469/703/394
f 468/704/395 467/700/393 469/703/394 488/705/396
f 471/706/397 470/698/392 467/699/393 468/707/395
f 470/698/392 471/706/397 639/708/398 483/709/399 475/710/400 474/711/401 472/712/4
f 470/698/392 472/712/4 473/685/4 459/684/384 465/694/389
f 449/668/373 473/685/4 472/712/4 474/711/401 476/713/402
f 474/711/401 475/710/400 480/714/403 477/715/404
f 476/713/402 474/711/401 477/715/404 479/716/405
f 477/717/404 480/718/403 481/719/406 478/720/407
f 479/721/405 477/722/404 478/723/407 629/724/408
f 485/725/409 481/719/406 480/718/403 482/726/410
f 482/727/410 480/714/403 475/710/400 483/709/399
f 484/728/411 482/727/410 483/709/399 639/708/398
f 487/729/412 485/725/409 482/726/410 484/730/411
f 485/725/409 486/731/413 622/732/414 481/719/406
f 487/729/412 489/733/415 486/731/413 485/725/409
f 488/705/396 491/734/416 489/735/415 487/736/412
f 488/705/396 487/736/412 484/737/411 468/704/395
f 490/738/417 623/739/418 486/731/413 489/733/415
f 493/740/419 490/741/417 489/735/415 491/734/416
f 491/734/416 492/742/420 494/743/421 493/740/419
f 469/703/394 492/742/420 491/734/416 488/705/396
f 493/744/419 494/745/421 496/746/422 495/747/423
f 495/747/423 497/748/424 490/749/417 493/744/419
f 500/750/40 498/751/40 495/747/423 496/746/422
f 498/751/40 499/752/40 497/748/424 495/747/423
f 501/753/40 617/754/40 619/755/40 625/756/40 499/752/40 498/751/40 500/750/40
f 503/757/40 501/753/40 500/750/40 502/758/40
f 502/758/40 500/750/40 496/746/422 504/759/425
f 505/760/40 508/761/40 503/757/40 502/758/40
f 505/760/40 502/758/40 504/759/425 507/762/426
f 506/763/40 505/760/40 507/762/426 528/764/427
f 509/765/40 508/761/40 505/760/40 506/763/40 533/766/40 534/767/40 510/768/40
f 509/765/40 511/769/40 617/754/40 501/753/40 503/757/40 508/761/40
f 509/765/40 510/768/40 516/770/428 513/771/429
f 512/772/40 627/773/40 511/769/40 509/765/40
f 512/772/40 509/765/40 513/771/429 514/774/430
f 514/774/430 513/771/429 515/775/431 538/776/432
f 518/777/433 515/775/431 513/771/429 516/770/428
f 516/770/428 517/778/434 520/779/435 518/777/433
f 510/768/40 534/767/40 517/778/434 516/770/428
f 518/780/433 520/781/435 522/782/436 519/783/437
f 519/783/437 535/784/438 515/785/431 518/780/433
f 517/778/434 532/786/439 521/787/440 520/779/435
f 520/781/435 521/788/440 523/789/441 522/782/436
f 452/672/375 519/783/437 522/782/436 454/677/379
f 454/677/379 522/782/436 523/789/441 525/679/380
f 521/790/440 527/791/442 524/792/443 523/793/441
f 525/692/380 523/793/441 524/792/443 461/690/387
f 461/690/387 524/792/443 526/794/444 463/691/388
f 526/794/444 524/792/443 527/791/442 529/795/445
f 529/796/445 527/797/442 528/764/427 507/762/426
f 532/786/439 528/764/427 527/797/442 521/787/440
f 529/795/445 530/798/446 531/799/447 526/794/444
f 507/762/426 504/759/425 530/800/446 529/796/445
f 530/801/446 494/743/421 492/742/420 531/802/447
f 504/759/425 496/746/422 494/745/421 530/800/446
f 466/697/391 463/691/388 526/794/444 531/799/447
f 469/703/394 466/702/391 531/802/447 492/742/420
f 533/766/40 506/763/40 528/764/427 532/786/439
f 534/767/40 533/766/40 532/786/439 517/778/434
f 448/671/371 535/784/438 519/783/437 452/672/375
f 538/803/432 515/804/431 535/805/438 536/806/448
f 445/662/369 536/806/448 535/805/438 448/665/371
f 443/661/368 537/807/449 536/806/448 445/662/369
f 539/808/450 538/803/432 536/806/448 537/807/449
f 540/809/451 514/774/430 538/776/432 539/810/450
f 537/807/449 542/811/452 541/812/453 539/808/450
f 539/810/450 541/813/453 543/814/454 540/809/451
f 542/815/452 545/816/455 544/817/456 541/818/453
f 541/813/453 544/819/456 546/820/457 543/814/454
f 545/816/455 548/821/458 547/822/459 544/817/456
f 544/819/456 547/823/459 549/824/460 546/820/457
f 548/821/458 551/825/461 550/826/462 547/822/459
f 547/823/459 550/827/462 552/828/463 549/824/460
f 553/829/464 550/826/462 551/825/461 554/830/465
f 555/831/466 552/828/463 550/827/462 553/832/464
f 556/833/467 553/834/464 554/835/465 557/836/468
f 558/837/469 555/831/466 553/832/464 556/838/467
f 557/836/468 560/839/470 559/840/471 556/833/467
f 556/838/467 559/841/471 561/842/472 558/837/469
f 562/843/473 559/840/471 560/839/470 563/844/474
f 565/845/475 561/842/472 559/841/471 562/846/473
f 564/847/476 562/843/473 563/844/474 585/848/477
f 566/849/478 565/845/475 562/846/473 564/850/476
f 567/851/40 569/852/40 561/842/472 565/845/475
f 568/853/40 567/851/40 565/845/475 566/849/478
f 574/854/40 572/855/40 570/856/40 569/852/40 567/851/40 568/853/40 576/857/40
f 569/852/40 570/856/40 558/837/469 561/842/472
f 570/856/40 571/858/40 555/831/466 558/837/469
f 570/856/40 572/855/40 573/859/40 571/858/40
f 575/860/40 512/772/40 631/861/40 573/859/40 572/855/40 574/854/40
f 575/860/40 574/854/40 577/862/479 579/863/480
f 574/854/40 576/857/40 580/864/481 577/862/479
f 581/865/482 578/866/483 577/862/479 580/864/481
f 578/866/483 630/867/484 579/863/480 577/862/479
f 576/857/40 568/853/40 566/849/478 580/864/481
f 580/864/481 566/849/478 564/850/476 581/865/482
f 582/868/485 583/869/486 578/870/483 581/871/482
f 581/871/482 564/872/476 585/873/477 582/868/485
f 596/874/487 583/869/486 582/868/485 584/875/488
f 584/875/488 582/868/485 585/873/477 586/876/489
f 586/877/489 585/848/477 563/844/474 588/878/490
f 584/875/488 586/876/489 587/879/491 594/880/492
f 586/877/489 588/878/490 589/881/493 587/882/491
f 588/878/490 563/844/474 560/839/470 590/635/352
f 588/878/490 590/635/352 428/634/349 589/881/493
f 590/635/352 560/839/470 557/836/468 427/636/353
f 589/883/493 428/630/349 424/622/343 591/621/342
f 587/884/491 589/883/493 591/621/342 592/620/341
f 594/885/492 587/884/491 592/620/341 593/619/340
f 593/619/340 421/618/339 595/886/494 594/885/492
f 594/880/492 595/887/494 596/874/487 584/875/488
f 595/888/494 597/889/495 598/890/496 596/891/487
f 421/618/339 599/625/345 597/892/495 595/893/494
f 602/894/497 598/890/496 597/889/495 600/895/498
f 600/896/498 597/892/495 599/625/345 603/897/499
f 601/898/500 600/896/498 603/897/499 604/899/501
f 605/900/502 602/894/497 600/895/498 601/901/500
f 603/897/499 599/625/345 446/627/346 604/899/501
f 446/627/346 449/668/373 476/713/402 604/899/501
f 604/899/501 476/713/402 479/716/405 601/898/500
f 605/900/502 609/902/503 606/903/504 602/894/497
f 602/894/497 606/903/504 607/904/505 598/890/496
f 608/905/506 630/906/484 607/904/505 606/903/504
f 611/907/507 608/905/506 606/903/504 609/902/503
f 609/902/503 610/908/508 613/909/509 611/907/507
f 629/724/408 610/908/508 609/902/503 605/900/502
f 611/910/507 613/911/509 615/912/510 612/913/511
f 612/913/511 626/914/512 608/915/506 611/910/507
f 613/911/509 614/916/513 616/917/514 615/912/510
f 610/908/508 624/918/515 614/919/513 613/909/509
f 617/754/40 511/769/40 615/912/510 616/917/514
f 511/769/40 627/773/40 612/913/511 615/912/510
f 619/755/40 617/754/40 616/917/514 618/920/516
f 614/916/513 621/921/517 618/920/516 616/917/514
f 625/756/40 619/755/40 618/920/516 620/922/518
f 620/922/518 618/920/516 621/921/517 623/923/418
f 624/924/515 622/732/414 621/925/517 614/926/513
f 623/739/418 621/925/517 622/732/414 486/731/413
f 497/748/424 620/922/518 623/923/418 490/749/417
f 481/719/406 622/732/414 624/924/515 478/720/407
f 478/723/407 624/918/515 610/908/508 629/724/408
f 499/752/40 625/756/40 620/922/518 497/748/424
f 627/773/40 628/927/40 626/914/512 612/913/511
f 628/927/40 627/773/40 512/772/40 575/860/40
f 628/927/40 575/860/40 579/863/480 626/914/512
f 626/914/512 579/863/480 630/867/484 608/915/506
f 601/901/500 479/721/405 629/724/408 605/900/502
f 583/928/486 607/904/505 630/906/484 578/929/483
f 598/890/496 607/904/505 583/928/486 596/891/487
f 573/859/40 631/861/40 632/930/40 571/858/40
f 631/861/40 512/772/40 636/931/40 635/932/40 634/933/40 633/934/40 632/930/40
f 632/930/40 633/934/40 549/824/460 552/828/463
f 571/858/40 632/930/40 552/828/463 555/831/466
f 633/934/40 634/933/40 546/820/457 549/824/460
f 634/933/40 635/932/40 543/814/454 546/820/457
f 635/932/40 636/931/40 540/809/451 543/814/454
f 636/931/40 512/772/40 514/774/430 540/809/451
f 430/638/354 427/636/353 557/836/468 554/835/465
f 433/643/356 430/642/354 554/830/465 551/825/461
f 433/643/356 551/825/461 548/821/458 637/645/358
f 637/645/358 548/821/458 545/816/455 638/656/366
f 437/655/363 432/644/357 637/645/358 638/656/366
f 638/656/366 545/816/455 542/815/452 441/657/367
f 441/660/367 542/811/452 537/807/449 443/661/368
f 468/707/395 484/728/411 639/708/398 471/706/397
