# Blender 4.4.3
# www.blender.org
mtllib 握把.mtl
o C3_LOW.001
v 0.981100 2.119229 1.168791
v 0.981100 2.142097 1.168791
v 0.981100 2.119229 1.155386
v 0.981100 2.142097 1.155386
v 1.113379 2.119229 1.168791
v 1.113379 2.142097 1.168791
v 1.113379 2.119229 1.155386
v 1.113379 2.142097 1.155386
v 0.981100 2.119229 1.085207
v 0.981100 2.142097 1.085207
v 0.981100 2.119229 1.071801
v 0.981100 2.142097 1.071801
v 1.113379 2.119229 1.085207
v 1.113379 2.142097 1.085207
v 1.113379 2.119229 1.071801
v 1.113379 2.142097 1.071801
v 1.123885 2.112363 1.202363
v 1.123885 2.112363 1.032553
v 1.130917 2.113762 1.202363
v 1.130917 2.113762 1.032553
v 1.136879 2.117745 1.202363
v 1.136879 2.117745 1.032553
v 1.140862 2.123707 1.202363
v 1.140862 2.123707 1.032553
v 1.142261 2.130738 1.202363
v 1.142261 2.130738 1.032553
v 1.140862 2.137770 1.202363
v 1.140862 2.137770 1.032553
v 1.136879 2.143732 1.202363
v 1.136879 2.143732 1.032553
v 1.130917 2.147715 1.202363
v 1.130917 2.147715 1.032553
v 1.123885 2.149114 1.202363
v 1.123885 2.149114 1.032553
v 1.116853 2.147715 1.202363
v 1.116853 2.147715 1.032553
v 1.110892 2.143732 1.202363
v 1.110892 2.143732 1.032553
v 1.106909 2.137770 1.202363
v 1.106909 2.137770 1.032553
v 1.105510 2.130738 1.202363
v 1.105510 2.130738 1.032553
v 1.106909 2.123707 1.202363
v 1.106909 2.123707 1.032553
v 1.110892 2.117745 1.202363
v 1.110892 2.117745 1.032553
v 1.116853 2.113762 1.202363
v 1.116853 2.113762 1.032553
vn -1.0000 -0.0000 -0.0000
vn -0.0000 -0.0000 -1.0000
vn 1.0000 -0.0000 -0.0000
vn -0.0000 -0.0000 1.0000
vn -0.0000 -1.0000 -0.0000
vn -0.0000 1.0000 -0.0000
vn 0.3827 -0.9239 -0.0000
vn 0.7071 -0.7071 -0.0000
vn 0.9239 -0.3827 -0.0000
vn 0.9239 0.3827 -0.0000
vn 0.7071 0.7071 -0.0000
vn 0.3827 0.9239 -0.0000
vn -0.3827 0.9239 -0.0000
vn -0.7071 0.7071 -0.0000
vn -0.9239 0.3827 -0.0000
vn -0.9239 -0.3827 -0.0000
vn -0.7071 -0.7071 -0.0000
vn -0.3827 -0.9239 -0.0000
vt 0.378654 0.117225
vt 0.378654 0.102032
vt 0.387560 0.102032
vt 0.387560 0.117225
vt 0.863636 0.971292
vt 0.848444 0.971292
vt 0.848444 0.883416
vt 0.863636 0.883416
vt 0.414540 0.107656
vt 0.414540 0.092463
vt 0.423445 0.092463
vt 0.423445 0.107656
vt 0.373206 0.808612
vt 0.358013 0.808612
vt 0.358013 0.720736
vt 0.373206 0.720736
vt 0.385167 0.443224
vt 0.385167 0.531101
vt 0.376262 0.531101
vt 0.376262 0.443224
vt 0.325359 0.701598
vt 0.325359 0.789474
vt 0.316453 0.789474
vt 0.316453 0.701598
vt 0.366693 0.227273
vt 0.366693 0.212080
vt 0.375598 0.212080
vt 0.375598 0.227273
vt 0.318182 0.626794
vt 0.302989 0.626794
vt 0.302989 0.538918
vt 0.318182 0.538918
vt 0.397793 0.368421
vt 0.397793 0.353229
vt 0.406699 0.353229
vt 0.406699 0.368421
vt 0.985646 0.205742
vt 0.970454 0.205742
vt 0.970454 0.117866
vt 0.985646 0.117866
vt 0.942584 0.000641
vt 0.942584 0.088517
vt 0.933678 0.088517
vt 0.933678 0.000641
vt 0.837321 0.725521
vt 0.837321 0.813397
vt 0.828415 0.813397
vt 0.828415 0.725521
vt 0.933234 0.224326
vt 0.933234 0.106159
vt 0.938222 0.106240
vt 0.938222 0.224408
vt 0.942584 0.106557
vt 0.942584 0.224725
vt 0.966507 0.513070
vt 0.966507 0.631579
vt 0.962347 0.631579
vt 0.962347 0.513070
vt 0.957439 0.631579
vt 0.957439 0.513070
vt 0.952532 0.631579
vt 0.952532 0.513070
vt 0.948371 0.631579
vt 0.948371 0.513070
vt 0.795308 0.377938
vt 0.795308 0.259127
vt 0.799749 0.259062
vt 0.799749 0.377873
vt 0.804746 0.259049
vt 0.804746 0.377860
vt 0.809539 0.259090
vt 0.809539 0.377901
vt 0.813397 0.259179
vt 0.813397 0.377990
vt 0.966507 0.388668
vt 0.966507 0.507177
vt 0.962347 0.507177
vt 0.962347 0.388668
vt 0.957439 0.507177
vt 0.957439 0.388668
vt 0.952532 0.507177
vt 0.952532 0.388668
vt 0.948371 0.507177
vt 0.948371 0.388668
vt 0.942584 0.452589
vt 0.942584 0.457726
vt 0.940894 0.462578
vt 0.937772 0.466405
vt 0.933692 0.468625
vt 0.929276 0.468900
vt 0.925196 0.467187
vt 0.922074 0.463749
vt 0.920384 0.459108
vt 0.920384 0.453970
vt 0.922074 0.449119
vt 0.925196 0.445292
vt 0.929276 0.443072
vt 0.933692 0.442797
vt 0.937771 0.444509
vt 0.940894 0.447947
vt 0.924396 0.224880
vt 0.924396 0.106713
vt 0.928379 0.106325
vt 0.928379 0.224492
vt 0.903715 0.940576
vt 0.907083 0.937208
vt 0.911483 0.935385
vt 0.916246 0.935385
vt 0.920646 0.937207
vt 0.924015 0.940575
vt 0.925837 0.944976
vt 0.925837 0.949739
vt 0.924014 0.954139
vt 0.920646 0.957507
vt 0.916246 0.959330
vt 0.911483 0.959330
vt 0.907082 0.957507
vt 0.903714 0.954140
vt 0.901892 0.949739
vt 0.901892 0.944976
s 0
usemtl 
f 1/1/1 2/2/1 4/3/1 3/4/1
f 3/5/2 4/6/2 8/7/2 7/8/2
f 7/9/3 8/10/3 6/11/3 5/12/3
f 5/13/4 6/14/4 2/15/4 1/16/4
f 3/17/5 7/18/5 5/19/5 1/20/5
f 8/21/6 4/22/6 2/23/6 6/24/6
f 9/25/1 10/26/1 12/27/1 11/28/1
f 11/29/2 12/30/2 16/31/2 15/32/2
f 15/33/3 16/34/3 14/35/3 13/36/3
f 13/37/4 14/38/4 10/39/4 9/40/4
f 11/41/5 15/42/5 13/43/5 9/44/5
f 16/45/6 12/46/6 10/47/6 14/48/6
s 1
f 17/49/5 18/50/5 20/51/7 19/52/7
f 19/52/7 20/51/7 22/53/8 21/54/8
f 21/55/8 22/56/8 24/57/9 23/58/9
f 23/58/9 24/57/9 26/59/3 25/60/3
f 25/60/3 26/59/3 28/61/10 27/62/10
f 27/62/10 28/61/10 30/63/11 29/64/11
f 29/65/11 30/66/11 32/67/12 31/68/12
f 31/68/12 32/67/12 34/69/6 33/70/6
f 33/70/6 34/69/6 36/71/13 35/72/13
f 35/72/13 36/71/13 38/73/14 37/74/14
f 37/75/14 38/76/14 40/77/15 39/78/15
f 39/78/15 40/77/15 42/79/1 41/80/1
f 41/80/1 42/79/1 44/81/16 43/82/16
f 43/82/16 44/81/16 46/83/17 45/84/17
f 20/85/2 18/86/2 48/87/2 46/88/2 44/89/2 42/90/2 40/91/2 38/92/2 36/93/2 34/94/2 32/95/2 30/96/2 28/97/2 26/98/2 24/99/2 22/100/2
f 45/101/17 46/102/17 48/103/18 47/104/18
f 47/104/18 48/103/18 18/50/5 17/49/5
f 17/105/4 19/106/4 21/107/4 23/108/4 25/109/4 27/110/4 29/111/4 31/112/4 33/113/4 35/114/4 37/115/4 39/116/4 41/117/4 43/118/4 45/119/4 47/120/4
