# Blender 4.3.2
# www.blender.org
mtllib ChipContainer.mtl
o 11.073
v 0.095607 0.139200 0.364026
v 0.098041 0.139200 0.364504
v 0.095607 0.143787 0.364026
v 0.093177 0.139200 0.364517
v 0.095613 0.105422 0.366018
v 0.095613 0.071644 0.366018
v 0.093183 0.105422 0.366508
v 0.098046 0.105422 0.366494
v 0.100111 0.105422 0.367866
v 0.098046 0.071644 0.366494
v 0.098040 0.037865 0.364503
v 0.100111 0.071643 0.367865
v 0.101494 0.071644 0.369923
v 0.100105 0.037865 0.365875
v 0.101488 0.037865 0.367932
v 0.101979 0.037865 0.370362
v 0.101985 0.071644 0.372353
v 0.101503 0.037865 0.372795
v 0.101508 0.071644 0.374786
v 0.100131 0.037865 0.374860
v 0.100137 0.071644 0.376851
v 0.098073 0.037865 0.376243
v 0.098079 0.071644 0.378235
v 0.095643 0.037865 0.376734
v 0.095649 0.071644 0.378725
v 0.093211 0.037865 0.376257
v 0.093216 0.071644 0.378248
v 0.091145 0.037865 0.374885
v 0.091151 0.071644 0.376876
v 0.089762 0.037865 0.372828
v 0.089768 0.071644 0.374819
v 0.089271 0.037865 0.370398
v 0.089278 0.071643 0.372389
v 0.089748 0.037865 0.367966
v 0.089754 0.071644 0.369956
v 0.091120 0.037865 0.365900
v 0.091126 0.071644 0.367892
v 0.093177 0.037865 0.364517
v 0.093183 0.071644 0.366508
v 0.095607 0.037865 0.364026
v 0.091126 0.105422 0.367892
v 0.091120 0.139200 0.365900
v 0.089754 0.105422 0.369956
v 0.089748 0.139200 0.367966
v 0.089277 0.105422 0.372390
v 0.089271 0.139200 0.370398
v 0.089768 0.105422 0.374819
v 0.091151 0.105422 0.376876
v 0.089762 0.139200 0.372828
v 0.091146 0.139200 0.374886
v 0.089762 0.143787 0.372828
v 0.091146 0.143787 0.374886
v 0.089272 0.143787 0.370399
v 0.089758 0.151010 0.371206
v 0.091139 0.151937 0.372787
v 0.089746 0.155157 0.366960
v 0.089268 0.149916 0.369336
v 0.089258 0.153205 0.365665
v 0.089747 0.148823 0.367464
v 0.089748 0.143787 0.367966
v 0.089738 0.151276 0.364380
v 0.091119 0.147895 0.365874
v 0.091112 0.149665 0.363309
v 0.093178 0.147276 0.364809
v 0.091120 0.143787 0.365900
v 0.093177 0.143787 0.364517
v 0.093172 0.148607 0.362606
v 0.095609 0.147058 0.364430
v 0.098041 0.147276 0.364794
v 0.095602 0.148241 0.362359
v 0.098035 0.148607 0.362592
v 0.095589 0.148693 0.357780
v 0.098021 0.149141 0.357952
v 0.095518 0.148676 0.332539
v 0.093159 0.149141 0.357965
v 0.091098 0.150420 0.358481
v 0.093086 0.149159 0.332537
v 0.091025 0.150536 0.332513
v 0.093078 0.148757 0.329709
v 0.091015 0.149998 0.329117
v 0.093074 0.147150 0.328191
v 0.095510 0.148322 0.329913
v 0.097941 0.148757 0.329696
v 0.095506 0.146858 0.328536
v 0.097937 0.147150 0.328178
v 0.095504 0.144301 0.327782
v 0.097934 0.144475 0.327273
v 0.095505 0.142148 0.327928
v 0.093071 0.144475 0.327287
v 0.091006 0.145011 0.325908
v 0.093072 0.142148 0.327453
v 0.091007 0.142148 0.326087
v 0.089623 0.142148 0.324037
v 0.089133 0.142148 0.321617
v 0.089623 0.145854 0.323917
v 0.089133 0.146857 0.321622
v 0.089627 0.149240 0.325645
v 0.089635 0.151854 0.328224
v 0.089140 0.150736 0.323809
v 0.091010 0.147982 0.327183
v 0.089148 0.154043 0.327168
v 0.089617 0.152243 0.321956
v 0.090990 0.153526 0.320377
v 0.089610 0.147856 0.319352
v 0.089630 0.156232 0.326108
v 0.091004 0.158088 0.325208
v 0.089647 0.157459 0.332371
v 0.091025 0.159519 0.332324
v 0.089729 0.156873 0.361176
v 0.089163 0.155028 0.332424
v 0.089242 0.154602 0.360209
v 0.089648 0.152597 0.332474
v 0.089724 0.152336 0.359264
v 0.091109 0.158799 0.362003
v 0.091126 0.156829 0.368060
v 0.093172 0.160086 0.362553
v 0.095604 0.160538 0.362742
v 0.093085 0.160897 0.332290
v 0.093189 0.157955 0.368792
v 0.095621 0.158352 0.369044
v 0.093204 0.152556 0.373842
v 0.095636 0.152773 0.374207
v 0.093211 0.143787 0.376257
v 0.095643 0.143787 0.376734
v 0.093211 0.139200 0.376257
v 0.095643 0.139200 0.376734
v 0.093216 0.105422 0.378248
v 0.095649 0.105422 0.378725
v 0.098079 0.105422 0.378235
v 0.100137 0.105422 0.376851
v 0.098073 0.139200 0.376243
v 0.100131 0.139200 0.374860
v 0.098073 0.143787 0.376243
v 0.100131 0.143787 0.374860
v 0.098067 0.152556 0.373828
v 0.098052 0.157955 0.368778
v 0.100125 0.151937 0.372762
v 0.101497 0.151010 0.371172
v 0.100111 0.156829 0.368035
v 0.100094 0.158799 0.361978
v 0.101485 0.155157 0.366927
v 0.101966 0.153205 0.365629
v 0.101469 0.156873 0.361143
v 0.101387 0.157459 0.332339
v 0.101950 0.154602 0.360173
v 0.101871 0.155028 0.332388
v 0.101463 0.152336 0.359230
v 0.100084 0.150420 0.358456
v 0.101478 0.151276 0.364347
v 0.101387 0.152597 0.332440
v 0.100010 0.150536 0.332487
v 0.101376 0.151854 0.328190
v 0.100001 0.149997 0.329091
v 0.101856 0.154043 0.327132
v 0.101368 0.149240 0.325611
v 0.099995 0.147982 0.327157
v 0.101362 0.145854 0.323884
v 0.101846 0.150736 0.323773
v 0.101840 0.146857 0.321586
v 0.101358 0.152243 0.321923
v 0.101369 0.156232 0.326076
v 0.101350 0.147856 0.319318
v 0.099976 0.153526 0.320351
v 0.099967 0.148700 0.317412
v 0.097911 0.154384 0.319302
v 0.099989 0.158088 0.325183
v 0.100009 0.159519 0.332299
v 0.097926 0.159329 0.324589
v 0.097948 0.160896 0.332275
v 0.095494 0.159764 0.324386
v 0.095517 0.161380 0.332273
v 0.093064 0.159329 0.324603
v 0.095479 0.154686 0.318937
v 0.095470 0.149460 0.315704
v 0.093049 0.154384 0.319315
v 0.093039 0.149262 0.316158
v 0.093039 0.142148 0.315757
v 0.090982 0.148700 0.317437
v 0.090981 0.142148 0.317136
v 0.089610 0.142148 0.319193
v 0.095468 0.142148 0.315269
v 0.097901 0.142148 0.315743
v 0.099967 0.142148 0.317110
v 0.097903 0.149262 0.316145
v 0.101350 0.142148 0.319160
v 0.101840 0.142148 0.321581
v 0.101364 0.142148 0.324004
v 0.099992 0.142148 0.326062
v 0.097934 0.142148 0.327439
v 0.099991 0.145011 0.325883
v 0.098034 0.160086 0.362540
v 0.097949 0.149159 0.332523
v 0.101486 0.148822 0.367430
v 0.100098 0.149665 0.363284
v 0.100105 0.147895 0.365849
v 0.100105 0.143787 0.365875
v 0.098040 0.143787 0.364503
v 0.100105 0.139200 0.365875
v 0.101488 0.143787 0.367932
v 0.101488 0.139200 0.367932
v 0.101979 0.143787 0.370362
v 0.101979 0.139200 0.370362
v 0.101503 0.143787 0.372795
v 0.101976 0.149916 0.369300
v 0.101503 0.139200 0.372795
v 0.101508 0.105422 0.374786
v 0.101985 0.105422 0.372353
v 0.101494 0.105422 0.369923
v -0.138104 -0.037095 0.360089
v -0.138094 -0.037095 -0.372996
v -0.138104 0.046601 0.360089
v 0.145740 -0.037095 0.360093
v 0.145749 -0.037095 -0.372992
v 0.145740 0.046601 0.360093
v 0.104357 0.046601 0.329783
v 0.145749 0.046601 -0.372992
v 0.104365 0.046601 -0.287879
v -0.138094 0.046601 -0.372996
v -0.094141 0.046601 -0.287882
v -0.094148 0.046601 0.329781
v -0.078391 0.006335 -0.287882
v -0.078398 0.006335 0.329781
v 0.088615 0.006335 -0.287879
v -0.055805 -0.021325 -0.287881
v 0.066031 -0.021325 -0.287880
v -0.024598 -0.031404 -0.287881
v -0.055814 -0.021325 0.329781
v -0.024605 -0.031404 0.329782
v 0.066023 -0.021325 0.329782
v 0.034815 -0.031404 0.329783
v 0.088608 0.006335 0.329783
v 0.034822 -0.031404 -0.287880
v -0.013025 0.028483 0.349955
v -0.013268 0.028483 0.324895
v -0.013025 0.181405 0.349955
v 0.056384 0.028483 0.349285
v 0.056142 0.028483 0.324224
v 0.056384 0.181405 0.349285
v 0.056142 0.181405 0.324224
v -0.013268 0.181405 0.324895
v -0.125582 0.047661 0.277540
v -0.121258 0.080826 0.277540
v -0.125581 0.047661 0.342033
v -0.125582 -0.029513 0.277540
v -0.125581 -0.029513 0.342033
v 0.128204 -0.029513 0.277540
v 0.128204 0.047661 0.277540
v 0.128204 -0.029513 0.342032
v 0.128204 0.047661 0.342032
v 0.123881 0.080826 0.342032
v 0.111204 0.111730 0.342032
v 0.123881 0.080826 0.277540
v 0.111204 0.111730 0.277540
v 0.091038 0.141121 0.277540
v 0.091039 0.141121 0.342032
v 0.064757 0.158632 0.277540
v 0.064758 0.158632 0.342032
v 0.034154 0.171433 0.277540
v 0.034154 0.171433 0.342032
v 0.001312 0.175800 0.277540
v 0.001312 0.175800 0.342032
v -0.031530 0.171433 0.277540
v -0.031530 0.171433 0.342032
v -0.062135 0.158632 0.277540
v -0.062135 0.158632 0.342033
v -0.088416 0.141121 0.277540
v -0.088416 0.141121 0.342032
v -0.108581 0.111730 0.277540
v -0.108581 0.111730 0.342033
v -0.121258 0.080826 0.342033
v 0.070689 0.100321 0.361321
v 0.074822 0.100321 0.362086
v 0.070610 0.100321 0.355425
v 0.066579 0.100321 0.362196
v 0.070689 -0.001067 0.361321
v 0.066579 -0.001067 0.362196
v 0.074822 -0.001067 0.362086
v 0.078347 -0.001067 0.364373
v 0.078347 0.100321 0.364373
v 0.080728 -0.001067 0.367836
v 0.080728 0.100321 0.367836
v 0.081604 -0.001067 0.371946
v 0.080839 -0.001067 0.376079
v 0.081604 0.100321 0.371946
v 0.087499 0.100321 0.371867
v 0.080839 0.100321 0.376079
v 0.086316 0.100321 0.378262
v 0.078552 0.100321 0.379603
v 0.082776 0.100321 0.383717
v 0.075089 0.100321 0.381986
v 0.078552 -0.001067 0.379603
v 0.075089 -0.001067 0.381986
v 0.070979 -0.001067 0.382860
v 0.066846 -0.001067 0.382096
v 0.070979 0.100321 0.382860
v 0.071057 0.100321 0.388756
v 0.066846 0.100321 0.382096
v 0.064663 0.100321 0.387573
v 0.063321 0.100321 0.379808
v 0.063321 -0.001067 0.379808
v 0.060939 0.100321 0.376346
v 0.059208 0.100321 0.384033
v 0.059208 0.134301 0.384033
v 0.055523 0.100321 0.378675
v 0.055523 0.134301 0.378675
v 0.054168 0.100321 0.372315
v 0.054168 0.134301 0.372315
v 0.055351 0.100321 0.365920
v 0.060065 0.100321 0.372235
v 0.060829 0.100321 0.368103
v 0.060065 -0.001067 0.372235
v 0.060829 -0.001067 0.368103
v 0.060939 -0.001067 0.376346
v 0.063117 -0.001067 0.364578
v 0.063117 0.100321 0.364577
v 0.058891 0.100321 0.360465
v 0.058891 0.134300 0.360465
v 0.064250 0.100321 0.356779
v 0.064250 0.134300 0.356779
v 0.066093 0.134300 0.361065
v 0.070610 0.134301 0.355425
v 0.077005 0.134300 0.356609
v 0.070673 0.134301 0.360090
v 0.075278 0.134301 0.360942
v 0.070673 0.138770 0.360091
v 0.075278 0.138770 0.360942
v 0.066093 0.138770 0.361065
v 0.070761 0.151118 0.366657
v 0.072845 0.151118 0.367043
v 0.068687 0.151118 0.367099
v 0.070760 0.155041 0.366658
v 0.072845 0.155041 0.367043
v 0.068687 0.155041 0.367099
v 0.070766 0.157839 0.367002
v 0.068691 0.158025 0.367348
v 0.072849 0.158025 0.367292
v 0.070741 0.158850 0.365230
v 0.072824 0.159164 0.365409
v 0.068666 0.159164 0.365465
v 0.070690 0.159237 0.361316
v 0.072770 0.159621 0.361440
v 0.070222 0.159222 0.326503
v 0.068612 0.159621 0.361496
v 0.066856 0.160714 0.361956
v 0.068142 0.159636 0.326522
v 0.066380 0.160813 0.326521
v 0.068111 0.159292 0.324105
v 0.066341 0.160353 0.323616
v 0.068093 0.157917 0.322806
v 0.070192 0.158920 0.324257
v 0.072269 0.159292 0.324049
v 0.070176 0.157668 0.323079
v 0.072251 0.157917 0.322750
v 0.070167 0.155480 0.322434
v 0.072241 0.155630 0.321977
v 0.070169 0.153640 0.322559
v 0.068083 0.155630 0.322033
v 0.066304 0.156088 0.320873
v 0.068084 0.153640 0.322175
v 0.066306 0.153640 0.321025
v 0.065105 0.153640 0.319285
v 0.064663 0.153640 0.317219
v 0.065103 0.156809 0.319182
v 0.064663 0.157667 0.317223
v 0.065123 0.159705 0.320659
v 0.065152 0.161940 0.322865
v 0.064688 0.160985 0.319094
v 0.066318 0.158629 0.321963
v 0.064727 0.163813 0.321966
v 0.065080 0.162274 0.317505
v 0.066240 0.163370 0.316142
v 0.065051 0.158522 0.315278
v 0.065128 0.165685 0.321057
v 0.066295 0.167273 0.320274
v 0.065200 0.166734 0.326413
v 0.066377 0.168497 0.326359
v 0.065708 0.166233 0.364273
v 0.064787 0.164655 0.326461
v 0.065284 0.164291 0.363450
v 0.065201 0.162576 0.326499
v 0.065686 0.162353 0.362637
v 0.065745 0.161447 0.367013
v 0.065780 0.159348 0.369650
v 0.065346 0.163096 0.368116
v 0.066911 0.160069 0.366085
v 0.066940 0.158555 0.368278
v 0.066940 0.155041 0.368300
v 0.065786 0.155041 0.370079
v 0.066940 0.151118 0.368300
v 0.065786 0.151118 0.370079
v 0.062234 0.138770 0.363719
v 0.062234 0.134301 0.363719
v 0.059685 0.138770 0.367647
v 0.058833 0.138770 0.372252
v 0.059685 0.134301 0.367647
v 0.058833 0.134301 0.372252
v 0.055351 0.134301 0.365920
v 0.059809 0.134300 0.376832
v 0.062462 0.134301 0.380691
v 0.059809 0.138770 0.376832
v 0.062462 0.138770 0.380691
v 0.065842 0.151118 0.374237
v 0.067044 0.151118 0.375984
v 0.065400 0.151118 0.372164
v 0.065842 0.155041 0.374237
v 0.067044 0.155041 0.375984
v 0.065400 0.155041 0.372164
v 0.065823 0.161218 0.372850
v 0.067019 0.162011 0.374190
v 0.065775 0.164766 0.369219
v 0.065388 0.160283 0.371256
v 0.066965 0.166196 0.370147
v 0.066895 0.167881 0.364968
v 0.068736 0.167158 0.370755
v 0.070819 0.167498 0.370949
v 0.068794 0.162541 0.375072
v 0.068665 0.168981 0.365420
v 0.070747 0.169367 0.365559
v 0.068140 0.169674 0.326311
v 0.070219 0.170088 0.326274
v 0.068052 0.168333 0.319738
v 0.070128 0.168706 0.319529
v 0.067991 0.164105 0.315216
v 0.070066 0.164363 0.314870
v 0.067955 0.159724 0.312516
v 0.070029 0.159893 0.312106
v 0.067950 0.153640 0.312174
v 0.066206 0.159243 0.313628
v 0.066203 0.153640 0.313370
v 0.065049 0.153640 0.315142
v 0.070024 0.153640 0.311734
v 0.072108 0.153640 0.312117
v 0.073888 0.153640 0.313267
v 0.072113 0.159724 0.312460
v 0.073890 0.159243 0.313525
v 0.072149 0.164105 0.315160
v 0.073924 0.163370 0.316039
v 0.072210 0.168333 0.319682
v 0.073979 0.167273 0.320171
v 0.072298 0.169674 0.326255
v 0.074061 0.168497 0.326256
v 0.072823 0.168981 0.365364
v 0.074579 0.167881 0.364864
v 0.072895 0.167158 0.370699
v 0.072953 0.162541 0.375017
v 0.074650 0.166196 0.370044
v 0.074704 0.162011 0.374087
v 0.075814 0.164766 0.369084
v 0.076213 0.163096 0.367970
v 0.075863 0.161218 0.372714
v 0.075748 0.166233 0.364138
v 0.075240 0.166734 0.326277
v 0.076150 0.164291 0.363304
v 0.075654 0.164655 0.326316
v 0.075726 0.162353 0.362502
v 0.074540 0.160714 0.361853
v 0.075785 0.161447 0.366879
v 0.075241 0.162576 0.326365
v 0.074063 0.160813 0.326418
v 0.075192 0.161940 0.322730
v 0.074025 0.160353 0.323513
v 0.075594 0.163813 0.321821
v 0.075163 0.159705 0.320525
v 0.074002 0.158629 0.321859
v 0.075142 0.156809 0.319047
v 0.075556 0.160985 0.318948
v 0.075530 0.157667 0.317078
v 0.075121 0.162274 0.317371
v 0.075168 0.165685 0.320921
v 0.075090 0.158522 0.315144
v 0.075089 0.153640 0.315007
v 0.075530 0.153640 0.317074
v 0.075144 0.153640 0.319150
v 0.073990 0.153640 0.320922
v 0.072243 0.153640 0.322120
v 0.073988 0.156088 0.320770
v 0.072302 0.159636 0.326466
v 0.075820 0.159348 0.369515
v 0.074594 0.160069 0.365981
v 0.074624 0.158555 0.368174
v 0.074625 0.155041 0.368197
v 0.074625 0.151118 0.368197
v 0.075826 0.155041 0.369945
v 0.075826 0.151118 0.369945
v 0.076267 0.155041 0.372018
v 0.076267 0.151118 0.372018
v 0.075882 0.155041 0.374103
v 0.076255 0.160283 0.371109
v 0.075882 0.151118 0.374103
v 0.074728 0.155041 0.375881
v 0.074728 0.151118 0.375881
v 0.072980 0.155041 0.377082
v 0.072980 0.151118 0.377082
v 0.070907 0.155041 0.377524
v 0.070907 0.151118 0.377524
v 0.068822 0.155041 0.377138
v 0.070878 0.162727 0.375363
v 0.068822 0.151118 0.377138
v 0.066390 0.138770 0.383240
v 0.070995 0.138770 0.384092
v 0.066390 0.134300 0.383240
v 0.070995 0.134301 0.384091
v 0.064663 0.134300 0.387573
v 0.071057 0.134301 0.388756
v 0.077418 0.134300 0.387402
v 0.082776 0.134300 0.383717
v 0.077418 0.100321 0.387401
v 0.075575 0.134300 0.383116
v 0.079434 0.134301 0.380462
v 0.075575 0.138770 0.383116
v 0.079434 0.138770 0.380462
v 0.081983 0.138770 0.376535
v 0.082834 0.138770 0.371929
v 0.081983 0.134301 0.376535
v 0.082835 0.134300 0.371930
v 0.086316 0.134300 0.378262
v 0.087499 0.134300 0.371867
v 0.086145 0.134300 0.365507
v 0.081860 0.134300 0.367350
v 0.082461 0.134300 0.360149
v 0.086145 0.100321 0.365507
v 0.082459 0.100321 0.360149
v 0.077004 0.100321 0.356608
v 0.079206 0.134300 0.363491
v 0.079206 0.138770 0.363491
v 0.081860 0.138770 0.367350
vn -0.0028 -0.0294 -0.9996
vn 0.3788 -0.0272 -0.9251
vn 0.3813 -0.0273 -0.9241
vn -0.0029 -0.0295 -0.9996
vn -0.0029 0.0509 -0.9987
vn 0.3587 0.0335 -0.9329
vn -0.3840 -0.0271 -0.9229
vn -0.3639 0.0336 -0.9308
vn -0.3866 -0.0273 -0.9219
vn 0.3812 0.0273 -0.9241
vn -0.0029 0.0295 -0.9996
vn -0.3866 0.0273 -0.9219
vn 0.7068 -0.0208 -0.7071
vn 0.7068 0.0208 -0.7071
vn 0.7032 -0.0209 -0.7107
vn 0.3770 0.0544 -0.9246
vn -0.0029 0.0589 -0.9983
vn 0.7009 0.0418 -0.7120
vn 0.9240 -0.0111 -0.3822
vn 0.9240 0.0111 -0.3822
vn 0.9199 0.0229 -0.3914
vn 1.0000 -0.0002 0.0008
vn 0.9999 0.0004 -0.0102
vn 0.9236 -0.0114 0.3831
vn 0.9273 -0.0222 0.3737
vn 0.7072 -0.0209 0.7067
vn 0.7122 -0.0414 0.7008
vn 0.3839 -0.0271 0.9230
vn 0.3874 -0.0543 0.9203
vn 0.0027 -0.0293 0.9996
vn 0.0027 -0.0588 0.9983
vn -0.3788 -0.0271 0.9251
vn -0.3822 -0.0543 0.9225
vn -0.7030 -0.0209 0.7108
vn -0.7081 -0.0414 0.7049
vn -0.9214 -0.0114 0.3884
vn -0.9251 -0.0222 0.3790
vn -1.0000 -0.0002 0.0064
vn -1.0000 0.0005 -0.0045
vn -0.9262 0.0111 -0.3770
vn -0.9221 0.0229 -0.3862
vn -0.7108 0.0208 -0.7031
vn -0.7049 0.0419 -0.7081
vn -0.3823 0.0544 -0.9224
vn -0.7108 -0.0208 -0.7031
vn -0.9261 -0.0111 -0.3770
vn -0.9236 -0.0114 -0.3832
vn -0.7072 -0.0209 -0.7067
vn -1.0000 -0.0002 -0.0008
vn -1.0000 0.0002 0.0064
vn -0.9240 0.0111 0.3822
vn -0.9214 0.0114 0.3884
vn -0.7030 0.0209 0.7109
vn -0.7067 0.0208 0.7072
vn -0.6850 0.0932 0.7225
vn -0.9123 0.0492 0.4065
vn -0.9999 0.0051 0.0136
vn -0.6704 0.3618 0.6479
vn -0.9019 0.2094 0.3777
vn -0.9989 0.0210 0.0419
vn -0.6814 0.6181 0.3920
vn -0.9075 0.3588 0.2185
vn -0.9995 0.0250 0.0185
vn -0.9206 -0.0164 -0.3901
vn -0.9387 -0.1674 -0.3014
vn -0.9261 -0.3423 -0.1588
vn -0.6897 -0.0012 -0.7241
vn -0.7345 -0.3196 -0.5987
vn -0.6921 -0.6704 -0.2675
vn -0.3548 -0.7950 -0.4920
vn -0.3595 -0.8823 -0.3037
vn -0.3654 0.0622 -0.9288
vn -0.0029 0.1023 -0.9947
vn -0.0015 -0.8619 -0.5071
vn -0.0009 -0.9514 -0.3079
vn 0.3603 0.0623 -0.9308
vn 0.3520 -0.7950 -0.4940
vn 0.3578 -0.8823 -0.3058
vn -0.0002 -0.9987 -0.0512
vn 0.3642 -0.9296 -0.0556
vn -0.3645 -0.9296 -0.0536
vn 0.0002 -0.9976 0.0692
vn 0.3772 -0.9239 0.0651
vn -0.3768 -0.9238 0.0672
vn -0.6919 -0.7200 -0.0549
vn -0.7031 -0.7089 0.0560
vn -0.7309 -0.6036 0.3185
vn -0.4010 -0.8122 0.4237
vn 0.0012 -0.8882 0.4595
vn -0.7120 -0.3873 0.5857
vn -0.3862 -0.4786 0.7885
vn 0.0024 -0.5032 0.8641
vn 0.4033 -0.8122 0.4214
vn 0.3907 -0.4787 0.7862
vn 0.0028 -0.1130 0.9936
vn 0.3978 -0.1175 0.9099
vn -0.3926 -0.1174 0.9122
vn 0.0029 0.0695 0.9976
vn 0.3792 0.0631 0.9231
vn -0.3740 0.0630 0.9253
vn -0.7236 -0.1155 0.6805
vn -0.6941 0.0417 0.7187
vn -0.0000 -1.0000 -0.0000
vn -0.9349 -0.0765 0.3464
vn -0.9175 0.0148 0.3975
vn -0.9996 0.0060 -0.0283
vn -1.0000 0.0031 0.0027
vn -0.9279 -0.2159 0.3039
vn -0.9999 0.0119 -0.0101
vn -0.9380 -0.3061 0.1629
vn -0.9994 0.0318 -0.0150
vn -0.9131 0.3623 -0.1869
vn -0.9170 0.2502 -0.3108
vn -0.9153 0.1105 -0.3874
vn -0.6962 0.4531 -0.5568
vn -0.6977 0.2093 -0.6852
vn -0.6947 0.6395 -0.3294
vn -0.9164 0.3990 -0.0326
vn -0.6938 0.7176 -0.0606
vn -0.9999 0.0124 0.0007
vn -0.9148 0.3989 0.0627
vn -0.6926 0.7107 0.1232
vn -0.9999 0.0137 0.0030
vn -0.9219 -0.3855 -0.0389
vn -0.9246 -0.3794 0.0327
vn -0.3634 0.7820 0.5063
vn -0.3721 0.9130 0.1672
vn -0.3722 0.9248 -0.0791
vn 0.0015 0.8382 0.5454
vn 0.0006 0.9832 0.1827
vn -0.0002 0.9963 -0.0861
vn -0.3527 0.4570 0.8165
vn 0.0025 0.4889 0.8723
vn -0.3640 0.1230 0.9232
vn 0.0028 0.1332 0.9911
vn -0.3812 0.0273 0.9241
vn 0.0028 0.0295 0.9996
vn -0.3788 0.0271 0.9251
vn 0.0027 0.0293 0.9996
vn 0.3839 0.0271 0.9230
vn 0.3865 0.0272 0.9219
vn 0.7072 0.0209 0.7067
vn 0.7108 0.0207 0.7031
vn 0.6891 0.0932 0.7187
vn 0.3692 0.1230 0.9212
vn 0.6740 0.3618 0.6441
vn 0.3573 0.4571 0.8145
vn 0.3662 0.7820 0.5043
vn 0.6837 0.6180 0.3881
vn 0.9147 0.0492 0.4012
vn 0.9041 0.2093 0.3725
vn 0.9088 0.3587 0.2133
vn 0.6933 0.7108 0.1192
vn 0.3730 0.9130 0.1651
vn 0.9152 0.3988 0.0575
vn 0.9996 0.0250 0.0128
vn 0.9999 0.0136 -0.0027
vn 0.9991 0.0210 0.0362
vn 0.9162 0.3989 -0.0378
vn 0.6934 0.7177 -0.0645
vn 0.9999 0.0124 -0.0049
vn 0.9216 -0.3855 -0.0441
vn 0.9248 -0.3794 0.0275
vn 0.9251 -0.3424 -0.1641
vn 0.6905 -0.6704 -0.2714
vn 0.6915 -0.7199 -0.0588
vn 0.7034 -0.7089 0.0521
vn 0.7328 -0.6035 0.3145
vn 0.9389 -0.3060 0.1575
vn 0.9993 0.0318 -0.0206
vn 0.7155 -0.3873 0.5814
vn 0.9296 -0.2160 0.2986
vn 0.9998 0.0119 -0.0156
vn 0.7275 -0.1155 0.6764
vn 0.9370 -0.0765 0.3408
vn 0.9994 0.0059 -0.0339
vn 0.9121 0.3623 -0.1920
vn 0.9152 0.2502 -0.3159
vn 0.9130 0.1105 -0.3927
vn 0.6927 0.6395 -0.3334
vn 0.6929 0.4531 -0.5608
vn 0.6936 0.2094 -0.6892
vn 0.3712 0.5871 -0.7194
vn 0.3731 0.2790 -0.8848
vn 0.3730 0.8242 -0.4261
vn 0.3717 0.9248 -0.0812
vn -0.0012 0.8891 -0.4578
vn -0.0021 0.6338 -0.7735
vn -0.3754 0.8242 -0.4240
vn -0.3753 0.5871 -0.7172
vn -0.0026 0.3040 -0.9527
vn -0.3782 0.2790 -0.8827
vn -0.0028 0.0579 -0.9983
vn -0.3737 0.0509 -0.9262
vn -0.6960 0.0330 -0.7173
vn -0.9196 0.0126 -0.3926
vn 0.3684 0.0510 -0.9283
vn 0.6918 0.0330 -0.7213
vn 0.9174 0.0126 -0.3978
vn 1.0000 0.0030 -0.0029
vn 0.9197 0.0148 0.3923
vn 0.6981 0.0418 0.7148
vn 0.9369 -0.1674 -0.3069
vn 0.7311 -0.3196 -0.6028
vn 0.6852 -0.0013 -0.7283
vn 0.9184 -0.0163 -0.3954
vn 0.9214 -0.0114 -0.3885
vn 1.0000 -0.0002 -0.0066
vn 1.0000 0.0051 0.0078
vn 0.9262 0.0111 0.3769
vn 0.9236 0.0114 0.3831
vn 1.0000 0.0002 0.0008
vn -1.0000 -0.0000 -0.0000
vn -0.0000 -0.0000 1.0000
vn 1.0000 -0.0000 -0.0000
vn -0.0000 1.0000 -0.0000
vn -0.0000 -0.0000 -1.0000
vn 0.9313 0.3643 -0.0000
vn 0.8634 0.5045 -0.0000
vn 0.5640 0.8258 -0.0000
vn 0.1556 0.9878 -0.0000
vn -0.5640 0.8258 -0.0000
vn -0.1556 0.9878 -0.0000
vn -0.8634 0.5045 -0.0000
vn -0.9313 0.3643 -0.0000
vn -1.0000 -0.0000 0.0097
vn 0.0097 -0.0000 1.0000
vn 1.0000 -0.0000 -0.0097
vn -0.0097 -0.0000 -1.0000
vn -0.9665 0.2566 -0.0000
vn -0.9979 0.0648 -0.0000
vn 0.9979 0.0648 -0.0000
vn 0.9665 0.2565 -0.0000
vn 0.8798 0.4753 -0.0000
vn 0.7023 0.7119 -0.0000
vn 0.4724 0.8814 -0.0000
vn 0.2611 0.9653 -0.0000
vn -0.2611 0.9653 -0.0000
vn -0.4723 0.8814 -0.0000
vn -0.7023 0.7119 -0.0000
vn -0.8798 0.4753 -0.0000
vn -0.0134 -0.0000 -0.9999
vn 0.3702 -0.0000 -0.9289
vn -0.3950 -0.0000 -0.9187
vn 0.6976 -0.0000 -0.7165
vn 0.9186 -0.0000 -0.3951
vn 0.9999 -0.0000 -0.0135
vn 0.9289 -0.0000 0.3703
vn 0.7165 -0.0000 0.6975
vn 0.3951 -0.0000 0.9186
vn 0.0134 -0.0000 0.9999
vn -0.3702 -0.0000 0.9289
vn -0.6976 -0.0000 0.7165
vn -0.9187 -0.0000 0.3950
vn -0.3703 -0.0000 0.9289
vn -0.9186 -0.0000 0.3951
vn -0.9999 -0.0000 0.0134
vn -0.9289 -0.0000 -0.3702
vn -0.9999 -0.0000 0.0133
vn -0.7166 -0.0000 -0.6975
vn -0.7165 -0.0000 -0.6975
vn -0.3951 -0.0000 -0.9187
vn -0.0000 1.0000 -0.0001
vn -0.0001 1.0000 -0.0001
vn 0.0001 1.0000 -0.0001
vn 0.3703 -0.0000 -0.9289
vn 0.3703 0.0001 -0.9289
vn -0.0135 0.0001 -0.9999
vn -0.0134 0.0001 -0.9999
vn -0.3951 0.0001 -0.9187
vn 0.3268 0.4696 -0.8201
vn -0.0119 0.4696 -0.8828
vn 0.3268 0.4696 -0.8202
vn -0.3488 0.4696 -0.8111
vn 0.3701 -0.0000 -0.9290
vn -0.0135 0.0508 -0.9986
vn 0.3485 0.0335 -0.9367
vn -0.3736 0.0335 -0.9270
vn -0.0120 -0.4484 -0.8938
vn 0.3976 -0.4156 -0.8181
vn -0.4194 -0.4155 -0.8071
vn -0.3629 -0.8822 -0.3000
vn -0.0042 -0.9514 -0.3079
vn 0.3547 -0.8822 -0.3096
vn -0.0007 -0.9987 -0.0513
vn 0.3637 -0.9296 -0.0592
vn -0.3652 -0.9296 -0.0494
vn 0.0009 -0.9976 0.0691
vn 0.3779 -0.9238 0.0612
vn -0.3761 -0.9238 0.0713
vn -0.6948 -0.6705 -0.2602
vn -0.6922 -0.7201 -0.0469
vn -0.7022 -0.7091 0.0641
vn -0.7274 -0.6036 0.3263
vn -0.3965 -0.8122 0.4280
vn 0.0061 -0.8882 0.4594
vn -0.7059 -0.3872 0.5931
vn -0.3778 -0.4785 0.7927
vn 0.0116 -0.5032 0.8641
vn 0.4078 -0.8123 0.4170
vn 0.3990 -0.4786 0.7822
vn 0.0134 -0.1128 0.9935
vn 0.4073 -0.1173 0.9057
vn -0.3829 -0.1176 0.9163
vn 0.0133 0.0695 0.9975
vn 0.3889 0.0631 0.9191
vn -0.3643 0.0628 0.9292
vn -0.7164 -0.1156 0.6881
vn -0.6866 0.0415 0.7259
vn -0.9314 -0.0765 0.3559
vn -0.9132 0.0147 0.4072
vn -0.9998 0.0060 -0.0177
vn -0.9999 0.0030 0.0134
vn -0.9247 -0.2159 0.3137
vn -0.9999 0.0119 0.0006
vn -0.9362 -0.3060 0.1728
vn -0.9995 0.0318 -0.0043
vn -0.9151 0.3621 -0.1771
vn -0.9202 0.2502 -0.3011
vn -0.9192 0.1106 -0.3779
vn -0.7020 0.4530 -0.5495
vn -0.7048 0.2093 -0.6779
vn -0.6980 0.6396 -0.3221
vn -0.9169 0.3985 -0.0244
vn -0.6942 0.7176 -0.0563
vn -0.9999 0.0120 0.0112
vn -0.9141 0.3993 0.0707
vn -0.6910 0.7116 0.1275
vn -0.9998 0.0141 0.0134
vn -0.9223 -0.3854 -0.0285
vn -0.9241 -0.3796 0.0432
vn -0.9277 -0.3423 -0.1490
vn -0.9993 0.0250 0.0290
vn -0.7406 -0.3196 -0.5910
vn -0.9418 -0.1673 -0.2915
vn -0.9984 0.0210 0.0524
vn -0.6973 -0.0012 -0.7168
vn -0.9247 -0.0164 -0.3804
vn -0.7165 -0.0000 -0.6976
vn -0.9289 -0.0000 -0.3704
vn -0.6326 0.4696 -0.6159
vn -0.8201 0.4696 -0.3270
vn -0.8203 0.4696 -0.3265
vn -0.9289 -0.0000 -0.3703
vn -0.8828 0.4696 0.0118
vn -0.9999 -0.0000 0.0135
vn 0.0001 1.0000 -0.0000
vn -0.8111 0.4696 0.3488
vn -0.6159 0.4696 0.6326
vn -0.9186 -0.0000 0.3952
vn -0.6975 -0.0000 0.7166
vn -0.6773 0.0932 0.7298
vn -0.9079 0.0492 0.4162
vn -0.9997 0.0051 0.0240
vn -0.6634 0.3617 0.6550
vn -0.8979 0.2093 0.3872
vn -0.6772 0.6181 0.3992
vn -0.9052 0.3586 0.2281
vn -0.3441 0.4570 0.8202
vn -0.3580 0.7820 0.5102
vn -0.3700 0.9139 0.1673
vn 0.0074 0.8382 0.5453
vn 0.0025 0.9840 0.1784
vn 0.0117 0.4889 0.8722
vn -0.0012 0.9959 -0.0907
vn -0.3727 0.9246 -0.0793
vn -0.0062 0.8891 -0.4577
vn -0.3799 0.8242 -0.4199
vn -0.0104 0.6338 -0.7735
vn -0.3829 0.5871 -0.7132
vn -0.0129 0.3040 -0.9526
vn -0.3874 0.2789 -0.8787
vn -0.0135 0.0579 -0.9982
vn -0.3834 0.0510 -0.9222
vn -0.7034 0.0330 -0.7101
vn -0.9237 0.0127 -0.3829
vn 0.3637 0.2789 -0.8888
vn 0.3584 0.0510 -0.9322
vn 0.6864 0.2094 -0.6965
vn 0.6842 0.0331 -0.7286
vn 0.3636 0.5871 -0.7232
vn 0.6870 0.4530 -0.5681
vn 0.3685 0.8242 -0.4300
vn 0.6891 0.6396 -0.3407
vn 0.3705 0.9245 -0.0892
vn 0.6924 0.7177 -0.0749
vn 0.3743 0.9139 0.1572
vn 0.6941 0.7116 0.1089
vn 0.3715 0.7821 0.5004
vn 0.6877 0.6181 0.3809
vn 0.3659 0.4570 0.8107
vn 0.6808 0.3617 0.6370
vn 0.9110 0.3585 0.2036
vn 0.9156 0.3994 0.0462
vn 0.9081 0.2092 0.3628
vn 0.9997 0.0245 0.0019
vn 0.9998 0.0141 -0.0135
vn 0.9995 0.0210 0.0256
vn 0.9158 0.3986 -0.0490
vn 0.9998 0.0120 -0.0156
vn 0.9212 -0.3854 -0.0532
vn 0.9250 -0.3796 0.0183
vn 0.9234 -0.3423 -0.1739
vn 0.6876 -0.6705 -0.2787
vn 0.6908 -0.7201 -0.0654
vn 0.7037 -0.7090 0.0452
vn 0.7360 -0.6035 0.3067
vn 0.9405 -0.3060 0.1477
vn 0.9990 0.0318 -0.0311
vn 0.7215 -0.3873 0.5740
vn 0.9327 -0.2160 0.2889
vn 0.9996 0.0118 -0.0263
vn 0.7346 -0.1154 0.6687
vn 0.9406 -0.0765 0.3308
vn 0.9990 0.0059 -0.0445
vn 0.9100 0.3623 -0.2017
vn 0.9117 0.2503 -0.3257
vn 0.9088 0.1106 -0.4023
vn 0.9132 0.0127 -0.4074
vn 0.9999 0.0031 -0.0134
vn 0.9238 0.0149 0.3825
vn 0.7058 0.0418 0.7072
vn 0.9337 -0.1673 -0.3167
vn 0.7245 -0.3196 -0.6107
vn 0.6778 -0.0012 -0.7352
vn 0.9142 -0.0164 -0.4049
vn 0.6975 -0.0000 -0.7165
vn 0.9187 -0.0000 -0.3950
vn 1.0000 0.0051 -0.0027
vn 0.9289 -0.0000 0.3702
vn 0.9189 0.0492 0.3915
vn 0.7164 -0.0000 0.6977
vn 0.6966 0.0932 0.7113
vn 0.3950 -0.0000 0.9187
vn 0.3789 0.1230 0.9172
vn 0.0135 -0.0000 0.9999
vn 0.0133 0.1332 0.9910
vn -0.3542 0.1230 0.9270
vn -0.3269 0.4696 0.8201
vn 0.0119 0.4696 0.8828
vn -0.3702 -0.0001 0.9289
vn 0.0134 -0.0001 0.9999
vn 0.0001 1.0000 0.0001
vn 0.7165 -0.0000 0.6976
vn 0.3951 -0.0001 0.9186
vn 0.3488 0.4696 0.8110
vn 0.6326 0.4696 0.6159
vn 0.3488 0.4696 0.8111
vn 0.8201 0.4696 0.3269
vn 0.8201 0.4696 0.3268
vn 0.8828 0.4696 -0.0119
vn 0.9999 -0.0000 -0.0134
vn 0.0002 1.0000 -0.0000
vn 0.9187 -0.0000 -0.3951
vn 0.6159 0.4696 -0.6326
vn 0.8111 0.4696 -0.3487
vt 0.534626 0.706889
vt 0.538559 0.706865
vt 0.538553 0.760893
vt 0.534610 0.760888
vt 0.534776 0.699761
vt 0.538738 0.699591
vt 0.597437 0.706903
vt 0.593496 0.706879
vt 0.593311 0.699599
vt 0.597239 0.699782
vt 0.597453 0.760861
vt 0.593511 0.760872
vt 0.538568 0.815052
vt 0.534626 0.815034
vt 0.597507 0.815008
vt 0.593564 0.815032
vt 0.542490 0.760939
vt 0.542507 0.815029
vt 0.542478 0.706912
vt 0.538224 0.869043
vt 0.534275 0.868994
vt 0.542179 0.869002
vt 0.546421 0.761018
vt 0.546443 0.814972
vt 0.546140 0.868892
vt 0.550375 0.814894
vt 0.550108 0.868739
vt 0.554302 0.814810
vt 0.554086 0.868576
vt 0.558227 0.814736
vt 0.558073 0.868434
vt 0.562150 0.814683
vt 0.562069 0.868341
vt 0.566072 0.814661
vt 0.566071 0.868312
vt 0.569992 0.814680
vt 0.570072 0.868340
vt 0.573914 0.814731
vt 0.574068 0.868434
vt 0.577836 0.814803
vt 0.578055 0.868575
vt 0.581761 0.814884
vt 0.582033 0.868738
vt 0.585691 0.814959
vt 0.586001 0.868890
vt 0.589625 0.815013
vt 0.589962 0.869001
vt 0.593917 0.869043
vt 0.597866 0.868997
vt 0.589574 0.760924
vt 0.585641 0.761006
vt 0.585659 0.707042
vt 0.589573 0.706922
vt 0.581748 0.707222
vt 0.581713 0.761105
vt 0.577833 0.707427
vt 0.577788 0.761207
vt 0.573866 0.761294
vt 0.573908 0.707617
vt 0.573721 0.700362
vt 0.577582 0.700088
vt 0.581478 0.699798
vt 0.574444 0.687194
vt 0.578291 0.688349
vt 0.581905 0.689806
vt 0.269855 0.878090
vt 0.274148 0.876215
vt 0.275547 0.886319
vt 0.271724 0.887151
vt 0.266067 0.880560
vt 0.267983 0.888311
vt 0.585414 0.699585
vt 0.585478 0.691392
vt 0.262626 0.883362
vt 0.264294 0.889728
vt 0.589369 0.699513
vt 0.589235 0.692877
vt 0.259296 0.886119
vt 0.260557 0.891195
vt 0.255820 0.888254
vt 0.256691 0.892389
vt 0.593252 0.693997
vt 0.597283 0.694588
vt 0.252076 0.889368
vt 0.252755 0.893021
vt 0.534784 0.694560
vt 0.538818 0.693988
vt 0.310761 0.890216
vt 0.314416 0.891594
vt 0.313479 0.895189
vt 0.309598 0.894278
vt 0.313283 0.902778
vt 0.309373 0.902340
vt 0.256340 0.900446
vt 0.252409 0.900604
vt 0.311890 0.945101
vt 0.307985 0.944853
vt 0.254691 0.942950
vt 0.250779 0.942918
vt 0.260210 0.899795
vt 0.258565 0.942738
vt 0.258999 0.949559
vt 0.255004 0.948933
vt 0.251069 0.948406
vt 0.258197 0.954918
vt 0.254392 0.953341
vt 0.250575 0.952103
vt 0.307247 0.950799
vt 0.311209 0.950554
vt 0.311438 0.954277
vt 0.307543 0.955239
vt 0.312718 0.958500
vt 0.308947 0.960106
vt 0.252644 0.958095
vt 0.248997 0.956225
vt 0.314416 0.961481
vt 0.310998 0.963340
vt 0.250368 0.961174
vt 0.247091 0.959076
vt 0.256404 0.960413
vt 0.253366 0.963861
vt 0.715921 0.338629
vt 0.714417 0.334982
vt 0.714417 0.331038
vt 0.715921 0.327395
vt 0.718701 0.324610
vt 0.722333 0.323106
vt 0.726264 0.323111
vt 0.729896 0.324626
vt 0.732675 0.327420
vt 0.734180 0.331066
vt 0.734180 0.335011
vt 0.732675 0.338653
vt 0.729896 0.341439
vt 0.726264 0.342943
vt 0.722333 0.342937
vt 0.718701 0.341422
vt 0.260282 0.962855
vt 0.256449 0.967197
vt 0.264234 0.965023
vt 0.259991 0.970818
vt 0.261940 0.956507
vt 0.265657 0.957907
vt 0.262910 0.950062
vt 0.266699 0.950418
vt 0.270386 0.950670
vt 0.269390 0.959046
vt 0.268225 0.966747
vt 0.273156 0.959901
vt 0.272244 0.968005
vt 0.274001 0.950858
vt 0.270032 0.941377
vt 0.273833 0.941012
vt 0.266228 0.941849
vt 0.271528 0.896638
vt 0.275340 0.895824
vt 0.267759 0.897695
vt 0.264004 0.898814
vt 0.262408 0.942338
vt 0.279483 0.885971
vt 0.279195 0.895365
vt 0.277637 0.940819
vt 0.283406 0.886000
vt 0.283074 0.895305
vt 0.281448 0.940831
vt 0.278812 0.874909
vt 0.283817 0.874490
vt 0.569863 0.700612
vt 0.566021 0.700725
vt 0.566039 0.686027
vt 0.570338 0.686359
vt 0.569973 0.707753
vt 0.566029 0.707803
vt 0.569946 0.761353
vt 0.566026 0.761375
vt 0.562108 0.761355
vt 0.562083 0.707754
vt 0.558189 0.761298
vt 0.558145 0.707618
vt 0.558338 0.700351
vt 0.562185 0.700607
vt 0.557633 0.687182
vt 0.561740 0.686352
vt 0.288780 0.875265
vt 0.287321 0.886251
vt 0.293339 0.876901
vt 0.291222 0.886879
vt 0.554483 0.700074
vt 0.553785 0.688334
vt 0.297487 0.879077
vt 0.294976 0.887982
vt 0.290751 0.896374
vt 0.286939 0.895642
vt 0.294495 0.897459
vt 0.298625 0.889405
vt 0.298179 0.898781
vt 0.301089 0.881811
vt 0.292795 0.942190
vt 0.289031 0.941555
vt 0.296557 0.942932
vt 0.301845 0.900165
vt 0.300332 0.943693
vt 0.302204 0.891082
vt 0.305826 0.892812
vt 0.305559 0.901414
vt 0.304136 0.944366
vt 0.303217 0.951138
vt 0.299280 0.951361
vt 0.295475 0.951446
vt 0.303635 0.956541
vt 0.299788 0.957859
vt 0.295980 0.958990
vt 0.305031 0.962150
vt 0.300990 0.964309
vt 0.296892 0.966189
vt 0.291779 0.951434
vt 0.292176 0.959860
vt 0.292789 0.967624
vt 0.288161 0.951364
vt 0.288359 0.960444
vt 0.288690 0.968592
vt 0.284569 0.960787
vt 0.284544 0.969044
vt 0.284599 0.951271
vt 0.285250 0.941091
vt 0.281079 0.951155
vt 0.280734 0.960834
vt 0.277561 0.951019
vt 0.276911 0.960514
vt 0.280442 0.969011
vt 0.276348 0.968751
vt 0.280051 0.979937
vt 0.274370 0.979029
vt 0.269005 0.977091
vt 0.264176 0.974254
vt 0.285783 0.979436
vt 0.291272 0.977886
vt 0.296292 0.975401
vt 0.300711 0.972272
vt 0.304502 0.968913
vt 0.307816 0.965806
vt 0.304321 0.884851
vt 0.307447 0.887838
vt 0.542700 0.699506
vt 0.542836 0.692868
vt 0.546661 0.699573
vt 0.546595 0.691378
vt 0.546390 0.707036
vt 0.550302 0.707219
vt 0.550594 0.699783
vt 0.550168 0.689790
vt 0.554219 0.707427
vt 0.554269 0.761213
vt 0.550347 0.761115
vt 0.362017 0.001168
vt 0.438617 0.001168
vt 0.438617 0.199002
vt 0.362017 0.199002
vt 0.070210 0.410188
vt 0.070210 0.387601
vt 0.268044 0.387601
vt 0.268044 0.410188
vt 0.956179 0.278761
vt 0.978766 0.278761
vt 0.978766 0.355361
vt 0.956179 0.355361
vt 0.070209 0.381759
vt 0.070209 0.359173
vt 0.268044 0.359173
vt 0.268044 0.381759
vt 0.207068 0.496495
vt 0.207068 0.442921
vt 0.215247 0.431063
vt 0.215247 0.507659
vt 0.032260 0.492429
vt 0.198948 0.492429
vt 0.207125 0.503597
vt 0.009293 0.503597
vt 0.956179 0.081790
vt 0.978766 0.081790
vt 0.978766 0.158389
vt 0.956179 0.158389
vt 0.806162 0.909968
vt 0.806158 0.963544
vt 0.783191 0.974705
vt 0.783191 0.898112
vt 0.259867 0.426433
vt 0.093179 0.426433
vt 0.070212 0.414571
vt 0.268044 0.414571
vt 0.383789 0.836602
vt 0.217139 0.836621
vt 0.217107 0.824951
vt 0.383790 0.824936
vt 0.820376 0.070325
vt 0.820376 0.123869
vt 0.809505 0.119644
vt 0.809515 0.074564
vt 0.217097 0.815313
vt 0.383790 0.815300
vt 0.802039 0.113538
vt 0.802051 0.080649
vt 0.799322 0.105107
vt 0.799328 0.089070
vt 0.217092 0.806460
vt 0.383788 0.806452
vt 0.200314 0.787303
vt 0.200325 0.832382
vt 0.192861 0.826297
vt 0.192849 0.793408
vt 0.190138 0.817877
vt 0.190132 0.801839
vt 0.217092 0.781568
vt 0.383790 0.781573
vt 0.383790 0.790421
vt 0.217089 0.790421
vt 0.217105 0.771929
vt 0.383788 0.771938
vt 0.211186 0.783078
vt 0.211186 0.836621
vt 0.217137 0.760259
vt 0.383787 0.760272
vt 0.493444 0.687929
vt 0.493444 0.706661
vt 0.486681 0.706661
vt 0.486681 0.687929
vt 0.651162 0.588884
vt 0.651162 0.547616
vt 0.657926 0.547616
vt 0.657926 0.588884
vt 0.251342 0.755396
vt 0.251342 0.714128
vt 0.270074 0.714128
vt 0.270074 0.755396
vt 0.476528 0.641680
vt 0.476528 0.600412
vt 0.483291 0.600412
vt 0.483291 0.641680
vt 0.342506 0.304595
vt 0.342506 0.285863
vt 0.349269 0.285863
vt 0.349269 0.304595
vt 0.044218 0.739151
vt 0.044218 0.697882
vt 0.062950 0.697882
vt 0.062950 0.739151
vt 0.178197 0.926513
vt 0.199002 0.926497
vt 0.199002 0.994946
vt 0.178155 0.995011
vt 0.169194 0.993835
vt 0.160847 0.990391
vt 0.152910 0.984906
vt 0.148198 0.977793
vt 0.144757 0.969517
vt 0.143596 0.960649
vt 0.144791 0.951793
vt 0.148259 0.943551
vt 0.152999 0.936471
vt 0.160925 0.931064
vt 0.169258 0.927667
vt 0.972605 0.564219
vt 0.972993 0.572978
vt 0.955639 0.574006
vt 0.955212 0.564706
vt 0.974705 0.593515
vt 0.957464 0.594976
vt 0.840683 0.069595
vt 0.840683 0.138083
vt 0.823278 0.138083
vt 0.823278 0.069595
vt 0.982094 0.413254
vt 0.982827 0.433904
vt 0.965513 0.434556
vt 0.964694 0.413578
vt 0.067726 0.993841
vt 0.059393 0.990444
vt 0.051467 0.985036
vt 0.046727 0.977956
vt 0.043259 0.969715
vt 0.042064 0.960859
vt 0.043225 0.951990
vt 0.046666 0.943715
vt 0.051379 0.936602
vt 0.059315 0.931116
vt 0.067662 0.927673
vt 0.076623 0.926497
vt 0.097470 0.926562
vt 0.097470 0.995011
vt 0.076665 0.994995
vt 0.964630 0.404374
vt 0.982057 0.404395
vt 0.964779 0.395235
vt 0.982213 0.395503
vt 0.965056 0.385580
vt 0.982458 0.385927
vt 0.965279 0.377086
vt 0.982671 0.377381
vt 0.965377 0.368206
vt 0.982827 0.368357
vt 0.965395 0.359311
vt 0.982772 0.359370
vt 0.974705 0.520234
vt 0.973864 0.529057
vt 0.956460 0.527664
vt 0.957404 0.518695
vt 0.973115 0.537801
vt 0.955822 0.536781
vt 0.972790 0.546103
vt 0.955293 0.545517
vt 0.972535 0.555464
vt 0.955114 0.555409
vt 0.247091 0.711596
vt 0.253784 0.711433
vt 0.253772 0.872590
vt 0.247091 0.872549
vt 0.444615 0.693157
vt 0.441672 0.686876
vt 0.449305 0.681268
vt 0.453267 0.690318
vt 0.441672 0.814920
vt 0.444683 0.808791
vt 0.453655 0.811983
vt 0.449089 0.820875
vt 0.347413 0.711594
vt 0.354094 0.711635
vt 0.354094 0.872588
vt 0.347401 0.872750
vt 0.953354 0.765897
vt 0.958083 0.761168
vt 0.964262 0.758609
vt 0.970950 0.758609
vt 0.977129 0.761168
vt 0.981859 0.765898
vt 0.984418 0.772077
vt 0.984418 0.778765
vt 0.981858 0.784944
vt 0.977129 0.789673
vt 0.970950 0.792232
vt 0.964262 0.792232
vt 0.958083 0.789673
vt 0.953354 0.784943
vt 0.950795 0.778764
vt 0.950795 0.772076
vt 0.260480 0.711338
vt 0.260451 0.872627
vt 0.267177 0.711285
vt 0.267129 0.872661
vt 0.273875 0.711265
vt 0.273807 0.872694
vt 0.280571 0.711267
vt 0.280487 0.872729
vt 0.446049 0.716940
vt 0.445814 0.708437
vt 0.455661 0.708382
vt 0.454536 0.716913
vt 0.445984 0.725462
vt 0.455166 0.725455
vt 0.446123 0.733915
vt 0.455372 0.734077
vt 0.287265 0.711284
vt 0.287168 0.872766
vt 0.446215 0.742429
vt 0.455534 0.742672
vt 0.293957 0.711311
vt 0.293852 0.872804
vt 0.300646 0.711344
vt 0.300539 0.872840
vt 0.307332 0.711380
vt 0.307228 0.872873
vt 0.446075 0.750952
vt 0.455982 0.751239
vt 0.446262 0.759636
vt 0.454711 0.759638
vt 0.446268 0.768218
vt 0.455526 0.768133
vt 0.314016 0.711418
vt 0.313920 0.872900
vt 0.320698 0.711454
vt 0.320614 0.872917
vt 0.446248 0.776621
vt 0.456146 0.776750
vt 0.245024 0.784036
vt 0.190903 0.784283
vt 0.190782 0.773879
vt 0.244894 0.773742
vt 0.190710 0.763443
vt 0.244808 0.763477
vt 0.446504 0.785203
vt 0.455020 0.785227
vt 0.190707 0.752986
vt 0.244786 0.753232
vt 0.190786 0.742522
vt 0.244843 0.742994
vt 0.446425 0.793618
vt 0.455733 0.793838
vt 0.327378 0.711490
vt 0.327310 0.872919
vt 0.334056 0.711523
vt 0.334008 0.872899
vt 0.340734 0.711557
vt 0.340705 0.872846
vt 0.446079 0.801531
vt 0.455463 0.802792
vt 0.190951 0.732067
vt 0.244986 0.732748
vt 0.191199 0.721642
vt 0.245215 0.722478
vt 0.191544 0.711265
vt 0.245520 0.712167
vt 0.418194 0.474653
vt 0.418825 0.482782
vt 0.411794 0.484386
vt 0.410492 0.475054
vt 0.421440 0.490014
vt 0.414978 0.493800
vt 0.421440 0.352135
vt 0.420438 0.359901
vt 0.413220 0.359311
vt 0.414664 0.349668
vt 0.244682 0.877749
vt 0.190707 0.876847
vt 0.191011 0.866536
vt 0.245027 0.867373
vt 0.439279 0.793085
vt 0.440101 0.800397
vt 0.433087 0.801186
vt 0.432207 0.793685
vt 0.438659 0.681268
vt 0.439539 0.688769
vt 0.432467 0.689369
vt 0.431645 0.682057
vt 0.690866 0.252228
vt 0.692874 0.245473
vt 0.712846 0.257004
vt 0.712027 0.260401
vt 0.694862 0.342943
vt 0.691514 0.336598
vt 0.711349 0.325768
vt 0.712846 0.328839
vt 0.923776 0.147058
vt 0.926722 0.148658
vt 0.923859 0.154232
vt 0.920789 0.152708
vt 0.867749 0.148268
vt 0.870748 0.146714
vt 0.873633 0.152435
vt 0.870557 0.153912
vt 0.922094 0.158694
vt 0.918778 0.157747
vt 0.875592 0.157497
vt 0.872265 0.158407
vt 0.875428 0.162271
vt 0.872049 0.162407
vt 0.922268 0.162694
vt 0.918890 0.162520
vt 0.923113 0.171098
vt 0.919763 0.170952
vt 0.874461 0.170696
vt 0.871110 0.170805
vt 0.923240 0.228491
vt 0.919892 0.228426
vt 0.873694 0.228172
vt 0.870345 0.228200
vt 0.878695 0.161782
vt 0.877753 0.170272
vt 0.877020 0.227993
vt 0.877627 0.233951
vt 0.874172 0.233443
vt 0.870784 0.233081
vt 0.877117 0.238597
vt 0.873803 0.237295
vt 0.870497 0.236338
vt 0.919357 0.233691
vt 0.922749 0.233365
vt 0.923000 0.236624
vt 0.919683 0.237546
vt 0.924173 0.240248
vt 0.920979 0.241706
vt 0.872463 0.241442
vt 0.869285 0.239949
vt 0.925683 0.242772
vt 0.922803 0.244427
vt 0.870610 0.244143
vt 0.867749 0.242457
vt 0.875750 0.243359
vt 0.873241 0.246377
vt 0.676364 0.689703
vt 0.677655 0.692820
vt 0.677660 0.696194
vt 0.676378 0.699311
vt 0.674004 0.701697
vt 0.670900 0.702988
vt 0.667538 0.702988
vt 0.664430 0.701697
vt 0.662049 0.699311
vt 0.660758 0.696194
vt 0.660753 0.692820
vt 0.662035 0.689704
vt 0.664409 0.687318
vt 0.667513 0.686027
vt 0.670875 0.686027
vt 0.673983 0.687318
vt 0.879144 0.245399
vt 0.875966 0.249185
vt 0.882601 0.247199
vt 0.879099 0.252234
vt 0.880383 0.239925
vt 0.883624 0.241086
vt 0.881015 0.234374
vt 0.884299 0.234666
vt 0.887495 0.234855
vt 0.886874 0.242011
vt 0.886082 0.248609
vt 0.890145 0.242678
vt 0.889579 0.249608
vt 0.890626 0.234972
vt 0.886910 0.226960
vt 0.890200 0.226653
vt 0.883622 0.227326
vt 0.887333 0.168122
vt 0.890559 0.167553
vt 0.884147 0.168853
vt 0.880970 0.169617
vt 0.880327 0.227692
vt 0.881822 0.161225
vt 0.884872 0.160756
vt 0.878930 0.156205
vt 0.882065 0.154922
vt 0.885023 0.153852
vt 0.876645 0.150557
vt 0.879662 0.148324
vt 0.873696 0.144921
vt 0.876718 0.142833
vt 0.689381 0.330140
vt 0.687924 0.323785
vt 0.709634 0.318421
vt 0.710215 0.322280
vt 0.439996 0.696385
vt 0.432874 0.696648
vt 0.440101 0.703955
vt 0.432975 0.703987
vt 0.687130 0.317535
vt 0.709347 0.314261
vt 0.440038 0.711465
vt 0.432918 0.711383
vt 0.418408 0.457243
vt 0.418182 0.466072
vt 0.410817 0.465955
vt 0.411592 0.457075
vt 0.418723 0.448301
vt 0.410928 0.448266
vt 0.439909 0.718940
vt 0.432794 0.718811
vt 0.439756 0.726400
vt 0.432642 0.726252
vt 0.418852 0.439443
vt 0.411496 0.439383
vt 0.686779 0.311419
vt 0.686675 0.305427
vt 0.709439 0.305105
vt 0.709293 0.309812
vt 0.883662 0.138362
vt 0.887814 0.136486
vt 0.889618 0.142153
vt 0.886091 0.143867
vt 0.879988 0.140571
vt 0.882784 0.145998
vt 0.890961 0.152417
vt 0.887946 0.153018
vt 0.890971 0.160230
vt 0.887913 0.160432
vt 0.894027 0.151964
vt 0.894086 0.160136
vt 0.893831 0.167213
vt 0.897175 0.160105
vt 0.897133 0.167119
vt 0.897228 0.151780
vt 0.896803 0.226390
vt 0.893497 0.226453
vt 0.896756 0.235084
vt 0.893709 0.235048
vt 0.896712 0.243305
vt 0.893403 0.243124
vt 0.896674 0.250278
vt 0.893137 0.250156
vt 0.896623 0.259613
vt 0.891700 0.258976
vt 0.887024 0.257438
vt 0.882789 0.255104
vt 0.900212 0.250195
vt 0.901554 0.259030
vt 0.903776 0.249686
vt 0.906246 0.257542
vt 0.900022 0.243161
vt 0.903284 0.242750
vt 0.899803 0.235081
vt 0.902887 0.235039
vt 0.900109 0.226490
vt 0.903404 0.226726
vt 0.900433 0.167251
vt 0.903701 0.167629
vt 0.900262 0.160172
vt 0.903375 0.160302
vt 0.900424 0.151998
vt 0.903483 0.152489
vt 0.906430 0.160540
vt 0.906920 0.168234
vt 0.906488 0.153128
vt 0.909466 0.160900
vt 0.910097 0.169000
vt 0.909398 0.153996
vt 0.906690 0.227069
vt 0.909975 0.227471
vt 0.913265 0.169800
vt 0.913265 0.227873
vt 0.912510 0.161403
vt 0.915629 0.161995
vt 0.916476 0.170491
vt 0.916569 0.228210
vt 0.915896 0.234160
vt 0.912504 0.234546
vt 0.909217 0.234803
vt 0.916356 0.238811
vt 0.913076 0.240103
vt 0.909822 0.241229
vt 0.917672 0.243588
vt 0.914256 0.245590
vt 0.910780 0.247353
vt 0.906020 0.234957
vt 0.906563 0.242118
vt 0.907283 0.248725
vt 0.910506 0.255255
vt 0.914226 0.252425
vt 0.917393 0.249411
vt 0.920148 0.246632
vt 0.912340 0.155099
vt 0.915457 0.156417
vt 0.917799 0.150790
vt 0.914815 0.148523
vt 0.920873 0.145192
vt 0.917879 0.143029
vt 0.914607 0.140698
vt 0.911732 0.146166
vt 0.910903 0.138436
vt 0.908464 0.144002
vt 0.906698 0.136542
vt 0.904973 0.142241
vt 0.902085 0.135358
vt 0.901194 0.141138
vt 0.897267 0.134782
vt 0.897299 0.140844
vt 0.892421 0.135249
vt 0.893411 0.141126
vt 0.686650 0.299526
vt 0.687645 0.293796
vt 0.709881 0.294955
vt 0.709785 0.300204
vt 0.439594 0.733854
vt 0.439429 0.741305
vt 0.432317 0.741149
vt 0.432481 0.733699
vt 0.419430 0.421762
vt 0.419199 0.430647
vt 0.411895 0.430444
vt 0.412646 0.421606
vt 0.245175 0.794365
vt 0.191051 0.794649
vt 0.419613 0.412872
vt 0.412287 0.412746
vt 0.245323 0.804732
vt 0.191202 0.804978
vt 0.419777 0.404018
vt 0.411955 0.403853
vt 0.245445 0.815136
vt 0.191332 0.815272
vt 0.439265 0.748755
vt 0.439104 0.756202
vt 0.431991 0.756054
vt 0.432152 0.748600
vt 0.688653 0.288159
vt 0.688325 0.282442
vt 0.710596 0.284014
vt 0.710014 0.289473
vt 0.438952 0.763644
vt 0.431837 0.763514
vt 0.689273 0.276761
vt 0.710602 0.278614
vt 0.688926 0.270937
vt 0.711047 0.273321
vt 0.438828 0.771071
vt 0.431708 0.770990
vt 0.420129 0.386242
vt 0.419986 0.395140
vt 0.412663 0.394993
vt 0.413329 0.386154
vt 0.245520 0.836028
vt 0.191440 0.835783
vt 0.191418 0.825537
vt 0.245516 0.825571
vt 0.245441 0.846493
vt 0.191383 0.846021
vt 0.420323 0.377293
vt 0.412529 0.377364
vt 0.420299 0.368434
vt 0.412964 0.368457
vt 0.245275 0.856947
vt 0.191240 0.856266
vt 0.445689 0.700491
vt 0.454909 0.699487
vt 0.438771 0.778467
vt 0.438872 0.785806
vt 0.431750 0.786070
vt 0.431645 0.778499
vt 0.689598 0.258692
vt 0.711630 0.264229
vt 0.688730 0.264915
vt 0.711482 0.268467
s 1
usemtl 222.001
f 1/1/1 2/2/2 8/3/3 5/4/4
f 2/2/2 1/1/1 3/5/5 197/6/6
f 1/7/1 4/8/7 66/9/8 3/10/5
f 4/8/7 1/7/1 5/11/4 7/12/9
f 5/4/4 8/3/3 10/13/10 6/14/11
f 7/12/9 5/11/4 6/15/11 39/16/12
f 8/3/3 9/17/13 12/18/14 10/13/10
f 2/2/2 198/19/15 9/17/13 8/3/3
f 6/14/11 10/13/10 11/20/16 40/21/17
f 10/13/10 12/18/14 14/22/18 11/20/16
f 9/17/13 208/23/19 13/24/20 12/18/14
f 12/18/14 13/24/20 15/25/21 14/22/18
f 13/24/20 17/26/22 16/27/23 15/25/21
f 17/26/22 19/28/24 18/29/25 16/27/23
f 19/28/24 21/30/26 20/31/27 18/29/25
f 21/30/26 23/32/28 22/33/29 20/31/27
f 23/32/28 25/34/30 24/35/31 22/33/29
f 25/34/30 27/36/32 26/37/33 24/35/31
f 27/36/32 29/38/34 28/39/35 26/37/33
f 29/38/34 31/40/36 30/41/37 28/39/35
f 31/40/36 33/42/38 32/43/39 30/41/37
f 33/42/38 35/44/40 34/45/41 32/43/39
f 35/44/40 37/46/42 36/47/43 34/45/41
f 37/46/42 39/16/12 38/48/44 36/47/43
f 39/16/12 6/15/11 40/49/17 38/48/44
f 41/50/45 7/12/9 39/16/12 37/46/42
f 43/51/46 41/50/45 37/46/42 35/44/40
f 44/52/47 42/53/48 41/50/45 43/51/46
f 42/53/48 4/8/7 7/12/9 41/50/45
f 46/54/49 44/52/47 43/51/46 45/55/50
f 45/55/50 43/51/46 35/44/40 33/42/38
f 49/56/51 46/54/49 45/55/50 47/57/52
f 47/57/52 45/55/50 33/42/38 31/40/36
f 48/58/53 47/57/52 31/40/36 29/38/34
f 50/59/54 49/56/51 47/57/52 48/58/53
f 49/56/51 50/59/54 52/60/55 51/61/56
f 46/54/49 49/56/51 51/61/56 53/62/57
f 51/61/56 52/60/55 55/63/58 54/64/59
f 53/62/57 51/61/56 54/64/59 57/65/60
f 54/66/59 55/67/58 115/68/61 56/69/62
f 57/70/60 54/66/59 56/69/62 58/71/63
f 60/72/64 53/62/57 57/65/60 59/73/65
f 59/74/65 57/70/60 58/71/63 61/75/66
f 65/76/67 60/72/64 59/73/65 62/77/68
f 62/78/68 59/74/65 61/75/66 63/79/69
f 64/80/70 62/78/68 63/79/69 67/81/71
f 66/9/8 65/76/67 62/77/68 64/82/72
f 42/53/48 44/52/47 60/72/64 65/76/67
f 4/8/7 42/53/48 65/76/67 66/9/8
f 3/10/5 66/9/8 64/82/72 68/83/73
f 68/84/74 64/80/70 67/81/71 70/85/75
f 197/6/6 3/5/5 68/86/73 69/87/76
f 69/88/77 68/89/74 70/90/75 71/91/78
f 71/91/78 70/90/75 72/92/79 73/93/80
f 70/85/75 67/81/71 75/94/81 72/95/79
f 73/93/80 72/92/79 74/96/82 192/97/83
f 72/95/79 75/94/81 77/98/84 74/99/82
f 67/81/71 63/79/69 76/100/85 75/94/81
f 75/94/81 76/100/85 78/101/86 77/98/84
f 77/98/84 78/101/86 80/102/87 79/103/88
f 74/99/82 77/98/84 79/103/88 82/104/89
f 79/103/88 80/102/87 100/105/90 81/106/91
f 82/104/89 79/103/88 81/106/91 84/107/92
f 83/108/93 82/109/89 84/110/92 85/111/94
f 192/97/83 74/96/82 82/109/89 83/108/93
f 85/111/94 84/110/92 86/112/95 87/113/96
f 84/107/92 81/106/91 89/114/97 86/115/95
f 87/113/96 86/112/95 88/116/98 189/117/99
f 86/115/95 89/114/97 91/118/100 88/119/98
f 81/106/91 100/105/90 90/120/101 89/114/97
f 89/114/97 90/120/101 92/121/102 91/118/100
f 189/122/103 88/123/103 91/124/103 92/125/103 93/126/103 94/127/103 180/128/103 179/129/103 177/130/103 181/131/103 182/132/103 183/133/103 185/134/103 186/135/103 187/136/103 188/137/103
f 90/120/101 95/138/104 93/139/105 92/121/102
f 95/138/104 96/140/106 94/141/107 93/139/105
f 97/142/108 99/143/109 96/140/106 95/138/104
f 100/105/90 97/142/108 95/138/104 90/120/101
f 98/144/110 101/145/111 99/143/109 97/142/108
f 80/102/87 98/144/110 97/142/108 100/105/90
f 101/145/111 105/146/112 102/147/113 99/143/109
f 99/143/109 102/147/113 104/148/114 96/140/106
f 102/147/113 103/149/115 178/150/116 104/148/114
f 105/146/112 106/151/117 103/149/115 102/147/113
f 107/152/118 108/153/119 106/151/117 105/146/112
f 110/154/120 107/152/118 105/146/112 101/145/111
f 109/155/121 114/156/122 108/153/119 107/152/118
f 111/157/123 109/155/121 107/152/118 110/154/120
f 113/158/124 111/157/123 110/154/120 112/159/125
f 112/159/125 110/154/120 101/145/111 98/144/110
f 76/100/85 113/158/124 112/159/125 78/101/86
f 78/101/86 112/159/125 98/144/110 80/102/87
f 61/75/66 58/71/63 111/157/123 113/158/124
f 63/79/69 61/75/66 113/158/124 76/100/85
f 58/71/63 56/69/62 109/155/121 111/157/123
f 56/69/62 115/68/61 114/156/122 109/155/121
f 115/68/61 119/160/126 116/161/127 114/156/122
f 114/156/122 116/161/127 118/162/128 108/153/119
f 119/160/126 120/163/129 117/164/130 116/161/127
f 116/161/127 117/164/130 171/165/131 118/162/128
f 121/166/132 122/167/133 120/163/129 119/160/126
f 55/67/58 121/166/132 119/160/126 115/68/61
f 123/168/134 124/169/135 122/170/133 121/171/132
f 52/60/55 123/168/134 121/171/132 55/63/58
f 125/172/136 126/173/137 124/169/135 123/168/134
f 50/59/54 125/172/136 123/168/134 52/60/55
f 126/173/137 125/172/136 127/174/138 128/175/139
f 125/172/136 50/59/54 48/58/53 127/174/138
f 127/174/138 48/58/53 29/38/34 27/36/32
f 128/175/139 127/174/138 27/36/32 25/34/30
f 129/176/140 128/175/139 25/34/30 23/32/28
f 131/177/141 126/173/137 128/175/139 129/176/140
f 130/178/142 129/176/140 23/32/28 21/30/26
f 132/179/143 131/177/141 129/176/140 130/178/142
f 131/177/141 132/179/143 134/180/144 133/181/145
f 126/173/137 131/177/141 133/181/145 124/169/135
f 133/181/145 134/180/144 137/182/146 135/183/147
f 124/169/135 133/181/145 135/183/147 122/170/133
f 122/167/133 135/184/147 136/185/148 120/163/129
f 135/184/147 137/186/146 139/187/149 136/185/148
f 134/180/144 203/188/150 138/189/151 137/182/146
f 137/186/146 138/190/151 141/191/152 139/187/149
f 136/185/148 139/187/149 140/192/153 191/193/154
f 139/187/149 141/191/152 143/194/155 140/192/153
f 141/191/152 142/195/156 145/196/157 143/194/155
f 138/190/151 204/197/158 142/195/156 141/191/152
f 140/192/153 143/194/155 144/198/159 167/199/160
f 143/194/155 145/196/157 146/200/161 144/198/159
f 145/196/157 147/201/162 150/202/163 146/200/161
f 142/195/156 149/203/164 147/201/162 145/196/157
f 149/203/164 194/204/165 148/205/166 147/201/162
f 147/201/162 148/205/166 151/206/167 150/202/163
f 150/202/163 151/206/167 153/207/168 152/208/169
f 146/200/161 150/202/163 152/208/169 154/209/170
f 152/208/169 153/207/168 156/210/171 155/211/172
f 154/209/170 152/208/169 155/211/172 158/212/173
f 155/211/172 156/210/171 190/213/174 157/214/175
f 158/212/173 155/211/172 157/214/175 159/215/176
f 161/216/177 154/209/170 158/212/173 160/217/178
f 160/217/178 158/212/173 159/215/176 162/218/179
f 166/219/180 161/216/177 160/217/178 163/220/181
f 163/220/181 160/217/178 162/218/179 164/221/182
f 165/222/183 163/220/181 164/221/182 184/223/184
f 168/224/185 166/219/180 163/220/181 165/222/183
f 167/199/160 144/198/159 161/216/177 166/219/180
f 169/225/186 167/199/160 166/219/180 168/224/185
f 171/165/131 169/225/186 168/224/185 170/226/187
f 170/226/187 168/224/185 165/222/183 173/227/188
f 118/162/128 171/165/131 170/226/187 172/228/189
f 172/228/189 170/226/187 173/227/188 175/229/190
f 173/227/188 165/222/183 184/223/184 174/230/191
f 175/229/190 173/227/188 174/230/191 176/231/192
f 106/151/117 172/228/189 175/229/190 103/149/115
f 103/149/115 175/229/190 176/231/192 178/150/116
f 176/231/192 174/230/191 181/232/193 177/233/194
f 178/150/116 176/231/192 177/233/194 179/234/195
f 104/148/114 178/150/116 179/234/195 180/235/196
f 96/140/106 104/148/114 180/235/196 94/141/107
f 174/230/191 184/223/184 182/236/197 181/232/193
f 184/223/184 164/221/182 183/237/198 182/236/197
f 164/221/182 162/218/179 185/238/199 183/237/198
f 162/218/179 159/215/176 186/239/200 185/238/199
f 159/215/176 157/214/175 187/240/201 186/239/200
f 157/214/175 190/213/174 188/241/202 187/240/201
f 190/213/174 87/113/96 189/117/99 188/241/202
f 156/210/171 85/111/94 87/113/96 190/213/174
f 108/153/119 118/162/128 172/228/189 106/151/117
f 117/164/130 191/193/154 169/225/186 171/165/131
f 191/193/154 140/192/153 167/199/160 169/225/186
f 120/163/129 136/185/148 191/193/154 117/164/130
f 144/198/159 146/200/161 154/209/170 161/216/177
f 153/207/168 83/108/93 85/111/94 156/210/171
f 151/206/167 192/97/83 83/108/93 153/207/168
f 148/205/166 73/93/80 192/97/83 151/206/167
f 204/197/158 193/242/203 149/203/164 142/195/156
f 193/242/203 195/243/204 194/204/165 149/203/164
f 194/204/165 71/91/78 73/93/80 148/205/166
f 195/243/204 69/88/77 71/91/78 194/204/165
f 196/244/205 197/6/6 69/87/76 195/245/204
f 199/246/206 196/244/205 195/245/204 193/247/203
f 198/19/15 2/2/2 197/6/6 196/244/205
f 200/248/207 198/19/15 196/244/205 199/246/206
f 202/249/208 200/248/207 199/246/206 201/250/209
f 201/250/209 199/246/206 193/247/203 204/251/158
f 205/252/210 202/249/208 201/250/209 203/188/150
f 203/188/150 201/250/209 204/251/158 138/189/151
f 132/179/143 205/252/210 203/188/150 134/180/144
f 202/249/208 205/252/210 206/253/211 207/254/212
f 205/252/210 132/179/143 130/178/142 206/253/211
f 207/254/212 206/253/211 19/28/24 17/26/22
f 206/253/211 130/178/142 21/30/26 19/28/24
f 200/248/207 202/249/208 207/254/212 208/23/19
f 208/23/19 207/254/212 17/26/22 13/24/20
f 198/19/15 200/248/207 208/23/19 9/17/13
f 44/52/47 46/54/49 53/62/57 60/72/64
f 271/413/242 272/414/243 277/415/243 275/416/242
f 272/417/103 271/418/103 273/419/103 523/420/103
f 271/421/103 274/422/103 318/423/103 273/424/103
f 274/425/244 271/426/242 275/427/242 276/428/244
f 275/429/103 277/430/103 278/431/103 280/432/103 282/433/103 283/434/103 291/435/103 292/436/103 293/437/103 294/438/103 300/439/103 313/440/103 311/441/103 312/442/103 314/443/103 276/444/103
f 272/414/243 279/445/245 278/446/245 277/415/243
f 279/445/245 281/447/246 280/448/246 278/446/245
f 281/447/246 284/449/247 282/450/247 280/448/246
f 284/449/247 286/451/248 283/452/248 282/450/247
f 284/453/103 281/454/103 521/455/103 285/456/103
f 286/457/103 284/453/103 285/456/103 287/458/103
f 288/459/103 286/457/103 287/458/103 289/460/103
f 286/451/248 288/461/249 291/462/249 283/452/248
f 290/463/103 288/459/103 289/460/103 507/464/103
f 288/461/249 290/465/250 292/466/250 291/462/249
f 290/465/250 295/467/251 293/468/251 292/466/250
f 295/467/251 297/469/252 294/470/252 293/468/251
f 295/471/103 290/463/103 507/464/103 296/472/103
f 297/473/103 295/471/103 296/472/103 298/474/103
f 299/475/103 297/473/103 298/474/103 302/476/103
f 297/469/252 299/477/253 300/478/253 294/470/252
f 299/477/253 301/479/254 313/480/254 300/478/253
f 301/481/103 299/475/103 302/476/103 304/482/103
f 298/483/255 503/484/255 303/485/253 302/486/253
f 302/486/253 303/485/253 305/487/256 304/488/256
f 309/489/103 301/481/103 304/482/103 306/490/103
f 304/488/256 305/487/256 307/491/257 306/492/257
f 306/492/257 307/491/257 397/493/258 308/494/258
f 310/495/103 309/489/103 306/490/103 308/496/103
f 301/479/254 309/497/259 311/498/259 313/480/254
f 309/497/259 310/499/258 312/500/258 311/498/259
f 310/499/258 315/501/260 314/502/260 312/500/258
f 315/501/260 274/425/244 276/428/244 314/502/260
f 274/422/103 315/503/103 316/504/103 318/423/103
f 315/503/103 310/495/103 308/496/103 316/504/103
f 308/494/258 397/493/258 317/505/261 316/506/261
f 316/506/261 317/505/261 319/507/244 318/508/262
f 318/508/262 319/507/244 321/509/242 273/510/242
f 392/511/263 320/512/264 319/513/264 317/514/263
f 320/512/264 323/515/216 321/516/216 319/513/264
f 323/517/216 324/518/265 322/519/265 321/520/216
f 273/521/242 321/522/242 322/523/266 523/524/266
f 324/525/267 323/526/268 325/527/269 326/528/267
f 323/529/268 320/530/270 327/531/270 325/532/269
f 326/533/271 325/534/272 328/535/272 329/536/273
f 325/537/272 327/538/274 330/539/274 328/540/272
f 329/541/275 328/542/242 331/543/276 332/544/277
f 328/545/242 330/546/244 333/547/278 331/548/276
f 332/544/277 331/543/276 334/549/279 336/550/280
f 331/548/276 333/547/278 335/551/281 334/552/279
f 334/552/279 335/551/281 339/553/282 337/554/283
f 336/550/280 334/549/279 337/555/283 338/556/284
f 338/556/284 337/555/283 340/557/285 341/558/286
f 337/554/283 339/553/282 343/559/287 340/560/285
f 341/558/286 340/557/285 342/561/288 477/562/289
f 340/560/285 343/559/287 345/563/290 342/564/288
f 339/553/282 385/565/291 344/566/292 343/559/287
f 343/559/287 344/566/292 346/567/293 345/563/290
f 345/563/290 346/567/293 348/568/294 347/569/295
f 342/564/288 345/563/290 347/569/295 350/570/296
f 347/569/295 348/568/294 368/571/297 349/572/298
f 350/570/296 347/569/295 349/572/298 352/573/299
f 351/574/300 350/575/296 352/576/299 353/577/301
f 477/562/289 342/561/288 350/575/296 351/574/300
f 353/577/301 352/576/299 354/578/302 355/579/303
f 352/573/299 349/572/298 357/580/304 354/581/302
f 355/579/303 354/578/302 356/582/305 475/583/306
f 354/581/302 357/580/304 359/584/307 356/585/305
f 349/572/298 368/571/297 358/586/308 357/580/304
f 357/580/304 358/586/308 360/587/309 359/584/307
f 475/588/103 356/589/103 359/590/103 360/591/103 361/592/103 362/593/103 430/594/103 429/595/103 427/596/103 431/597/103 432/598/103 433/599/103 471/600/103 472/601/103 473/602/103 474/603/103
f 358/586/308 363/604/310 361/605/311 360/587/309
f 363/604/310 364/606/312 362/607/313 361/605/311
f 365/608/314 367/609/315 364/606/312 363/604/310
f 368/571/297 365/608/314 363/604/310 358/586/308
f 366/610/316 369/611/317 367/609/315 365/608/314
f 348/568/294 366/610/316 365/608/314 368/571/297
f 369/611/317 373/612/318 370/613/319 367/609/315
f 367/609/315 370/613/319 372/614/320 364/606/312
f 370/613/319 371/615/321 428/616/322 372/614/320
f 373/612/318 374/617/323 371/615/321 370/613/319
f 375/618/324 376/619/325 374/617/323 373/612/318
f 378/620/326 375/618/324 373/612/318 369/611/317
f 377/621/327 413/622/328 376/619/325 375/618/324
f 379/623/329 377/621/327 375/618/324 378/620/326
f 381/624/330 379/623/329 378/620/326 380/625/331
f 380/625/331 378/620/326 369/611/317 366/610/316
f 344/566/292 381/624/330 380/625/331 346/567/293
f 346/567/293 380/625/331 366/610/316 348/568/294
f 382/626/332 384/627/333 379/623/329 381/624/330
f 385/565/291 382/626/332 381/624/330 344/566/292
f 386/628/334 383/629/335 382/626/332 385/565/291
f 383/629/335 411/630/336 384/627/333 382/626/332
f 335/551/281 386/628/334 385/565/291 339/553/282
f 333/547/278 387/631/337 386/628/334 335/551/281
f 387/631/337 388/632/338 383/629/335 386/628/334
f 389/633/339 390/634/340 388/632/338 387/631/337
f 330/546/244 389/633/339 387/631/337 333/547/278
f 391/635/341 393/636/342 390/637/343 389/638/341
f 327/538/274 391/635/341 389/638/341 330/539/274
f 320/530/270 392/639/339 391/640/339 327/531/270
f 392/639/339 395/641/344 393/642/344 391/640/339
f 393/636/342 394/643/345 404/644/345 390/637/343
f 395/641/344 396/645/346 394/646/346 393/642/344
f 396/647/347 395/648/263 397/649/263 307/650/347
f 395/648/263 392/511/263 317/514/263 397/649/263
f 398/651/347 396/647/347 307/650/347 305/652/347
f 396/645/346 398/653/254 400/654/254 394/646/346
f 398/653/254 399/655/253 401/656/253 400/654/254
f 399/657/347 398/651/347 305/652/347 303/658/347
f 400/659/348 401/660/349 403/661/349 402/662/348
f 394/643/345 400/659/348 402/662/348 404/644/345
f 402/663/350 403/664/351 406/665/352 405/666/353
f 404/667/259 402/663/350 405/666/353 407/668/354
f 405/666/353 406/665/352 409/669/355 408/670/356
f 407/668/354 405/666/353 408/670/356 411/630/336
f 408/670/356 409/669/355 412/671/357 410/672/358
f 411/630/336 408/670/356 410/672/358 384/627/333
f 388/632/338 407/668/354 411/630/336 383/629/335
f 410/672/358 412/671/357 413/622/328 377/621/327
f 384/627/333 410/672/358 377/621/327 379/623/329
f 409/669/355 416/673/359 414/674/360 412/671/357
f 412/671/357 414/674/360 417/675/361 413/622/328
f 414/674/360 415/676/362 418/677/363 417/675/361
f 416/673/359 497/678/364 415/676/362 414/674/360
f 417/675/361 418/677/363 420/679/365 419/680/366
f 413/622/328 417/675/361 419/680/366 376/619/325
f 419/680/366 420/679/365 422/681/367 421/682/368
f 376/619/325 419/680/366 421/682/368 374/617/323
f 421/682/368 422/681/367 424/683/369 423/684/370
f 374/617/323 421/682/368 423/684/370 371/615/321
f 423/684/370 424/683/369 426/685/371 425/686/372
f 371/615/321 423/684/370 425/686/372 428/616/322
f 425/686/372 426/685/371 431/687/373 427/688/374
f 428/616/322 425/686/372 427/688/374 429/689/375
f 372/614/320 428/616/322 429/689/375 430/690/376
f 364/606/312 372/614/320 430/690/376 362/607/313
f 426/685/371 434/691/377 432/692/378 431/687/373
f 434/691/377 435/693/379 433/694/380 432/692/378
f 436/695/381 437/696/382 435/693/379 434/691/377
f 424/683/369 436/695/381 434/691/377 426/685/371
f 438/697/383 439/698/384 437/696/382 436/695/381
f 422/681/367 438/697/383 436/695/381 424/683/369
f 440/699/385 441/700/386 439/698/384 438/697/383
f 420/679/365 440/699/385 438/697/383 422/681/367
f 442/701/387 443/702/388 441/700/386 440/699/385
f 418/677/363 442/701/387 440/699/385 420/679/365
f 444/703/389 446/704/390 443/702/388 442/701/387
f 415/676/362 444/703/389 442/701/387 418/677/363
f 497/678/364 445/705/391 444/703/389 415/676/362
f 445/705/391 447/706/392 446/704/390 444/703/389
f 446/704/390 448/707/393 451/708/394 443/702/388
f 447/706/392 450/709/395 448/707/393 446/704/390
f 448/707/393 449/710/396 453/711/397 451/708/394
f 450/709/395 488/712/398 449/710/396 448/707/393
f 443/702/388 451/708/394 452/713/399 441/700/386
f 451/708/394 453/711/397 454/714/400 452/713/399
f 453/711/397 455/715/401 458/716/402 454/714/400
f 449/710/396 457/717/403 455/715/401 453/711/397
f 457/717/403 479/718/404 456/719/405 455/715/401
f 455/715/401 456/719/405 459/720/406 458/716/402
f 458/716/402 459/720/406 461/721/407 460/722/408
f 454/714/400 458/716/402 460/722/408 462/723/409
f 460/722/408 461/721/407 464/724/410 463/725/411
f 462/723/409 460/722/408 463/725/411 466/726/412
f 463/725/411 464/724/410 476/727/413 465/728/414
f 466/726/412 463/725/411 465/728/414 467/729/415
f 469/730/416 462/723/409 466/726/412 468/731/417
f 468/731/417 466/726/412 467/729/415 470/732/418
f 439/698/384 469/730/416 468/731/417 437/696/382
f 437/696/382 468/731/417 470/732/418 435/693/379
f 435/693/379 470/732/418 471/733/419 433/694/380
f 470/732/418 467/729/415 472/734/420 471/733/419
f 467/729/415 465/728/414 473/735/421 472/734/420
f 465/728/414 476/727/413 474/736/422 473/735/421
f 476/727/413 355/579/303 475/583/306 474/736/422
f 464/724/410 353/577/301 355/579/303 476/727/413
f 452/713/399 454/714/400 462/723/409 469/730/416
f 441/700/386 452/713/399 469/730/416 439/698/384
f 461/721/407 351/574/300 353/577/301 464/724/410
f 459/720/406 477/562/289 351/574/300 461/721/407
f 456/719/405 341/558/286 477/562/289 459/720/406
f 488/712/398 478/737/423 457/717/403 449/710/396
f 478/737/423 480/738/424 479/718/404 457/717/403
f 479/718/404 338/556/284 341/558/286 456/719/405
f 480/738/424 336/550/280 338/556/284 479/718/404
f 481/739/425 332/544/277 336/550/280 480/738/424
f 483/740/426 481/739/425 480/738/424 478/737/423
f 482/741/427 329/541/275 332/544/277 481/739/425
f 484/742/428 482/741/427 481/739/425 483/740/426
f 486/743/247 484/742/428 483/740/426 485/744/429
f 485/744/429 483/740/426 478/737/423 488/712/398
f 489/745/430 486/743/247 485/744/429 487/746/431
f 487/746/431 485/744/429 488/712/398 450/709/395
f 491/747/432 489/745/430 487/746/431 490/748/433
f 490/748/433 487/746/431 450/709/395 447/706/392
f 493/749/434 491/747/432 490/748/433 492/750/435
f 492/750/435 490/748/433 447/706/392 445/705/391
f 495/751/436 493/749/434 492/750/435 494/752/437
f 494/752/437 492/750/435 445/705/391 497/678/364
f 498/753/252 495/751/436 494/752/437 496/754/438
f 496/754/438 494/752/437 497/678/364 416/673/359
f 403/664/351 498/753/252 496/754/438 406/665/352
f 406/665/352 496/754/438 416/673/359 409/669/355
f 499/755/439 500/756/440 495/757/440 498/758/439
f 401/660/349 499/755/439 498/758/439 403/661/349
f 501/759/441 502/760/442 500/761/442 499/762/441
f 399/655/253 501/759/441 499/762/441 401/656/253
f 502/763/216 501/764/216 503/765/216 504/766/216
f 501/764/216 399/657/347 303/658/347 503/765/216
f 296/767/251 504/768/251 503/484/255 298/483/255
f 508/769/443 502/763/216 504/766/216 505/770/443
f 507/771/434 505/772/434 504/768/251 296/767/251
f 509/773/443 508/769/443 505/770/443 506/774/443
f 289/775/444 506/776/444 505/772/434 507/771/434
f 508/777/445 509/778/444 511/779/444 510/780/445
f 502/760/442 508/777/445 510/780/445 500/761/442
f 510/781/446 511/782/447 491/783/447 493/784/448
f 500/756/440 510/781/446 493/784/448 495/757/440
f 509/778/444 514/785/430 512/786/430 511/779/444
f 511/782/447 512/787/449 489/788/450 491/783/447
f 512/787/449 513/789/451 486/790/451 489/788/450
f 514/785/430 515/791/452 513/792/247 512/786/430
f 515/793/347 514/794/453 516/795/453 517/796/347
f 514/794/453 509/773/443 506/774/443 516/795/453
f 285/797/452 517/798/452 516/799/430 287/800/430
f 287/800/430 516/799/430 506/776/444 289/775/444
f 521/801/454 518/802/454 517/798/452 285/797/452
f 519/803/216 515/793/347 517/796/347 518/804/216
f 524/805/347 519/803/216 518/804/216 520/806/347
f 522/807/427 520/808/427 518/802/454 521/801/454
f 281/454/103 279/809/103 522/810/103 521/455/103
f 279/809/103 272/417/103 523/420/103 522/810/103
f 523/524/266 322/523/266 520/808/427 522/807/427
f 324/518/265 524/805/347 520/806/347 322/519/265
f 519/811/428 524/812/245 525/813/245 526/814/428
f 524/812/245 324/525/267 326/528/267 525/813/245
f 525/815/455 326/533/271 329/536/273 482/816/455
f 526/817/456 525/815/455 482/816/455 484/818/456
f 515/791/452 519/811/428 526/814/428 513/792/247
f 513/789/451 526/817/456 484/818/456 486/790/451
f 390/634/340 404/667/259 407/668/354 388/632/338
usemtl 333.001
f 210/255/103 213/256/103 212/257/103 209/258/103
f 209/259/213 211/260/213 218/261/213 210/262/213
f 212/263/214 214/264/214 211/265/214 209/266/214
f 213/267/215 216/268/215 214/269/215 212/270/215
f 215/271/216 220/272/216 211/273/216 214/274/216
f 217/275/216 215/276/216 214/277/216 216/278/216
f 210/279/217 218/280/217 216/281/217 213/282/217
f 219/283/216 217/284/216 216/285/216 218/286/216
f 220/287/216 219/288/216 218/289/216 211/290/216
f 219/291/218 220/292/218 222/293/219 221/294/219
f 217/295/214 219/296/214 221/297/214 223/298/214
f 221/294/219 222/293/219 227/299/220 224/300/220
f 223/298/214 221/297/214 224/301/214 225/302/214
f 225/302/214 224/301/214 226/303/214 232/304/214
f 224/300/220 227/299/220 228/305/221 226/306/221
f 222/307/217 231/308/217 229/309/217 227/310/217
f 227/310/217 229/309/217 230/311/217 228/312/217
f 229/313/222 225/314/222 232/315/223 230/316/223
f 231/317/224 223/318/224 225/314/222 229/313/222
f 220/319/217 215/320/217 231/308/217 222/307/217
f 215/321/225 217/322/225 223/318/224 231/317/224
f 232/315/223 226/306/221 228/305/221 230/316/223
f 234/323/103 237/324/103 236/325/103 233/326/103
f 233/327/226 235/328/226 240/329/226 234/330/226
f 236/331/227 238/332/227 235/333/227 233/334/227
f 237/335/228 239/336/228 238/337/228 236/338/228
f 239/339/216 240/340/216 235/341/216 238/342/216
f 234/343/229 240/344/229 239/345/229 237/346/229
f 247/347/217 246/348/217 244/349/217 241/350/217 242/351/217 268/352/217 266/353/217 264/354/217 262/355/217 260/356/217 258/357/217 256/358/217 254/359/217 253/360/217 252/361/217
f 242/362/230 241/363/231 243/364/231 270/365/230
f 241/363/231 244/366/213 245/367/213 243/364/231
f 244/368/103 246/369/103 248/370/103 245/371/103
f 249/372/232 248/373/215 246/374/215 247/375/232
f 250/376/214 251/377/214 255/378/214 257/379/214 259/380/214 261/381/214 263/382/214 265/383/214 267/384/214 269/385/214 270/386/214 243/387/214 245/388/214 248/389/214 249/390/214
f 247/375/232 252/391/233 250/392/233 249/372/232
f 252/391/233 253/393/234 251/394/234 250/392/233
f 253/393/234 254/395/235 255/396/235 251/394/234
f 254/395/235 256/397/236 257/398/236 255/396/235
f 256/397/236 258/399/237 259/400/237 257/398/236
f 258/399/237 260/401/216 261/402/216 259/400/237
f 260/403/216 262/404/238 263/405/238 261/406/216
f 262/404/238 264/407/239 265/408/239 263/405/238
f 264/407/239 266/409/240 267/410/240 265/408/239
f 266/409/240 268/411/241 269/412/241 267/410/240
f 268/411/241 242/362/230 270/365/230 269/412/241
