# Blender 4.4.3
# www.blender.org
mtllib 游创.mtl
o 11.131
v 0.040719 -0.016871 -0.090886
v 0.040719 0.016871 -0.090886
v 0.062855 -0.016871 -0.077251
v 0.062855 0.016871 -0.077251
v 0.080707 -0.016871 -0.058350
v 0.080707 0.016871 -0.058350
v 0.093059 -0.016871 -0.035474
v 0.093059 0.016871 -0.035474
v 0.099069 -0.016871 -0.010180
v 0.099069 0.016871 -0.010180
v 0.098329 -0.016871 0.015808
v 0.098329 0.016871 0.015808
v 0.090887 -0.016871 0.040719
v 0.090887 0.016871 0.040719
v 0.077251 -0.016871 0.062855
v 0.077251 0.016871 0.062855
v 0.058351 -0.016871 0.080707
v 0.058351 0.016871 0.080707
v 0.035474 -0.016871 0.093059
v 0.035474 0.016871 0.093059
v 0.010180 -0.016871 0.099069
v 0.010180 0.016871 0.099069
v -0.015808 -0.016871 0.098328
v -0.015808 0.016871 0.098328
v -0.040719 -0.016871 0.090886
v -0.040719 0.016871 0.090886
v -0.062854 -0.016871 0.077251
v -0.062854 0.016871 0.077251
v -0.080707 -0.016871 0.058351
v -0.080707 0.016871 0.058351
v -0.093059 -0.016871 0.035474
v -0.093059 0.016871 0.035474
v -0.099069 -0.016871 0.010180
v -0.099069 0.016871 0.010180
v -0.098328 -0.016871 -0.015808
v -0.098328 0.016871 -0.015808
v -0.090886 -0.016871 -0.040719
v -0.090886 0.016871 -0.040719
v -0.077250 -0.016871 -0.062854
v -0.077250 0.016871 -0.062854
v -0.058350 -0.016871 -0.080707
v -0.058350 0.016871 -0.080707
v -0.035474 -0.016871 -0.093059
v -0.035474 0.016871 -0.093059
v -0.010179 -0.016871 -0.099069
v -0.010179 0.016871 -0.099069
v 0.015808 -0.016871 -0.098328
v 0.015808 0.016871 -0.098328
vn 0.3002 -0.6789 -0.6701
vn 0.3002 0.6789 -0.6701
vn 0.4634 0.6789 -0.5695
vn 0.4634 -0.6789 -0.5695
vn 0.5950 0.6789 -0.4302
vn 0.5950 -0.6789 -0.4302
vn 0.6861 0.6789 -0.2615
vn 0.6861 -0.6789 -0.2615
vn 0.7304 0.6789 -0.0751
vn 0.7304 -0.6789 -0.0751
vn 0.7249 0.6789 0.1165
vn 0.7249 -0.6789 0.1165
vn 0.6701 0.6789 0.3002
vn 0.6701 -0.6789 0.3002
vn 0.5695 0.6789 0.4634
vn 0.5695 -0.6789 0.4634
vn 0.4302 0.6789 0.5950
vn 0.4302 -0.6789 0.5950
vn 0.2615 0.6789 0.6861
vn 0.2615 -0.6789 0.6861
vn 0.0751 0.6789 0.7304
vn 0.0751 -0.6789 0.7304
vn -0.1165 0.6789 0.7249
vn -0.1165 -0.6789 0.7249
vn -0.3002 0.6789 0.6701
vn -0.3002 -0.6789 0.6701
vn -0.4634 0.6789 0.5695
vn -0.4634 -0.6789 0.5695
vn -0.5950 0.6789 0.4302
vn -0.5950 -0.6789 0.4302
vn -0.6861 0.6789 0.2615
vn -0.6861 -0.6789 0.2615
vn -0.7304 0.6789 0.0751
vn -0.7304 -0.6789 0.0751
vn -0.7249 0.6789 -0.1165
vn -0.7249 -0.6789 -0.1165
vn -0.6701 0.6789 -0.3002
vn -0.6701 -0.6789 -0.3002
vn -0.5695 0.6789 -0.4634
vn -0.5695 -0.6789 -0.4634
vn -0.4302 0.6789 -0.5950
vn -0.4302 -0.6789 -0.5950
vn -0.2615 0.6789 -0.6861
vn -0.2615 -0.6789 -0.6861
vn -0.0751 0.6789 -0.7304
vn -0.0751 -0.6789 -0.7304
vn 0.1165 0.6789 -0.7249
vn 0.1165 -0.6789 -0.7249
vt 0.638298 0.251000
vt 0.620310 0.251365
vt 0.619962 0.237571
vt 0.637940 0.237103
vt 0.619569 0.223751
vt 0.637541 0.223234
vt 0.619156 0.209918
vt 0.637126 0.209380
vt 0.618735 0.196079
vt 0.636703 0.195531
vt 0.618310 0.182238
vt 0.636277 0.181686
vt 0.617883 0.168395
vt 0.635850 0.167842
vt 0.617456 0.154551
vt 0.635424 0.153999
vt 0.617031 0.140706
vt 0.634999 0.140158
vt 0.616608 0.126857
vt 0.634577 0.126319
vt 0.616193 0.113003
vt 0.634165 0.112486
vt 0.615794 0.099134
vt 0.633772 0.098666
vt 0.615435 0.085237
vt 0.633423 0.084872
vt 0.615168 0.071283
vt 0.633169 0.071128
vt 0.615097 0.057231
vt 0.633108 0.057472
vt 0.615418 0.043038
vt 0.633406 0.043945
vt 0.616424 0.028725
vt 0.634302 0.030568
vt 0.618384 0.014494
vt 0.636045 0.017285
vt 0.621110 0.000689
vt 0.638637 0.003893
vt 0.632624 0.335548
vt 0.615097 0.332344
vt 0.617689 0.318952
vt 0.635350 0.321743
vt 0.619431 0.305669
vt 0.637309 0.307512
vt 0.620328 0.292292
vt 0.638315 0.293199
vt 0.620625 0.278765
vt 0.638637 0.279006
vt 0.714896 0.877417
vt 0.718481 0.890796
vt 0.718481 0.904647
vt 0.714896 0.918026
vt 0.707971 0.930022
vt 0.698176 0.939816
vt 0.686181 0.946742
vt 0.672802 0.950327
vt 0.658951 0.950327
vt 0.645571 0.946742
vt 0.633576 0.939816
vt 0.623782 0.930022
vt 0.616856 0.918026
vt 0.613271 0.904647
vt 0.613271 0.890796
vt 0.616856 0.877417
vt 0.623782 0.865421
vt 0.633576 0.855627
vt 0.645571 0.848701
vt 0.658951 0.845117
vt 0.672802 0.845117
vt 0.686181 0.848702
vt 0.698176 0.855627
vt 0.707971 0.865421
vt 0.620564 0.265109
vt 0.638566 0.264954
vt 0.712968 0.238031
vt 0.724964 0.244956
vt 0.734758 0.254750
vt 0.741684 0.266746
vt 0.745269 0.280125
vt 0.745269 0.293976
vt 0.741684 0.307355
vt 0.734758 0.319351
vt 0.724964 0.329145
vt 0.712968 0.336071
vt 0.699589 0.339656
vt 0.685738 0.339656
vt 0.672359 0.336071
vt 0.660363 0.329145
vt 0.650569 0.319351
vt 0.643644 0.307355
vt 0.640059 0.293976
vt 0.640059 0.280125
vt 0.643644 0.266746
vt 0.650569 0.254750
vt 0.660363 0.244956
vt 0.672359 0.238031
vt 0.685738 0.234446
vt 0.699589 0.234446
s 1
usemtl 111
f 1/1/1 2/2/2 4/3/3 3/4/4
f 3/4/4 4/3/3 6/5/5 5/6/6
f 5/6/6 6/5/5 8/7/7 7/8/8
f 7/8/8 8/7/7 10/9/9 9/10/10
f 9/10/10 10/9/9 12/11/11 11/12/12
f 11/12/12 12/11/11 14/13/13 13/14/14
f 13/14/14 14/13/13 16/15/15 15/16/16
f 15/16/16 16/15/15 18/17/17 17/18/18
f 17/18/18 18/17/17 20/19/19 19/20/20
f 19/20/20 20/19/19 22/21/21 21/22/22
f 21/22/22 22/21/21 24/23/23 23/24/24
f 23/24/24 24/23/23 26/25/25 25/26/26
f 25/26/26 26/25/25 28/27/27 27/28/28
f 27/28/28 28/27/27 30/29/29 29/30/30
f 29/30/30 30/29/29 32/31/31 31/32/32
f 31/32/32 32/31/31 34/33/33 33/34/34
f 33/34/34 34/33/33 36/35/35 35/36/36
f 35/36/36 36/35/35 38/37/37 37/38/38
f 37/39/38 38/40/37 40/41/39 39/42/40
f 39/42/40 40/41/39 42/43/41 41/44/42
f 41/44/42 42/43/41 44/45/43 43/46/44
f 43/46/44 44/45/43 46/47/45 45/48/46
f 4/49/3 2/50/2 48/51/47 46/52/45 44/53/43 42/54/41 40/55/39 38/56/37 36/57/35 34/58/33 32/59/31 30/60/29 28/61/27 26/62/25 24/63/23 22/64/21 20/65/19 18/66/17 16/67/15 14/68/13 12/69/11 10/70/9 8/71/7 6/72/5
f 45/48/46 46/47/45 48/73/47 47/74/48
f 47/74/48 48/73/47 2/2/2 1/1/1
f 1/75/1 3/76/4 5/77/6 7/78/8 9/79/10 11/80/12 13/81/14 15/82/16 17/83/18 19/84/20 21/85/22 23/86/24 25/87/26 27/88/28 29/89/30 31/90/32 33/91/34 35/92/36 37/93/38 39/94/40 41/95/42 43/96/44 45/97/46 47/98/48
