# Blender 5.1.1
# www.blender.org
mtllib FLOOR.mtl
o Cube.063
v 5.454299 -1.494223 -4.225344
v 5.454299 -1.126688 -4.225344
v 5.454299 -0.510852 -10.730489
v 5.454299 1.013154 -10.730489
v 8.955652 -1.494223 -4.225344
v 8.955652 -1.126688 -4.225344
v 8.955652 -0.510852 -10.730489
v 8.955652 1.013154 -10.730489
v 5.454299 -0.510852 -13.877121
v 5.454299 1.013154 -13.877121
v 8.955652 -0.510852 -13.877121
v 8.955652 1.013154 -13.877121
v 12.917261 -0.510852 -9.783941
v 12.917261 1.013154 -9.783941
v 12.917261 -0.510852 -13.877121
v 12.917261 1.013154 -13.877121
v 9.234881 -0.510852 -13.877121
v 9.234881 -0.510852 -9.783941
v 9.234881 1.013154 -9.783941
v 9.234881 1.013154 -13.877121
v 5.454299 -0.524333 -8.512247
v 5.454299 1.013154 -8.512247
v 8.955652 -0.524333 -8.512247
v 8.955652 1.013154 -8.512247
v 12.917261 2.196249 -5.610845
v 9.234881 2.196249 -5.610845
v 9.234881 3.550366 -5.610845
v 12.917261 3.550366 -5.610845
vn -1.0000 -0.0000 -0.0000
vn -0.0000 -1.0000 -0.0000
vn 1.0000 -0.0000 -0.0000
vn -0.0000 -0.0000 1.0000
vn -0.0000 -0.9753 -0.2207
vn -0.0000 0.8947 0.4466
vn -0.0000 -0.0000 -1.0000
vn -0.0000 1.0000 -0.0000
vn -0.9591 -0.0000 0.2829
vn -0.0000 -1.0000 -0.0061
vn -0.0000 0.8545 -0.5195
vn -0.0000 -0.8389 0.5442
vt 0.375000 0.125000
vt 0.625000 0.125000
vt 0.625000 0.250000
vt 0.375000 0.250000
vt 0.375000 0.500000
vt 0.375000 0.625000
vt 0.625000 0.625000
vt 0.625000 0.750000
vt 0.375000 0.750000
vt 0.625000 1.000000
vt 0.375000 1.000000
vt 0.125000 0.625000
vt 0.125000 0.750000
vt 0.875000 0.625000
vt 0.875000 0.750000
vt 0.625000 0.500000
vt 0.125000 0.500000
vt 0.875000 0.500000
vt 0.375000 0.000000
vt 0.625000 0.000000
s 0
f 21/1/1 22/2/1 4/3/1 3/4/1
f 18/5/2 17/5/2 15/5/2 13/5/2
f 23/6/3 24/7/3 6/8/3 5/9/3
f 5/9/4 6/8/4 2/10/4 1/11/4
f 21/12/5 23/6/5 5/9/5 1/13/5
f 24/7/6 22/14/6 2/15/6 6/8/6
f 9/4/7 10/3/7 12/16/7 11/5/7
f 7/5/2 3/17/2 9/17/2 11/5/2
f 4/18/8 8/16/8 12/16/8 10/18/8
f 3/4/1 4/3/1 10/3/1 9/4/1
f 14/16/3 13/5/3 15/5/3 16/16/3
f 20/16/8 19/16/8 14/16/8 16/16/8
f 17/5/7 20/16/7 16/16/7 15/5/7
f 11/5/7 12/16/7 20/16/7 17/5/7
f 12/16/8 8/16/8 19/16/8 20/16/8
f 8/16/9 7/5/9 18/5/9 19/16/9
f 7/5/2 11/5/2 17/5/2 18/5/2
f 8/16/8 4/18/8 22/14/8 24/7/8
f 3/17/10 7/5/10 23/6/10 21/12/10
f 7/5/3 8/16/3 24/7/3 23/6/3
f 1/19/1 2/20/1 22/2/1 21/1/1
f 13/5/3 14/16/3 28/16/3 25/5/3
f 14/16/11 19/16/11 27/16/11 28/16/11
f 19/16/1 18/5/1 26/5/1 27/16/1
f 18/5/12 13/5/12 25/5/12 26/5/12
f 28/16/4 27/16/4 26/5/4 25/5/4
