# Blender 3.4.0
# www.blender.org
mtllib kapai_low3.mtl
o 2_low
v 0.000420 0.205073 0.073449
v 0.000420 0.489617 0.074531
v 0.000420 0.205073 -0.129294
v 0.000420 0.489617 -0.129294
v 0.000420 0.212530 0.077661
v 0.000420 0.483795 0.077661
v 0.006377 0.205073 0.073449
v 0.006377 0.489617 0.074531
v 0.006377 0.205073 -0.129294
v 0.006377 0.489617 -0.129294
v 0.006377 0.212530 0.077661
v 0.006377 0.483795 0.077661
v 0.006377 0.129576 0.132807
v 0.006377 0.540591 0.134258
v 0.006377 0.130636 -0.129294
v 0.006377 0.540591 -0.129294
v 0.006377 0.131296 0.135375
v 0.006377 0.539114 0.135375
v -0.020155 0.129576 0.132807
v -0.020155 0.540591 0.134258
v -0.020155 0.130636 -0.129294
v -0.020155 0.540591 -0.129294
v -0.020155 0.131296 0.135375
v -0.020155 0.539114 0.135375
v -0.025677 0.238662 0.136826
v -0.025677 0.543471 0.136826
v -0.025677 0.497899 0.030544
v -0.025677 0.547382 0.030544
v -0.025677 0.547382 0.125561
v -0.025677 0.497151 0.056538
v -0.025677 0.467802 0.061006
v -0.025677 0.430611 0.063167
v -0.025677 0.238662 0.081312
v -0.025677 0.410634 0.096153
v -0.025677 0.343966 0.070389
v -0.008414 0.238662 0.136826
v -0.008414 0.543471 0.136826
v -0.008414 0.497899 0.030544
v -0.008414 0.547382 0.030544
v -0.008414 0.547382 0.125561
v -0.008414 0.497151 0.056538
v -0.008414 0.467802 0.061006
v -0.008414 0.430611 0.063167
v -0.008414 0.238662 0.081312
v -0.008414 0.410634 0.096153
v -0.008414 0.343966 0.070389
v -0.026233 0.367676 -0.107249
v -0.026233 0.225076 0.024015
v -0.026233 0.367676 -0.136061
v -0.026233 0.201408 -0.136061
v -0.026233 0.408301 -0.073717
v -0.026233 0.363924 -0.031914
v -0.026233 0.424613 0.079629
v -0.026233 0.414274 0.096279
v -0.026233 0.142791 0.136227
v -0.026233 0.128300 0.136860
v -0.026233 0.178999 -0.151532
v -0.026233 0.154006 -0.144204
v -0.026233 0.128300 -0.087738
v -0.026233 0.123835 -0.144523
v -0.026233 0.123835 -0.097467
v -0.005929 0.367676 -0.107249
v -0.005929 0.225076 0.024015
v -0.005929 0.367676 -0.136061
v -0.005929 0.201408 -0.136061
v -0.005929 0.408301 -0.073717
v -0.005929 0.363924 -0.031914
v -0.005929 0.424613 0.079629
v -0.005929 0.414274 0.096279
v -0.005929 0.142791 0.136227
v -0.005929 0.128300 0.136860
v -0.005929 0.178999 -0.151532
v -0.005929 0.154006 -0.144204
v -0.005929 0.128300 -0.087738
v -0.005929 0.123835 -0.144523
v -0.005929 0.123835 -0.097467
v -0.026233 0.193983 -0.144468
v -0.005929 0.193983 -0.144468
v -0.026233 0.166276 -0.149934
v -0.005929 0.166276 -0.149934
v -0.013248 0.178899 0.156725
v -0.013248 0.534640 0.156725
v -0.013248 0.178899 0.126680
v -0.013248 0.534640 0.126680
v -0.003174 0.178899 0.156725
v -0.003174 0.534640 0.156725
v -0.003174 0.178899 0.126680
v -0.003174 0.534640 0.126680
v -0.022549 0.250399 0.138340
v -0.022549 0.125570 0.138937
v -0.022549 0.270331 0.060528
v -0.022549 0.125570 0.023830
v -0.022549 0.202614 0.034468
v -0.008013 0.250399 0.138340
v -0.008013 0.125570 0.138937
v -0.008013 0.270331 0.060528
v -0.008013 0.125570 0.023830
v -0.008013 0.202614 0.034468
v -0.002037 0.318180 -0.132444
v -0.002037 0.326559 -0.112575
v -0.002037 0.330105 -0.066514
v -0.002037 0.316623 -0.020453
v -0.002037 0.292778 0.015787
v -0.002037 0.255328 0.043131
v -0.002037 0.213962 0.062294
v -0.002037 0.162343 0.060030
v -0.002037 0.131293 0.042355
v -0.002037 0.131293 -0.132444
v 0.014299 0.221007 -0.111484
v 0.014299 0.222011 -0.108509
v 0.014299 0.223379 -0.090996
v 0.014299 0.218569 -0.075319
v 0.014299 0.210151 -0.063927
v 0.014299 0.194687 -0.053526
v 0.014299 0.180635 -0.048712
v 0.014299 0.162152 -0.048979
v 0.014299 0.154508 -0.051622
v 0.014299 0.154508 -0.111484
v 0.008010 0.131293 0.036328
v 0.008010 0.163271 0.051365
v 0.008010 0.251447 0.037078
v 0.008010 0.287891 0.010680
v 0.008010 0.322348 -0.066240
v 0.008010 0.319374 -0.110090
v 0.008057 0.313189 -0.132444
v 0.008010 0.131293 -0.132444
v 0.008010 0.214118 0.052682
v 0.008010 0.309897 -0.021990
v 0.012126 0.305677 -0.132444
v 0.012126 0.312430 -0.111062
v 0.012126 0.315667 -0.066800
v 0.012126 0.303945 -0.025985
v 0.012126 0.282952 0.004368
v 0.012126 0.246218 0.030766
v 0.012126 0.211496 0.043474
v 0.012126 0.166586 0.042782
v 0.012126 0.131293 0.031434
v 0.012126 0.131293 -0.132444
v 0.014299 0.304411 -0.111499
v 0.014299 0.298043 -0.132444
v 0.014299 0.307522 -0.069030
v 0.014299 0.296264 -0.029900
v 0.014299 0.276114 -0.000818
v 0.014299 0.240805 0.024508
v 0.014299 0.207469 0.036687
v 0.014299 0.164330 0.036024
v 0.014299 0.131293 0.025259
v 0.014299 0.131293 -0.132444
v 0.009259 0.547142 0.131721
v 0.009259 0.301836 0.136174
v 0.009259 0.547142 0.036658
v 0.009259 0.502692 0.060971
v 0.009259 0.524149 0.039782
v 0.009259 0.543402 0.136174
v 0.009259 0.538245 0.033527
v 0.009259 0.510011 0.080442
v 0.009259 0.308594 0.111001
v 0.009259 0.301836 0.117638
v 0.009259 0.487233 0.111001
v 0.009259 0.502529 0.101926
v -0.008164 0.547142 0.131721
v -0.008164 0.301836 0.136174
v -0.008164 0.547142 0.036658
v -0.008164 0.502692 0.060971
v -0.008164 0.524149 0.039782
v -0.008164 0.543402 0.136174
v -0.008164 0.538245 0.033527
v -0.008164 0.510011 0.080442
v -0.008164 0.308594 0.111001
v -0.008164 0.301836 0.117638
v -0.008164 0.487233 0.111001
v -0.008164 0.502529 0.101926
v 0.009259 0.504055 0.056753
v -0.008164 0.504055 0.056753
v 0.009259 0.545745 0.135218
v -0.008164 0.545745 0.135218
v 0.007747 0.538433 -0.016610
v 0.007747 0.545198 -0.014431
v 0.007747 0.420623 -0.136511
v 0.007747 0.545198 -0.137152
v 0.007747 0.521835 -0.048809
v 0.007747 0.502007 -0.033232
v 0.007747 0.492229 -0.040929
v 0.007747 0.493112 -0.036392
v 0.007747 0.510680 -0.096103
v 0.007747 0.413948 -0.124138
v 0.007747 0.410928 -0.128339
v -0.006982 0.538433 -0.016610
v -0.006982 0.545198 -0.014431
v -0.006982 0.420623 -0.136511
v -0.006982 0.545198 -0.137152
v -0.006982 0.521835 -0.048809
v -0.006982 0.502007 -0.033232
v -0.006982 0.492229 -0.040929
v -0.006982 0.493112 -0.036392
v -0.006982 0.510680 -0.096103
v -0.006982 0.413948 -0.124138
v -0.006982 0.410928 -0.128339
v 0.007747 0.413780 -0.135839
v -0.006982 0.413780 -0.135839
v 0.007747 0.541788 -0.014953
v -0.006982 0.541788 -0.014953
v 0.009259 0.507633 0.091997
v -0.008164 0.507633 0.091997
v 0.009259 0.495551 0.107588
v -0.008164 0.495551 0.107588
v 0.009259 0.304351 0.113663
v -0.008164 0.304351 0.113663
v 0.007747 0.497167 -0.033379
v -0.006982 0.497167 -0.033379
v 0.007747 0.410604 -0.132239
v -0.006982 0.410604 -0.132239
v 0.009259 0.546734 0.133765
v -0.008164 0.546734 0.133765
v 0.009089 0.124169 0.137968
v 0.009089 0.250283 0.137968
v 0.009089 0.248814 0.123623
v 0.009089 0.253486 0.131699
v 0.009089 0.184091 0.109968
v 0.009089 0.216660 0.113332
v 0.009089 0.148647 0.098829
v 0.009089 0.124169 0.098389
v -0.006378 0.124169 0.137969
v -0.006378 0.250283 0.137969
v -0.006378 0.248814 0.123623
v -0.006378 0.253486 0.131699
v -0.006378 0.184091 0.109968
v -0.006378 0.216660 0.113332
v -0.006378 0.148647 0.098829
v -0.006378 0.124169 0.098389
v 0.009089 0.252446 0.127280
v -0.006378 0.252446 0.127280
v -0.021862 0.433330 -0.053747
v -0.021862 0.545135 -0.137963
v -0.021862 0.367058 -0.137963
v -0.021862 0.367179 -0.106647
v -0.021862 0.386613 0.021398
v -0.021862 0.400647 0.044025
v -0.021862 0.475287 0.006195
v -0.021862 0.527927 0.123719
v -0.021862 0.545135 0.123437
v -0.009937 0.433330 -0.053747
v -0.009937 0.545135 -0.137963
v -0.009937 0.367058 -0.137963
v -0.009937 0.367179 -0.106647
v -0.009937 0.386613 0.021398
v -0.009937 0.400647 0.044025
v -0.009937 0.475287 0.006195
v -0.009937 0.527927 0.123719
v -0.009937 0.545135 0.123437
v 0.016463 0.234728 -0.078557
v 0.016463 0.324496 -0.129440
v 0.016463 0.127909 -0.087119
v 0.016463 0.322986 -0.136166
v 0.016463 0.257344 -0.000329
v 0.016463 0.265752 -0.006362
v 0.016463 0.205431 -0.035523
v 0.016463 0.141394 0.055823
v 0.016463 0.127275 0.050096
v 0.016463 0.201554 -0.136294
v 0.016463 0.193316 -0.145412
v 0.016463 0.169355 -0.150962
v 0.016463 0.153991 -0.144172
v 0.016463 0.123751 -0.144172
v 0.016463 0.123751 -0.096827
v 0.016463 0.181613 -0.150735
v -0.005191 0.234728 -0.078557
v -0.005190 0.324496 -0.129440
v -0.005191 0.127909 -0.087119
v -0.005190 0.322986 -0.136166
v -0.005191 0.257344 -0.000329
v -0.005191 0.265752 -0.006362
v -0.005191 0.205431 -0.035523
v -0.005191 0.141394 0.055823
v -0.005191 0.127275 0.050096
v -0.005190 0.201554 -0.136294
v -0.005190 0.193316 -0.145412
v -0.005190 0.169355 -0.150962
v -0.005190 0.153991 -0.144172
v -0.005190 0.123751 -0.144172
v -0.005191 0.123751 -0.096827
v -0.005190 0.181613 -0.150735
v 0.016463 0.261656 -0.000287
v -0.005191 0.261656 -0.000287
v 0.016463 0.135650 0.055977
v -0.005191 0.135650 0.055977
v 0.016463 0.324925 -0.134655
v -0.005190 0.324925 -0.134655
v 0.016463 0.130109 0.053818
v -0.005191 0.130109 0.053818
v 0.016463 0.264604 -0.002921
v -0.005191 0.264604 -0.002921
v 0.016463 0.325734 -0.132039
v -0.005190 0.325734 -0.132039
v 0.009089 0.252757 0.135524
v -0.006378 0.252757 0.135524
vn 1.0000 -0.0000 -0.0000
vn -0.0000 0.2543 -0.9671
vn -0.0000 0.8637 -0.5041
vn -0.0000 -1.0000 -0.0000
vn -0.0000 -0.8583 -0.5131
vn -0.0000 1.0000 -0.0000
vn -0.0000 -0.2442 -0.9697
vn -0.0000 -1.0000 -0.0040
vn -0.0000 -0.8309 0.5565
vn -0.0000 0.6032 0.7976
vn -0.0000 -0.0000 1.0000
vn -1.0000 -0.0000 -0.0000
vn -0.0000 -0.0000 -1.0000
vn -0.0000 0.3605 -0.9328
vn -0.0000 -0.0580 -0.9983
vn -0.0000 0.9447 0.3280
vn -0.0000 -0.1032 -0.9947
vn -0.0000 -0.9996 -0.0288
vn -0.0000 -0.8554 -0.5180
vn -0.0000 -0.1505 -0.9886
vn -0.0000 0.8064 0.5913
vn -0.0000 -0.3568 0.9342
vn -0.0000 0.0436 0.9990
vn -0.0000 0.6004 -0.7997
vn -0.0000 0.7495 -0.6620
vn -0.0000 -0.2772 -0.9608
vn -0.0000 0.1571 -0.9876
vn -0.0000 0.0106 -0.9999
vn -0.0000 0.6366 -0.7712
vn -0.0000 0.6857 0.7279
vn -0.0000 0.8784 -0.4779
vn -0.0000 -0.9089 0.4171
vn -0.0000 0.8495 0.5275
vn -0.0000 -0.4231 -0.9061
vn -0.0000 0.0048 1.0000
vn -0.0000 0.1368 -0.9906
vn -0.0000 0.3592 -0.9333
vn -0.0000 0.9687 0.2481
vn 0.7573 -0.1706 0.6304
vn 0.7511 -0.2751 0.6001
vn 0.9075 -0.1417 0.3954
vn 0.9189 -0.0665 0.3889
vn 0.7374 0.4862 0.4689
vn 0.7624 0.3218 0.5615
vn 0.9341 0.1694 0.3144
vn 0.9292 0.2685 0.2540
vn 0.7216 0.6807 -0.1265
vn 0.7295 0.6799 0.0749
vn 0.9158 0.3992 0.0438
vn 0.9146 0.3973 -0.0757
vn 0.5187 0.4644 -0.7179
vn 0.6428 0.2535 -0.7229
vn 0.7857 0.1278 0.6053
vn 0.9341 0.0639 0.3513
vn 0.7256 0.6207 0.2971
vn 0.9214 0.3538 0.1610
vn 0.3933 0.6079 -0.6897
vn 0.5637 0.8076 -0.1731
vn 0.5718 0.7481 0.3367
vn 0.5713 0.5915 0.5690
vn 0.6589 0.1303 0.7409
vn 0.6308 -0.1936 0.7514
vn 0.5966 0.7989 0.0762
vn 0.5999 0.4018 0.6919
vn 0.5568 -0.3827 0.7373
vn 0.9892 0.1437 -0.0301
vn 0.7197 0.0803 -0.6896
vn 0.9899 0.1412 0.0116
vn 0.9907 0.1228 0.0577
vn 0.9904 0.0970 0.0984
vn 0.9897 0.0642 0.1279
vn 0.9867 0.0192 0.1612
vn 0.9829 -0.0390 0.1798
vn 0.9896 -0.0442 0.1366
vn -0.0000 -0.7058 -0.7085
vn -0.0000 -0.2765 -0.9610
vn -0.0000 0.1925 0.9813
vn -0.0000 -0.9969 0.0782
vn -0.0000 -0.9997 0.0238
vn -0.0000 -0.9605 -0.2783
vn -0.0000 -0.0396 -0.9992
vn -0.0000 0.3320 -0.9433
vn -0.0000 -0.8304 -0.5572
vn -0.0000 -0.5308 -0.8475
vn -0.0000 -0.5103 -0.8600
vn -0.0000 -0.7763 -0.6303
vn -0.0000 0.6290 0.7774
vn -0.0000 -0.9431 -0.3324
vn -0.0000 0.9952 0.0984
vn -0.0000 0.9221 0.3870
vn -0.0000 -0.1935 -0.9811
vn -0.0000 0.3124 0.9499
vn -0.0000 0.6178 0.7864
vn -0.0000 -0.3006 0.9537
vn -0.0000 -0.1513 0.9885
vn -0.0000 -0.5768 0.8169
vn -0.0000 -0.2784 0.9605
vn -0.0000 -0.3285 0.9445
vn -0.0000 -0.9383 0.3458
vn -0.0000 -0.9484 -0.3172
vn -0.0000 -0.9979 -0.0652
vn -0.0000 -0.0051 -1.0000
vn -0.0000 -0.0515 -0.9987
vn -0.0000 -0.9492 -0.3146
vn -0.0000 -0.8889 0.4582
vn -0.0000 -0.7010 0.7132
vn -0.0000 -0.8462 0.5329
vn -0.0000 -0.4555 -0.8903
vn -0.0000 0.1605 -0.9870
vn -0.0000 0.0180 -0.9998
vn -0.0000 0.5221 -0.8529
vn -0.0000 0.2049 -0.9788
vn -0.0000 0.8744 -0.4852
vn 0.0001 -0.0000 1.0000
vn -0.0000 0.2023 -0.9793
vn -0.0000 0.8824 0.4705
vn -0.0000 0.9998 -0.0214
vn -0.0000 0.4521 0.8920
vn -0.0000 -0.9126 0.4088
vn -0.0000 -0.6245 0.7810
vn -0.0000 -0.8493 -0.5280
vn -0.0000 0.0164 0.9999
vn -0.0000 -0.8498 0.5271
vn -0.0000 -1.0000 0.0039
vn -0.0000 0.4733 0.8809
vn -0.0000 0.8188 0.5740
vn -0.0000 -0.1715 0.9852
vn -0.0000 0.9991 -0.0419
vn -0.0000 0.9188 -0.3948
vn -0.0000 0.5903 -0.8072
vn -0.0000 0.2209 -0.9753
vn -0.0000 -1.0000 -0.0046
vn -0.0000 -0.9483 0.3175
vn -0.0000 0.4931 0.8700
vn -0.0000 0.7318 0.6815
vn -0.0000 0.3255 -0.9456
vn -0.0000 0.0011 -1.0000
vn -0.0000 0.8229 -0.5682
vn -0.0000 0.7420 -0.6704
vn -0.0000 -0.9192 0.3937
vn -0.0000 -0.1975 -0.9803
vn -0.0000 -0.5611 0.8277
vn -0.0000 -0.2982 0.9545
vn -0.0000 -0.4042 -0.9147
vn -0.0000 0.8355 0.5495
vn -0.0000 0.3520 0.9360
vn -0.0000 -0.6018 0.7986
vn -0.0000 0.9974 0.0722
vn -0.0000 0.7028 0.7113
vt 0.632337 0.286675
vt 0.030490 0.334532
vt 0.079137 0.258993
vt 0.631502 0.550360
vt 0.066425 0.258993
vt 0.030489 0.069083
vt 0.820144 0.286760
vt 0.079137 0.071214
vt 0.049964 0.374032
vt 0.820144 0.550152
vt 0.066425 0.070213
vt 0.178680 0.146436
vt 0.628375 0.293582
vt 0.030251 0.326520
vt 0.628552 0.544969
vt 0.030317 0.075269
vt 0.035971 0.334361
vt 0.073619 0.258993
vt 0.410452 0.441509
vt 0.071942 0.258993
vt 0.035971 0.069221
vt 0.530604 0.179972
vt 0.073619 0.071214
vt 0.053790 0.378121
vt 0.241472 0.534496
vt 0.071942 0.070213
vt 0.184350 0.146981
vt 0.543423 -0.000000
vt 0.035770 0.326511
vt 0.425249 0.427003
vt 0.035835 0.075279
vt 0.521833 0.202505
vt 0.759599 0.000049
vt 0.272496 0.492394
vt 0.467360 0.499888
vt 0.460535 0.159548
vt 0.755396 0.000505
vt 0.584612 0.209167
vt 0.759599 0.242806
vt 0.016252 0.438153
vt 0.280398 0.587019
vt 0.755396 0.244604
vt 0.204459 0.101644
vt 0.587020 0.012036
vt 0.273896 0.489900
vt 0.468136 0.497949
vt 0.459680 0.161035
vt 0.583150 0.209606
vt 0.784173 0.000049
vt 0.293865 0.504473
vt 0.038547 0.412244
vt 0.481912 0.171625
vt 0.730822 0.000505
vt 0.227059 0.076195
vt 0.784173 0.242806
vt 0.250889 0.527769
vt -0.000000 0.422585
vt 0.730822 0.244604
vt 0.437125 0.198743
vt 0.183702 0.097406
vt 0.295291 0.501988
vt 0.038680 0.407137
vt 0.481076 0.173122
vt 0.223948 0.079560
vt 0.569178 0.616454
vt 0.000198 0.384892
vt 0.250065 0.086331
vt 0.524782 0.358886
vt 0.509210 0.089773
vt 0.532374 0.086331
vt 0.617806 0.340859
vt 0.028975 0.467626
vt 0.419263 0.161167
vt 0.587672 0.310760
vt 0.028975 0.421795
vt 0.509190 0.188849
vt 0.529093 0.351985
vt 0.509158 0.100838
vt 0.602930 0.362711
vt 0.419263 0.185252
vt 0.145889 0.071082
vt 0.608309 0.396556
vt 0.145863 0.098593
vt 0.612036 0.435051
vt 0.145884 0.133094
vt 0.192644 0.507449
vt 0.616309 0.618705
vt 0.000198 0.333476
vt 0.507194 0.140157
vt 0.584646 0.464019
vt 0.342907 0.140152
vt 0.192644 0.543165
vt 0.617806 0.522218
vt 0.409130 0.140288
vt 0.306202 0.593458
vt 0.016187 0.384892
vt 0.250065 0.070342
vt 0.048634 0.549062
vt 0.525180 0.089820
vt 0.532374 0.070342
vt 0.030607 0.642086
vt 0.044964 0.467626
vt 0.435252 0.161167
vt 0.000509 0.611953
vt 0.044964 0.421795
vt 0.525180 0.188840
vt 0.041734 0.553374
vt 0.525148 0.100845
vt 0.052460 0.627210
vt 0.435252 0.185252
vt 0.161871 0.071104
vt 0.086305 0.632589
vt 0.161857 0.098585
vt 0.124799 0.636316
vt 0.161871 0.133093
vt 0.208633 0.507449
vt 0.308453 0.640590
vt 0.016187 0.333476
vt 0.507169 0.124168
vt 0.153767 0.608926
vt 0.342955 0.124168
vt 0.208633 0.543165
vt 0.211966 0.642086
vt 0.409126 0.124298
vt 0.721038 0.747138
vt 0.330116 0.444537
vt 0.535971 0.001572
vt 0.577644 0.639656
vt 0.528777 0.398101
vt 0.188849 0.495584
vt 0.723845 0.773668
vt 0.330116 0.471223
vt 0.514389 0.000980
vt 0.569990 0.789810
vt 0.351744 0.405989
vt 0.360393 0.000980
vt 0.755396 0.712525
vt 0.535971 0.050360
vt 0.488390 0.215827
vt 0.710643 0.678026
vt 0.488390 0.159362
vt 0.786951 0.244604
vt 0.755396 0.569111
vt 0.786951 0.126993
vt 0.489042 0.045944
vt 0.744175 0.554947
vt 0.001270 0.495584
vt 0.507194 0.045944
vt 0.491459 0.543818
vt 0.528777 0.526978
vt 0.403832 0.159253
vt 0.478101 0.544621
vt 0.417266 0.159253
vt 0.726619 0.000886
vt 0.549598 0.805755
vt 0.350966 0.432079
vt 0.525855 0.800687
vt 0.063929 0.439680
vt 0.351813 0.456835
vt 0.498748 0.750720
vt 0.725597 0.208881
vt 0.497521 0.802224
vt 0.063929 0.467626
vt 0.726619 0.262095
vt 0.495152 0.759577
vt 0.725620 0.218652
vt 0.172530 0.808289
vt 0.348921 0.444537
vt 0.517167 0.001572
vt 0.315924 0.700807
vt 0.509972 0.398101
vt 0.188849 0.514389
vt 0.169724 0.834819
vt 0.348921 0.471223
vt 0.514388 0.019784
vt 0.323578 0.850961
vt 0.370504 0.406685
vt 0.360393 0.019784
vt 0.138172 0.773676
vt 0.517167 0.050360
vt 0.507194 0.215827
vt 0.182925 0.739177
vt 0.507194 0.159362
vt 0.805755 0.244604
vt 0.138172 0.630262
vt 0.805755 0.126993
vt 0.489042 0.064748
vt 0.149393 0.616098
vt 0.001270 0.514389
vt 0.507194 0.064748
vt 0.402109 0.604969
vt 0.509972 0.526978
vt 0.403832 0.178058
vt 0.415468 0.605772
vt 0.417266 0.178058
vt 0.707814 0.000785
vt 0.343970 0.866906
vt 0.369759 0.432045
vt 0.367713 0.861838
vt 0.082734 0.439680
vt 0.370504 0.456112
vt 0.394821 0.811871
vt 0.706787 0.208824
vt 0.396047 0.863375
vt 0.082734 0.467626
vt 0.707853 0.262590
vt 0.398416 0.820728
vt 0.706817 0.218890
vt 0.563308 0.798198
vt 0.351186 0.416460
vt 0.330260 0.859349
vt 0.370086 0.416969
vt 0.537659 0.805106
vt 0.351189 0.444190
vt 0.355909 0.866257
vt 0.369942 0.443698
vt 0.358813 0.027878
vt 0.029332 0.049460
vt 0.026978 0.335482
vt 0.029331 0.027878
vt 0.358813 0.049460
vt 0.199303 0.071093
vt 0.358813 0.000050
vt 0.029331 0.029339
vt 0.026978 0.363309
vt 0.029331 0.000050
vt 0.358813 0.029339
vt 0.199303 0.098921
vt 0.029332 0.040130
vt 0.017648 0.335482
vt 0.027878 0.330036
vt 0.358813 0.040130
vt 0.208633 0.071093
vt 0.027878 0.000554
vt 0.029331 0.038669
vt 0.000050 0.330036
vt 0.017649 0.363309
vt 0.358813 0.038669
vt 0.208633 0.098921
vt 0.000050 0.000554
vt 0.466753 0.705036
vt 0.485612 0.267986
vt 0.161687 0.956646
vt 0.466753 0.589420
vt 0.439775 0.356115
vt 0.276978 0.956834
vt 0.115108 0.212220
vt 0.485612 0.193591
vt 0.142724 0.884904
vt 0.115108 0.072989
vt 0.439775 0.249505
vt 0.276978 0.850420
vt 0.115088 0.145024
vt 0.205445 0.860110
vt 0.927868 0.379313
vt 0.480216 0.705036
vt 0.472149 0.267986
vt 0.928057 0.494604
vt 0.480216 0.589420
vt 0.453237 0.356115
vt 0.856127 0.360350
vt 0.101646 0.212230
vt 0.472149 0.193591
vt 0.821643 0.494604
vt 0.101646 0.072988
vt 0.453237 0.249505
vt 0.831332 0.423071
vt 0.101624 0.145020
vt 0.828693 0.194099
vt 0.978417 0.180058
vt 0.098921 0.237410
vt 0.820463 0.212229
vt 0.959353 0.187583
vt 0.815934 0.255291
vt 0.915191 0.192446
vt 0.827830 0.298465
vt 0.869649 0.181141
vt 0.849701 0.332553
vt 0.833399 0.158250
vt 0.884435 0.358391
vt 0.805690 0.122312
vt 0.923697 0.375899
vt 0.787641 0.081390
vt 0.971693 0.373378
vt 0.789077 0.031835
vt 1.000000 0.356874
vt 0.156475 0.489209
vt 0.803451 0.001033
vt 1.000000 0.196673
vt 0.000158 0.489209
vt 0.098921 0.070795
vt 0.954064 0.083985
vt 0.951326 0.084997
vt 0.935128 0.086778
vt 0.920496 0.082787
vt 0.909769 0.075312
vt 0.899894 0.061227
vt 0.895247 0.048309
vt 0.895258 0.031179
vt 0.897592 0.024035
vt 0.952606 0.022883
vt 0.151117 0.480219
vt 0.814143 0.003093
vt 0.801244 0.033351
vt 0.815520 0.116195
vt 0.841305 0.150009
vt 0.914835 0.180660
vt 0.955875 0.176485
vt 0.976452 0.169772
vt 0.089918 0.232992
vt 0.000128 0.480223
vt 0.089963 0.070766
vt 0.800584 0.080970
vt 0.872724 0.170223
vt 0.975683 0.161310
vt 0.085260 0.226292
vt 0.956161 0.168394
vt 0.915211 0.172780
vt 0.876861 0.163089
vt 0.848032 0.144250
vt 0.822582 0.110547
vt 0.810349 0.078316
vt 0.810491 0.036556
vt 0.820759 0.003747
vt 0.146738 0.475505
vt 0.085263 0.070764
vt 0.000126 0.475509
vt 0.956158 0.160734
vt 0.082021 0.219470
vt 0.975276 0.154029
vt 0.916969 0.164944
vt 0.880335 0.155641
vt 0.852837 0.137613
vt 0.828552 0.105321
vt 0.816862 0.074515
vt 0.817023 0.034525
vt 0.141200 0.472369
vt 0.826774 0.003866
vt 0.082025 0.070776
vt 0.000096 0.472393
vt 0.971465 0.001033
vt 0.117356 0.069206
vt 0.411188 0.713223
vt 0.347122 0.066477
vt 0.589616 0.000511
vt 0.462489 0.505181
vt 0.588240 0.300034
vt 0.029230 0.066459
vt 0.463287 0.766187
vt 0.589999 0.249229
vt 0.482812 0.727478
vt 0.589642 0.277409
vt 0.477834 0.753776
vt 0.123356 0.069237
vt 0.409534 0.709222
vt 0.588994 0.291416
vt 0.470613 0.765088
vt 0.589775 0.230041
vt 0.466083 0.714383
vt 0.588240 0.026955
vt 0.483813 0.514273
vt 0.588364 0.017874
vt 0.478414 0.507177
vt 0.589247 0.192471
vt 0.445526 0.668383
vt 0.589460 0.208981
vt 0.451597 0.690311
vt 0.632411 0.054548
vt 0.117678 0.053054
vt 0.683712 0.262590
vt 0.346897 0.050343
vt 0.605625 0.001551
vt 0.684510 0.001584
vt 0.604236 0.301259
vt 0.029793 0.050343
vt 0.704035 0.040293
vt 0.606111 0.249176
vt 0.699057 0.013995
vt 0.605864 0.277934
vt 0.630757 0.058549
vt 0.123229 0.053102
vt 0.691837 0.002683
vt 0.605045 0.292473
vt 0.687307 0.053388
vt 0.605919 0.229837
vt 0.705036 0.253498
vt 0.604363 0.026950
vt 0.699637 0.260594
vt 0.604616 0.018457
vt 0.666750 0.099388
vt 0.605385 0.192327
vt 0.672820 0.077461
vt 0.605604 0.208760
vt 0.590034 0.253290
vt 0.483813 0.731411
vt 0.705036 0.036360
vt 0.606115 0.253327
vt 0.120335 0.069245
vt 0.409403 0.711575
vt 0.630626 0.056196
vt 0.120435 0.053097
vt 0.375051 0.156427
vt 0.413510 0.558102
vt 0.368363 0.155993
vt 0.117653 0.187050
vt 0.412920 0.552443
vt 0.064522 0.185743
vt 0.311386 0.683726
vt 0.117653 0.073388
vt 0.064748 0.070351
vt 0.310859 0.576039
vt 0.408698 0.157768
vt 0.390573 0.580433
vt 0.432197 0.158245
vt 0.410796 0.590247
vt 0.446071 0.158156
vt 0.409000 0.602137
vt 0.439391 0.158273
vt 0.413439 0.596811
vt 0.064748 0.298499
vt 0.500000 0.156006
vt 0.351313 0.603422
vt 0.064421 0.205240
vt 0.321520 0.692113
vt 0.064436 0.199072
vt 0.314911 0.694245
vt 0.701175 0.782241
vt 0.375707 0.142776
vt 0.706835 0.782831
vt 0.369099 0.142390
vt 0.131295 0.187050
vt 0.575551 0.884365
vt 0.050879 0.185704
vt 0.683238 0.884892
vt 0.131295 0.073388
vt 0.051107 0.070333
vt 0.678845 0.805178
vt 0.409111 0.144133
vt 0.669030 0.784955
vt 0.432312 0.144607
vt 0.657141 0.786751
vt 0.445659 0.144525
vt 0.662466 0.782312
vt 0.439258 0.144629
vt 0.655855 0.844438
vt 0.051109 0.298561
vt 0.499412 0.142390
vt 0.567165 0.874231
vt 0.050776 0.205263
vt 0.565033 0.880840
vt 0.050801 0.199040
vt 0.064469 0.193562
vt 0.310859 0.690696
vt 0.568582 0.884892
vt 0.050835 0.193508
vt 0.371563 0.156220
vt 0.413669 0.554957
vt 0.704320 0.782082
vt 0.372275 0.142591
vt 0.589617 0.219511
vt 0.458840 0.702347
vt 0.680063 0.065424
vt 0.605762 0.219298
vt 0.589353 0.200726
vt 0.448562 0.679347
vt 0.669785 0.088424
vt 0.605494 0.200544
vt 0.588302 0.022414
vt 0.481113 0.510725
vt 0.702336 0.257046
vt 0.604489 0.022704
vt 0.435794 0.158259
vt 0.412118 0.593529
vt 0.665748 0.783633
vt 0.435785 0.144618
vt 0.064452 0.196317
vt 0.312885 0.692470
vt 0.566807 0.882866
vt 0.050818 0.196274
vt 0.118845 0.069225
vt 0.410295 0.712399
vt 0.631519 0.055372
vt 0.119056 0.053076
vt 0.687113 0.174460
vt 0.046825 0.427371
vt 0.420863 0.423249
vt 0.687113 0.057656
vt 0.351356 0.051671
vt 0.420863 0.307504
vt 0.366722 0.052203
vt 0.407845 0.308199
vt 0.357052 0.051958
vt 0.416555 0.304331
vt 0.428153 0.051569
vt 0.394671 0.368201
vt 0.397840 0.052096
vt 0.397950 0.338022
vt 0.462764 0.051419
vt 0.384507 0.401523
vt 0.485612 0.052298
vt 0.046825 0.464029
vt 0.385023 0.424460
vt 0.632709 0.245192
vt 0.701439 0.174460
vt 0.061151 0.427371
vt 0.632709 0.129447
vt 0.701439 0.057656
vt 0.350786 0.065940
vt 0.645728 0.130142
vt 0.366595 0.066547
vt 0.637018 0.126273
vt 0.356569 0.066278
vt 0.658902 0.190144
vt 0.428345 0.065868
vt 0.655623 0.159965
vt 0.398017 0.066404
vt 0.669065 0.223466
vt 0.462559 0.065796
vt 0.668549 0.246403
vt 0.485038 0.066547
vt 0.061151 0.464029
vt 0.362040 0.052103
vt 0.411523 0.304953
vt 0.642049 0.126896
vt 0.361725 0.066488
vt 0.768274 0.729793
vt 0.372049 0.449640
vt 0.132841 0.072725
vt 0.874101 0.802872
vt 0.474820 0.111258
vt 0.037517 0.312950
vt 0.716895 0.814748
vt 0.309887 0.111258
vt 0.165215 0.071715
vt 0.712466 0.787853
vt 0.372049 0.371190
vt 0.165215 0.100719
vt 0.725413 0.659642
vt 0.132841 0.154676
vt 0.179603 0.070663
vt 0.737786 0.638457
vt 0.467626 0.298561
vt 0.179603 0.095324
vt 0.807842 0.672478
vt 0.467626 0.221058
vt 0.424207 0.278212
vt 0.859114 0.566257
vt 0.424207 0.397482
vt 0.077338 0.276978
vt 0.874101 0.568302
vt 0.077338 0.261039
vt 0.037517 0.070845
vt 0.106063 0.792743
vt 0.383094 0.449640
vt 0.143885 0.072724
vt 0.000236 0.865822
vt 0.474820 0.122302
vt 0.048561 0.312950
vt 0.157441 0.877698
vt 0.309887 0.122302
vt 0.176259 0.071716
vt 0.161871 0.850802
vt 0.383094 0.371190
vt 0.176259 0.100719
vt 0.148923 0.722592
vt 0.143885 0.154676
vt 0.190648 0.070663
vt 0.136550 0.701406
vt 0.456582 0.298561
vt 0.190648 0.095324
vt 0.066495 0.735428
vt 0.456582 0.221058
vt 0.435252 0.278212
vt 0.015222 0.629206
vt 0.435252 0.397482
vt 0.066294 0.276978
vt 0.000236 0.631252
vt 0.066294 0.261039
vt 0.048561 0.070845
vt 0.361829 0.042925
vt 0.288369 0.089662
vt 0.492572 0.831056
vt 0.383968 0.089444
vt 0.442860 0.749153
vt 0.608564 0.260326
vt 0.483926 0.929239
vt 0.391134 0.089475
vt 0.436766 0.750866
vt 0.445452 0.043165
vt 0.565634 0.810750
vt 0.434589 0.043087
vt 0.560052 0.802967
vt 0.605418 0.015845
vt 0.503597 0.042916
vt 0.532960 0.858811
vt 0.609237 0.119002
vt 0.615108 0.922793
vt 0.609448 0.133398
vt 0.608832 0.935252
vt 0.503597 0.089658
vt 0.487087 0.505396
vt 0.438883 0.862646
vt 0.487004 0.493981
vt 0.430385 0.870434
vt 0.487128 0.470745
vt 0.425263 0.892722
vt 0.487004 0.455250
vt 0.021583 0.439619
vt 0.431528 0.906945
vt 0.605418 0.313318
vt 0.021583 0.467626
vt 0.432821 0.935252
vt 0.608220 0.269815
vt 0.475546 0.933433
vt 0.487064 0.482053
vt 0.425463 0.881353
vt 0.866145 0.838250
vt 0.361853 0.022875
vt 0.288435 0.109712
vt 0.915857 0.756348
vt 0.383974 0.109504
vt 0.874790 0.936434
vt 0.628610 0.260642
vt 0.921951 0.758060
vt 0.391099 0.109531
vt 0.793082 0.817944
vt 0.445448 0.023102
vt 0.798664 0.810161
vt 0.434650 0.023026
vt 0.825757 0.866005
vt 0.625447 0.015051
vt 0.503478 0.022875
vt 0.743609 0.929987
vt 0.629294 0.118394
vt 0.749885 0.942446
vt 0.629496 0.133398
vt 0.919834 0.869840
vt 0.503573 0.109712
vt 0.507103 0.505333
vt 0.928331 0.877629
vt 0.507068 0.493985
vt 0.933453 0.899916
vt 0.507194 0.470696
vt 0.927189 0.914139
vt 0.507007 0.455077
vt 0.001528 0.439619
vt 0.925895 0.942446
vt 0.625361 0.314748
vt 0.001528 0.467626
vt 0.883170 0.940628
vt 0.628345 0.270734
vt 0.933254 0.888547
vt 0.507150 0.482098
vt 0.440002 0.043136
vt 0.564883 0.805376
vt 0.793834 0.812571
vt 0.440048 0.023063
vt 0.609424 0.125664
vt 0.613996 0.929529
vt 0.744721 0.936723
vt 0.629406 0.125347
vt 0.387612 0.089455
vt 0.439261 0.748499
vt 0.919455 0.755693
vt 0.387595 0.109518
vt 0.609436 0.129531
vt 0.611414 0.932390
vt 0.747303 0.939585
vt 0.629451 0.129372
vt 0.437295 0.043111
vt 0.562467 0.804171
vt 0.796249 0.811366
vt 0.437349 0.023044
vt 0.385790 0.089449
vt 0.441061 0.748826
vt 0.917656 0.756021
vt 0.385784 0.109511
vt 0.418709 0.305917
vt 0.354204 0.051814
vt 0.634863 0.127860
vt 0.353677 0.066109
s 1
usemtl Material.040
f 1/1/1 3/7/1 4/10/1 2/4/1 6/15/1 5/13/1
f 5/14/2 11/29/2 7/17/3 1/2/3
f 4/11/4 10/26/4 8/20/5 2/5/5
f 1/3/3 7/18/3 9/23/6 3/8/6
f 6/16/7 12/31/7 11/29/2 5/14/2
f 2/6/5 8/21/5 12/31/7 6/16/7
f 11/30/1 12/32/1 18/48/1
f 13/33/8 19/49/8 21/55/8 15/39/8
f 17/45/9 23/61/9 19/50/9 13/34/9
f 14/36/10 20/52/10 24/63/10 18/47/10
f 18/47/11 24/63/11 23/61/11 17/45/11
f 16/42/6 22/58/6 20/53/6 14/37/6
f 21/56/12 19/51/12 23/62/12 24/64/12 20/54/12 22/59/12
f 4/12/13 3/9/13 9/24/13 15/40/13 21/57/13 22/60/13 16/43/13 10/27/13
s 0
f 25/65/12 26/68/12 29/77/12 28/74/12 27/71/12 30/79/12 31/82/12 32/84/12 34/90/12 35/93/12 33/87/12
f 36/95/1 44/117/1 46/123/1 45/120/1 43/114/1 42/112/1 41/109/1 38/101/1 39/104/1 40/107/1 37/98/1
f 28/75/13 39/105/13 38/102/13 27/72/13
f 34/91/14 45/121/14 46/124/14 35/94/14
f 33/88/4 44/118/4 36/96/4 25/66/4
f 31/83/15 42/113/15 43/115/15 32/85/15
f 26/69/16 37/99/16 40/108/16 29/78/16
f 25/67/11 36/97/11 37/100/11 26/70/11
f 35/94/17 46/124/17 44/119/17 33/89/17
f 27/73/18 38/103/18 41/110/18 30/80/18
f 29/78/6 40/108/6 39/106/6 28/76/6
f 32/86/19 43/116/19 45/122/19 34/92/19
f 30/81/20 41/111/20 42/113/20 31/83/20
s 1
f 47/125/12 49/131/12 50/134/12 77/209/12 57/155/12 79/213/12 58/157/12 60/162/12 61/165/12 59/160/12 56/152/12 55/149/12 48/128/12 54/146/12 53/143/12 52/140/12 51/137/12
f 62/167/1 66/179/1 67/182/1 68/185/1 69/188/1 63/170/1 70/191/1 71/194/1 74/202/1 76/207/1 75/204/1 73/199/1 80/215/1 72/197/1 78/211/1 65/176/1 64/173/1
f 49/132/6 47/126/6 62/168/6 64/174/6
f 48/129/21 55/150/21 70/192/21 63/171/21
f 54/147/22 48/130/22 63/172/22 69/189/22
f 55/151/23 56/153/23 71/195/23 70/193/23
f 77/210/24 50/135/25 65/177/25 78/212/24
f 79/214/26 57/156/27 72/198/27 80/216/26
f 50/136/13 49/133/13 64/175/13 65/178/13
f 60/163/28 58/158/28 73/200/28 75/205/28
f 47/127/29 51/138/29 66/180/29 62/169/29
f 56/154/4 59/161/4 74/203/4 71/196/4
f 51/139/30 52/141/30 67/183/30 66/181/30
f 61/166/4 60/164/4 75/206/4 76/208/4
f 52/142/31 53/144/31 68/186/31 67/184/31
f 59/161/32 61/166/32 76/208/32 74/203/32
f 53/145/33 54/148/33 69/190/33 68/187/33
f 57/156/27 77/210/24 78/212/24 72/198/27
f 58/159/34 79/214/26 80/216/26 73/201/34
s 0
f 81/217/12 82/220/12 84/226/12 83/223/12
f 83/224/13 84/227/13 88/238/13 87/235/13
f 88/240/1 85/231/1 87/236/1
f 85/229/11 86/232/11 82/221/11 81/218/11
f 83/225/4 87/237/4 85/230/4 81/219/4
f 88/239/6 84/228/6 82/222/6 86/233/6
f 88/240/1 86/234/1 85/231/1
f 94/255/1 95/258/1 97/264/1 98/267/1 96/261/1
f 89/241/35 90/244/35 95/259/35 94/256/35
f 92/250/36 93/253/36 98/268/36 97/265/36
f 93/253/37 91/247/37 96/262/37 98/268/37
f 90/245/4 92/251/4 97/266/4 95/260/4
f 91/248/38 89/242/38 94/257/38 96/263/38
f 89/243/12 91/249/12 93/254/12 92/252/12 90/246/12
s 1
f 108/289/12 107/286/12 106/284/12 105/282/12 104/280/12 103/278/12 102/276/12 101/274/12 100/272/12 99/269/12
f 118/301/1 109/292/1 110/293/1 111/294/1 112/295/1 113/296/1 114/297/1 115/298/1 116/299/1 117/300/1
f 120/304/39 119/303/40 137/324/41 136/323/42
f 122/306/43 121/305/44 134/321/45 133/320/46
f 124/308/47 123/307/48 131/318/49 130/317/50
f 126/312/13 125/310/51 129/316/52 138/326/13
f 121/305/44 127/313/53 135/322/54 134/321/45
f 123/307/48 128/314/55 132/319/56 131/318/49
f 119/302/4 126/311/4 138/327/4 137/325/4
f 127/313/53 120/304/39 136/323/42 135/322/54
f 128/314/55 122/306/43 133/320/46 132/319/56
f 125/309/51 124/308/47 130/317/50 129/315/52
f 99/270/57 100/273/58 124/308/47 125/309/51
f 102/277/59 103/279/60 122/306/43 128/314/55
f 105/283/61 106/285/62 120/304/39 127/313/53
f 107/287/4 108/290/4 126/311/4 119/302/4
f 101/275/63 102/277/59 128/314/55 123/307/48
f 104/281/64 105/283/61 127/313/53 121/305/44
f 108/291/13 99/271/57 125/310/51 126/312/13
f 100/273/58 101/275/63 123/307/48 124/308/47
f 103/279/60 104/281/64 121/305/44 122/306/43
f 106/285/62 107/288/65 119/303/40 120/304/39
f 139/328/66 140/330/67 129/315/52 130/317/50
f 141/331/68 139/328/66 130/317/50 131/318/49
f 142/332/69 141/331/68 131/318/49 132/319/56
f 143/333/70 142/332/69 132/319/56 133/320/46
f 144/334/71 143/333/70 133/320/46 134/321/45
f 145/335/72 144/334/71 134/321/45 135/322/54
f 146/336/73 145/335/72 135/322/54 136/323/42
f 147/338/74 146/336/73 136/323/42 137/324/41
f 140/329/67 148/339/13 138/326/13 129/316/52
f 148/340/4 147/337/4 137/325/4 138/327/4
f 118/301/1 117/300/1 147/338/74 148/341/1
f 109/292/1 118/301/1 148/341/1 140/330/67
f 117/300/1 116/299/1 146/336/73 147/338/74
f 116/299/1 115/298/1 145/335/72 146/336/73
f 115/298/1 114/297/1 144/334/71 145/335/72
f 114/297/1 113/296/1 143/333/70 144/334/71
f 113/296/1 112/295/1 142/332/69 143/333/70
f 112/295/1 111/294/1 141/331/68 142/332/69
f 111/294/1 110/293/1 139/328/66 141/331/68
f 110/293/1 109/292/1 140/330/67 139/328/66
f 160/367/1 149/343/1 154/355/1
f 161/368/12 163/373/12 167/382/12 165/378/12 174/396/12 164/376/12 168/384/12 204/462/12 172/392/12 206/466/12 171/390/12 169/386/12 208/470/12 170/388/12 162/370/12 166/380/12 176/400/12 214/482/12
f 207/468/75 208/471/75 169/387/76 157/360/76
f 154/354/77 166/381/77 162/371/11 150/344/11
f 156/358/78 168/385/78 164/377/79 152/350/79
f 150/345/4 162/372/4 170/389/80 158/362/80
f 155/356/81 167/383/81 163/374/82 151/347/82
f 173/394/83 174/397/83 165/379/84 153/352/84
f 205/464/85 206/467/85 172/393/86 160/366/86
f 175/398/87 176/401/87 166/381/77 154/354/77
f 153/352/84 165/379/84 167/383/81 155/356/81
f 203/460/88 204/463/88 168/385/78 156/358/78
f 151/348/6 163/375/6 161/369/89 149/342/89
f 152/350/79 164/377/79 174/397/83 173/394/83
f 213/480/90 214/483/90 176/401/87 175/398/87
f 157/360/76 169/387/76 171/391/91 159/364/91
f 185/422/1 179/408/1 180/411/1
f 188/427/12 202/458/12 189/429/12 191/434/12 190/432/12 200/454/12 212/478/12 198/450/12 197/448/12 196/445/12 194/441/12 195/443/12 210/474/12 193/439/12 192/437/12
f 182/414/92 181/412/93 192/438/93 193/440/92
f 201/456/94 178/404/95 189/430/95 202/459/94
f 186/423/96 185/420/97 196/446/97 197/449/96
f 209/472/98 182/414/92 193/440/92 210/475/98
f 178/405/6 180/409/6 191/435/6 189/431/6
f 187/425/99 186/423/96 197/449/96 198/451/99
f 185/421/100 183/416/101 194/442/101 196/447/100
f 180/410/102 179/407/103 190/433/103 191/436/102
f 211/476/104 187/425/99 198/451/99 212/479/104
f 181/412/105 177/402/106 188/428/106 192/438/105
f 183/416/101 184/418/107 195/444/107 194/442/101
f 179/407/103 199/452/108 200/455/108 190/433/103
f 177/402/106 201/456/94 202/459/94 188/428/106
f 160/366/86 172/393/86 204/463/88 203/460/88
f 159/364/91 171/391/91 206/467/85 205/464/85
f 158/362/80 170/389/80 208/471/75 207/468/75
f 184/418/107 209/472/98 210/475/98 195/444/107
f 199/452/108 211/476/104 212/479/104 200/455/108
f 149/342/89 161/369/89 214/483/90 213/480/90
f 151/349/1 149/343/1 156/359/1
f 149/343/1 213/481/1 154/355/1
f 156/359/1 149/343/1 203/461/1
f 213/481/1 175/399/1 154/355/1
f 154/355/1 150/346/1 159/365/1
f 150/346/1 158/363/1 157/361/1
f 159/365/1 150/346/1 157/361/1
f 158/363/1 207/469/1 157/361/1
f 155/357/1 151/349/1 153/353/1
f 173/395/1 153/353/1 156/359/1
f 156/359/1 153/353/1 151/349/1
f 156/359/1 152/351/1 173/395/1
f 154/355/1 159/365/1 205/465/1
f 154/355/1 205/465/1 160/367/1
f 203/461/1 149/343/1 160/367/1
f 201/457/1 177/403/1 178/406/1
f 177/403/1 181/413/1 178/406/1
f 181/413/1 182/415/1 183/417/1
f 182/415/1 209/473/1 183/417/1
f 209/473/1 184/419/1 183/417/1
f 185/422/1 186/424/1 179/408/1
f 186/424/1 187/426/1 199/453/1
f 179/408/1 186/424/1 199/453/1
f 183/417/1 185/422/1 181/413/1
f 187/426/1 211/477/1 199/453/1
f 180/411/1 178/406/1 181/413/1
f 180/411/1 181/413/1 185/422/1
f 218/493/1 295/678/1 216/489/1
f 223/503/12 224/506/12 296/680/12 226/511/12 232/524/12 225/509/12 228/515/12 227/513/12 229/517/12 230/519/12
f 221/498/109 222/500/110 230/520/110 229/518/109
f 217/490/111 220/496/112 228/516/112 225/510/111
f 231/522/113 217/490/111 225/510/111 232/525/113
f 215/484/114 216/487/114 224/507/114 223/504/114
f 219/494/115 221/498/109 229/518/109 227/514/115
f 220/496/112 219/494/115 227/514/115 228/516/112
f 295/679/116 218/492/117 226/512/117 296/681/116
f 222/501/4 215/485/4 223/505/4 230/521/4
f 218/492/117 231/522/113 232/525/113 226/512/117
s 0
f 234/529/12 235/532/12 236/535/12 233/526/12 237/538/12 238/541/12 239/544/12 240/547/12 241/550/12
f 243/556/1 250/577/1 249/574/1 248/571/1 247/568/1 246/565/1 242/553/1 245/562/1 244/559/1
f 239/545/118 238/542/118 247/569/118 248/572/118
f 235/533/13 234/530/13 243/557/13 244/560/13
f 240/548/119 239/546/119 248/573/119 249/575/119
f 233/527/120 236/536/120 245/563/120 242/554/120
f 237/539/121 233/528/121 242/555/121 246/566/121
f 241/551/122 240/549/122 249/576/122 250/578/122
f 238/543/123 237/540/123 246/567/123 247/570/123
f 236/537/124 235/534/124 244/561/124 245/564/124
f 234/531/6 241/552/6 250/579/6 243/558/6
s 1
f 251/582/1 253/586/1 260/602/1
f 267/617/12 268/620/12 294/676/12 288/664/12 270/624/12 276/637/12 277/640/12 282/652/12 278/642/12 279/644/12 280/647/12 281/650/12 269/622/12 275/635/12 290/668/12 286/660/12 274/633/12 273/630/12 271/626/12 284/656/12 292/672/12 272/628/12
f 258/596/125 257/593/126 273/631/126 274/634/125
f 264/610/4 265/613/4 281/651/4 280/648/4
f 285/658/127 258/596/125 274/634/125 286/661/127
f 256/591/128 251/580/129 267/618/129 272/629/128
f 261/603/130 266/615/131 282/653/131 277/641/130
f 253/585/132 259/598/133 275/636/133 269/623/132
f 251/581/134 252/583/135 268/621/135 267/619/134
f 254/587/136 260/600/137 276/638/137 270/625/136
f 287/662/138 254/587/136 270/625/136 288/665/138
f 260/601/139 261/603/130 277/641/130 276/639/139
f 265/613/140 253/585/140 269/623/140 281/651/140
f 266/615/131 262/605/141 278/643/141 282/653/131
f 257/594/142 255/589/143 271/627/143 273/632/142
f 262/605/141 263/607/144 279/645/144 278/643/141
f 291/670/145 256/591/128 272/629/128 292/673/145
f 263/608/13 264/611/13 280/649/13 279/646/13
f 255/589/143 283/654/146 284/657/146 271/627/143
f 289/666/147 285/658/127 286/661/127 290/669/147
f 293/674/148 287/662/138 288/665/138 294/677/148
f 259/598/133 289/666/147 290/669/147 275/636/133
f 283/654/146 291/670/145 292/673/145 284/657/146
f 252/583/135 293/674/148 294/677/148 268/621/135
f 216/488/149 295/679/116 296/681/116 224/508/149
f 216/489/1 215/486/1 219/495/1
f 215/486/1 222/502/1 221/499/1
f 219/495/1 215/486/1 221/499/1
f 219/495/1 220/497/1 216/489/1
f 220/497/1 217/491/1 216/489/1
f 217/491/1 231/523/1 216/489/1
f 231/523/1 218/493/1 216/489/1
f 251/582/1 256/592/1 257/595/1
f 256/592/1 291/671/1 255/590/1
f 257/595/1 256/592/1 255/590/1
f 291/671/1 283/655/1 255/590/1
f 257/595/1 258/597/1 259/599/1
f 258/597/1 285/659/1 259/599/1
f 293/675/1 252/584/1 287/663/1
f 252/584/1 251/582/1 254/588/1
f 287/663/1 252/584/1 254/588/1
f 285/659/1 289/667/1 259/599/1
f 259/599/1 253/586/1 257/595/1
f 253/586/1 265/614/1 263/609/1
f 265/614/1 264/612/1 263/609/1
f 263/609/1 262/606/1 260/602/1
f 262/606/1 266/616/1 260/602/1
f 251/582/1 257/595/1 253/586/1
f 253/586/1 263/609/1 260/602/1
f 266/616/1 261/604/1 260/602/1
f 260/602/1 254/588/1 251/582/1
f 8/22/1 10/28/1 16/44/1
f 16/44/1 14/38/1 8/22/1
f 14/38/1 18/48/1 8/22/1
f 18/48/1 17/46/1 11/30/1
f 17/46/1 13/35/1 7/19/1
f 11/30/1 17/46/1 7/19/1
f 13/35/1 15/41/1 7/19/1
f 15/41/1 9/25/1 7/19/1
f 12/32/1 8/22/1 18/48/1
