# Blender 4.3.2
# www.blender.org
mtllib PointCard.mtl
o Cylinder.014
v 0.000000 0.999422 -0.411948
v 0.000000 0.991622 -0.411948
v 0.011170 0.999422 -0.413419
v 0.011170 0.991622 -0.413419
v 0.021578 0.999422 -0.417730
v 0.021578 0.991622 -0.417730
v 0.030517 0.999422 -0.424588
v 0.030517 0.991622 -0.424588
v 0.037375 0.999422 -0.433526
v 0.037375 0.991622 -0.433526
v 0.041686 0.999422 -0.443935
v 0.041686 0.991622 -0.443935
v 0.043157 0.999422 -0.455105
v 0.043157 0.991622 -0.455105
v 0.041686 0.999422 -0.466275
v 0.041686 0.991622 -0.466275
v 0.037375 0.999422 -0.476683
v 0.037375 0.991622 -0.476683
v 0.030517 0.999422 -0.485621
v 0.030517 0.991622 -0.485621
v 0.021578 0.999422 -0.492480
v 0.021578 0.991622 -0.492480
v 0.011170 0.999422 -0.496791
v 0.011170 0.991622 -0.496791
v 0.000000 0.999422 -0.498262
v 0.000000 0.991622 -0.498262
v -0.011170 0.999422 -0.496791
v -0.011170 0.991622 -0.496791
v -0.021578 0.999422 -0.492480
v -0.021578 0.991622 -0.492480
v -0.030517 0.999422 -0.485621
v -0.030517 0.991622 -0.485621
v -0.037375 0.999422 -0.476683
v -0.037375 0.991622 -0.476683
v -0.041686 0.999422 -0.466275
v -0.041686 0.991622 -0.466275
v -0.043157 0.999422 -0.455105
v -0.043157 0.991622 -0.455105
v -0.041686 0.999422 -0.443935
v -0.041686 0.991622 -0.443935
v -0.037375 0.999422 -0.433526
v -0.037375 0.991622 -0.433526
v -0.030517 0.999422 -0.424588
v -0.030517 0.991622 -0.424588
v -0.021578 0.999422 -0.417730
v -0.021578 0.991622 -0.417730
v -0.011170 0.999422 -0.413419
v -0.011170 0.991622 -0.413419
v 0.000000 0.999422 -0.249898
v 0.053111 0.999422 -0.256891
v 0.053111 0.991622 -0.256891
v 0.000000 0.991622 -0.249898
v 0.102603 0.999422 -0.277391
v 0.102603 0.991622 -0.277391
v 0.145103 0.999422 -0.310002
v 0.145103 0.991622 -0.310002
v 0.177714 0.999422 -0.352502
v 0.177714 0.991622 -0.352502
v 0.198214 0.999422 -0.401994
v 0.198214 0.991622 -0.401994
v 0.205206 0.999422 -0.455105
v 0.205206 0.991622 -0.455105
v 0.198214 0.999422 -0.508216
v 0.198214 0.991622 -0.508216
v 0.177714 0.999422 -0.557708
v 0.177714 0.991622 -0.557708
v 0.145103 0.999422 -0.600208
v 0.145103 0.991622 -0.600208
v 0.102603 0.999422 -0.632819
v 0.102603 0.991622 -0.632819
v 0.053111 0.999422 -0.653319
v 0.053111 0.991622 -0.653319
v 0.000000 0.999422 -0.660311
v 0.000000 0.991622 -0.660311
v -0.053111 0.999422 -0.653319
v -0.053111 0.991622 -0.653319
v -0.102603 0.999422 -0.632819
v -0.102603 0.991622 -0.632819
v -0.145103 0.999422 -0.600208
v -0.145103 0.991622 -0.600208
v -0.177714 0.999422 -0.557708
v -0.177714 0.991622 -0.557708
v -0.198214 0.999422 -0.508216
v -0.198214 0.991622 -0.508216
v -0.205206 0.999422 -0.455105
v -0.205206 0.991622 -0.455105
v -0.198214 0.999422 -0.401994
v -0.198214 0.991622 -0.401994
v -0.177714 0.999422 -0.352502
v -0.177714 0.991622 -0.352502
v -0.145103 0.999422 -0.310002
v -0.145103 0.991622 -0.310002
v -0.102603 0.999422 -0.277391
v -0.102603 0.991622 -0.277391
v -0.053111 0.999422 -0.256891
v -0.053111 0.991622 -0.256891
vn -0.0000 -0.0000 1.0000
vn 0.2588 -0.0000 0.9659
vn 0.5000 -0.0000 0.8660
vn 0.7071 -0.0000 0.7071
vn 0.8660 -0.0000 0.5000
vn 0.9659 -0.0000 0.2588
vn 1.0000 -0.0000 -0.0000
vn 0.9659 -0.0000 -0.2588
vn 0.8660 -0.0000 -0.5000
vn 0.7071 -0.0000 -0.7071
vn 0.5000 -0.0000 -0.8660
vn 0.2588 -0.0000 -0.9659
vn -0.0000 -0.0000 -1.0000
vn -0.2588 -0.0000 -0.9659
vn -0.5000 -0.0000 -0.8660
vn -0.7071 -0.0000 -0.7071
vn -0.8660 -0.0000 -0.5000
vn -0.9659 -0.0000 -0.2588
vn -1.0000 -0.0000 -0.0000
vn -0.9659 -0.0000 0.2588
vn -0.8660 -0.0000 0.5000
vn -0.7071 -0.0000 0.7071
vn -0.5000 -0.0000 0.8660
vn -0.2588 -0.0000 0.9659
vn -0.0000 1.0000 -0.0000
vn -0.0000 -1.0000 -0.0000
vt 0.145542 0.458357
vt 0.151606 0.458339
vt 0.151730 0.499991
vt 0.145665 0.500009
vt 0.151854 0.541643
vt 0.145789 0.541661
vt 0.151977 0.583294
vt 0.145912 0.583312
vt 0.152100 0.624946
vt 0.146035 0.624964
vt 0.152222 0.666598
vt 0.146157 0.666615
vt 0.152342 0.708250
vt 0.146277 0.708267
vt 0.152460 0.749901
vt 0.146395 0.749918
vt 0.152575 0.791553
vt 0.146510 0.791570
vt 0.152684 0.833206
vt 0.146619 0.833221
vt 0.152777 0.874860
vt 0.146712 0.874869
vt 0.152757 0.916533
vt 0.146691 0.916501
vt 0.152178 0.958243
vt 0.146116 0.958089
vt 0.150674 0.999913
vt 0.144618 0.999670
vt 0.146721 0.000087
vt 0.152777 0.000330
vt 0.151280 0.041911
vt 0.145217 0.041757
vt 0.150704 0.083499
vt 0.144638 0.083467
vt 0.150683 0.125131
vt 0.144618 0.125140
vt 0.150776 0.166779
vt 0.144712 0.166794
vt 0.150885 0.208430
vt 0.144821 0.208447
vt 0.151000 0.250082
vt 0.144935 0.250099
vt 0.151118 0.291733
vt 0.145053 0.291751
vt 0.151238 0.333385
vt 0.145174 0.333402
vt 0.151360 0.375036
vt 0.145295 0.375054
vt 0.203724 0.830014
vt 0.203841 0.791407
vt 0.230480 0.791553
vt 0.230387 0.829856
vt 0.151483 0.416688
vt 0.145418 0.416706
vt 0.204289 0.868862
vt 0.230951 0.867925
vt 0.626158 0.771673
vt 0.635570 0.781085
vt 0.519024 0.932970
vt 0.474273 0.888219
vt 0.673263 0.209104
vt 0.659953 0.209104
vt 0.634964 0.019294
vt 0.698252 0.019294
vt 0.619503 0.760146
vt 0.442629 0.833410
vt 0.647097 0.212548
vt 0.573833 0.035674
vt 0.616058 0.747290
vt 0.426249 0.772279
vt 0.635570 0.219204
vt 0.519024 0.067318
vt 0.616058 0.733980
vt 0.426249 0.708991
vt 0.626158 0.228615
vt 0.474273 0.112069
vt 0.619503 0.721123
vt 0.442629 0.647860
vt 0.619503 0.240142
vt 0.442629 0.166878
vt 0.626158 0.709597
vt 0.474273 0.593051
vt 0.616058 0.252998
vt 0.426249 0.228009
vt 0.635570 0.700185
vt 0.519024 0.548300
vt 0.616058 0.266308
vt 0.426249 0.291297
vt 0.647097 0.693530
vt 0.573833 0.516656
vt 0.619503 0.279165
vt 0.442629 0.352428
vt 0.659953 0.690085
vt 0.634964 0.500276
vt 0.626158 0.290692
vt 0.474273 0.407237
vt 0.673263 0.690085
vt 0.698252 0.500276
vt 0.635570 0.300103
vt 0.519024 0.451989
vt 0.686120 0.693530
vt 0.759383 0.516656
vt 0.647097 0.306758
vt 0.573833 0.483632
vt 0.697646 0.700185
vt 0.814192 0.548300
vt 0.659953 0.310203
vt 0.634964 0.500012
vt 0.707058 0.709597
vt 0.858943 0.593051
vt 0.673263 0.310203
vt 0.698252 0.500012
vt 0.713713 0.721123
vt 0.890587 0.647860
vt 0.686120 0.306758
vt 0.759383 0.483632
vt 0.717158 0.733980
vt 0.906967 0.708991
vt 0.697646 0.300103
vt 0.814192 0.451989
vt 0.717158 0.747290
vt 0.906967 0.772279
vt 0.707058 0.290692
vt 0.858943 0.407237
vt 0.713713 0.760146
vt 0.890587 0.833410
vt 0.713713 0.279165
vt 0.890587 0.352429
vt 0.707058 0.771673
vt 0.858943 0.888219
vt 0.717158 0.266308
vt 0.906967 0.291297
vt 0.697646 0.781085
vt 0.814192 0.932970
vt 0.717158 0.252998
vt 0.906967 0.228010
vt 0.686120 0.787740
vt 0.759383 0.964614
vt 0.713713 0.240142
vt 0.890587 0.166878
vt 0.673263 0.791185
vt 0.698252 0.980994
vt 0.707058 0.228615
vt 0.858943 0.112070
vt 0.659953 0.791185
vt 0.634964 0.980994
vt 0.697646 0.219204
vt 0.814192 0.067318
vt 0.647097 0.787740
vt 0.573833 0.964614
vt 0.686120 0.212548
vt 0.759383 0.035674
vt 0.204173 0.752903
vt 0.230801 0.753151
vt 0.204571 0.714433
vt 0.231195 0.714716
vt 0.204994 0.675974
vt 0.231616 0.676271
vt 0.205428 0.637519
vt 0.232050 0.637822
vt 0.205869 0.599066
vt 0.232490 0.599372
vt 0.206313 0.560613
vt 0.232935 0.560921
vt 0.206760 0.522161
vt 0.233381 0.522470
vt 0.207208 0.483709
vt 0.233829 0.484019
vt 0.207655 0.445257
vt 0.234277 0.445567
vt 0.208102 0.406806
vt 0.234724 0.407114
vt 0.208547 0.368355
vt 0.235168 0.368662
vt 0.208987 0.329905
vt 0.235609 0.330208
vt 0.209421 0.291457
vt 0.236043 0.291753
vt 0.209842 0.253012
vt 0.236466 0.253294
vt 0.210236 0.214576
vt 0.236864 0.214825
vt 0.210556 0.176174
vt 0.237196 0.176321
vt 0.210650 0.137871
vt 0.237313 0.137713
vt 0.210086 0.099803
vt 0.236748 0.098865
vt 0.207980 0.062058
vt 0.234463 0.059776
vt 0.203724 0.024235
vt 0.230006 0.021166
vt 0.211031 0.946562
vt 0.206574 0.907952
vt 0.233057 0.905669
vt 0.237313 0.943493
s 1
usemtl Material.047
f 49/1/1 52/2/1 51/3/2 50/4/2
f 50/4/2 51/3/2 54/5/3 53/6/3
f 53/6/3 54/5/3 56/7/4 55/8/4
f 55/8/4 56/7/4 58/9/5 57/10/5
f 57/10/5 58/9/5 60/11/6 59/12/6
f 59/12/6 60/11/6 62/13/7 61/14/7
f 61/14/7 62/13/7 64/15/8 63/16/8
f 63/16/8 64/15/8 66/17/9 65/18/9
f 65/18/9 66/17/9 68/19/10 67/20/10
f 67/20/10 68/19/10 70/21/11 69/22/11
f 69/22/11 70/21/11 72/23/12 71/24/12
f 71/24/12 72/23/12 74/25/13 73/26/13
f 73/26/13 74/25/13 76/27/14 75/28/14
f 75/29/14 76/30/14 78/31/15 77/32/15
f 77/32/15 78/31/15 80/33/16 79/34/16
f 79/34/16 80/33/16 82/35/17 81/36/17
f 81/36/17 82/35/17 84/37/18 83/38/18
f 83/38/18 84/37/18 86/39/19 85/40/19
f 85/40/19 86/39/19 88/41/20 87/42/20
f 87/42/20 88/41/20 90/43/21 89/44/21
f 89/44/21 90/43/21 92/45/22 91/46/22
f 91/46/22 92/45/22 94/47/23 93/48/23
f 48/49/12 46/50/11 45/51/11 47/52/12
f 93/48/23 94/47/23 96/53/24 95/54/24
f 95/54/24 96/53/24 52/2/1 49/1/1
f 2/55/13 48/49/12 47/52/12 1/56/13
f 3/57/25 1/58/25 49/59/25 50/60/25
f 2/61/26 4/62/26 51/63/26 52/64/26
f 5/65/25 3/57/25 50/60/25 53/66/25
f 4/62/26 6/67/26 54/68/26 51/63/26
f 7/69/25 5/65/25 53/66/25 55/70/25
f 6/67/26 8/71/26 56/72/26 54/68/26
f 9/73/25 7/69/25 55/70/25 57/74/25
f 8/71/26 10/75/26 58/76/26 56/72/26
f 11/77/25 9/73/25 57/74/25 59/78/25
f 10/75/26 12/79/26 60/80/26 58/76/26
f 13/81/25 11/77/25 59/78/25 61/82/25
f 12/79/26 14/83/26 62/84/26 60/80/26
f 15/85/25 13/81/25 61/82/25 63/86/25
f 14/83/26 16/87/26 64/88/26 62/84/26
f 17/89/25 15/85/25 63/86/25 65/90/25
f 16/87/26 18/91/26 66/92/26 64/88/26
f 19/93/25 17/89/25 65/90/25 67/94/25
f 18/91/26 20/95/26 68/96/26 66/92/26
f 21/97/25 19/93/25 67/94/25 69/98/25
f 20/95/26 22/99/26 70/100/26 68/96/26
f 23/101/25 21/97/25 69/98/25 71/102/25
f 22/99/26 24/103/26 72/104/26 70/100/26
f 25/105/25 23/101/25 71/102/25 73/106/25
f 24/103/26 26/107/26 74/108/26 72/104/26
f 27/109/25 25/105/25 73/106/25 75/110/25
f 26/107/26 28/111/26 76/112/26 74/108/26
f 29/113/25 27/109/25 75/110/25 77/114/25
f 28/111/26 30/115/26 78/116/26 76/112/26
f 31/117/25 29/113/25 77/114/25 79/118/25
f 30/115/26 32/119/26 80/120/26 78/116/26
f 33/121/25 31/117/25 79/118/25 81/122/25
f 32/119/26 34/123/26 82/124/26 80/120/26
f 35/125/25 33/121/25 81/122/25 83/126/25
f 34/123/26 36/127/26 84/128/26 82/124/26
f 37/129/25 35/125/25 83/126/25 85/130/25
f 36/127/26 38/131/26 86/132/26 84/128/26
f 39/133/25 37/129/25 85/130/25 87/134/25
f 38/131/26 40/135/26 88/136/26 86/132/26
f 41/137/25 39/133/25 87/134/25 89/138/25
f 40/135/26 42/139/26 90/140/26 88/136/26
f 43/141/25 41/137/25 89/138/25 91/142/25
f 42/139/26 44/143/26 92/144/26 90/140/26
f 45/145/25 43/141/25 91/142/25 93/146/25
f 44/143/26 46/147/26 94/148/26 92/144/26
f 47/149/25 45/145/25 93/146/25 95/150/25
f 46/147/26 48/151/26 96/152/26 94/148/26
f 1/58/25 47/149/25 95/150/25 49/59/25
f 48/151/26 2/61/26 52/64/26 96/152/26
f 46/50/11 44/153/10 43/154/10 45/51/11
f 44/153/10 42/155/9 41/156/9 43/154/10
f 42/155/9 40/157/8 39/158/8 41/156/9
f 40/157/8 38/159/7 37/160/7 39/158/8
f 38/159/7 36/161/6 35/162/6 37/160/7
f 36/161/6 34/163/5 33/164/5 35/162/6
f 34/163/5 32/165/4 31/166/4 33/164/5
f 32/165/4 30/167/3 29/168/3 31/166/4
f 30/167/3 28/169/2 27/170/2 29/168/3
f 28/169/2 26/171/1 25/172/1 27/170/2
f 26/171/1 24/173/24 23/174/24 25/172/1
f 24/173/24 22/175/23 21/176/23 23/174/24
f 22/175/23 20/177/22 19/178/22 21/176/23
f 20/177/22 18/179/21 17/180/21 19/178/22
f 18/179/21 16/181/20 15/182/20 17/180/21
f 16/181/20 14/183/19 13/184/19 15/182/20
f 14/183/19 12/185/18 11/186/18 13/184/19
f 12/185/18 10/187/17 9/188/17 11/186/18
f 10/187/17 8/189/16 7/190/16 9/188/17
f 8/189/16 6/191/15 5/192/15 7/190/16
f 6/193/15 4/194/14 3/195/14 5/196/15
f 4/194/14 2/55/13 1/56/13 3/195/14
