# Blender 5.1.0
# www.blender.org
mtllib 电视.mtl
o 1_low
v 0.468778 -0.473719 -0.290059
v 0.452398 -0.385721 -0.272406
v 0.468778 -0.473719 -0.407386
v 0.452398 -0.385721 -0.425040
v 0.577637 -0.473719 -0.297773
v 0.594016 -0.385721 -0.282441
v 0.577637 -0.473719 -0.399672
v 0.594016 -0.385721 -0.415004
v 0.468778 -0.473719 0.412055
v 0.452398 -0.385721 0.429709
v 0.468778 -0.473719 0.294729
v 0.452398 -0.385721 0.277075
v 0.577637 -0.473719 0.404342
v 0.594016 -0.385721 0.419674
v 0.577637 -0.473719 0.302443
v 0.594016 -0.385721 0.287110
v -0.080831 -0.473719 0.368878
v -0.064452 -0.385721 0.387002
v -0.080831 -0.473719 0.248426
v -0.064452 -0.385721 0.230302
v -0.186438 -0.473719 0.359602
v -0.202818 -0.385721 0.374934
v -0.186438 -0.473719 0.257703
v -0.202818 -0.385721 0.242370
v -0.080831 -0.473719 -0.248521
v -0.064452 -0.385721 -0.230397
v -0.080831 -0.473719 -0.368974
v -0.064452 -0.385721 -0.387098
v -0.186438 -0.473719 -0.257798
v -0.202818 -0.385721 -0.242466
v -0.186438 -0.473719 -0.359697
v -0.202818 -0.385721 -0.375029
vn -0.9831 -0.1830 -0.0000
vn 0.0695 -0.1838 -0.9805
vn 0.9831 -0.1830 -0.0000
vn 0.0695 -0.1838 0.9805
vn -0.0000 -1.0000 -0.0000
vn -0.0000 1.0000 -0.0000
vn -0.0856 -0.1861 -0.9788
vn -0.0856 -0.1861 0.9788
vt 0.826651 0.877084
vt 0.854641 0.871569
vt 0.854641 0.919299
vt 0.826646 0.913781
vt 0.461813 0.878705
vt 0.489812 0.873207
vt 0.489812 0.917604
vt 0.461818 0.912838
vt 0.502735 0.921524
vt 0.530731 0.916731
vt 0.530731 0.958185
vt 0.502740 0.953395
vt 0.912562 0.911200
vt 0.884567 0.915966
vt 0.884567 0.871569
vt 0.912567 0.877067
vt 0.860692 0.956955
vt 0.826646 0.954543
vt 0.826649 0.922674
vt 0.860692 0.920264
vt 0.851028 0.360748
vt 0.806740 0.363883
vt 0.806740 0.316151
vt 0.851031 0.319289
vt 0.883597 0.913784
vt 0.855606 0.919299
vt 0.855606 0.871569
vt 0.883602 0.877087
vt 0.403883 0.878705
vt 0.431883 0.873207
vt 0.431883 0.917603
vt 0.403888 0.912838
vt 0.931331 0.778336
vt 0.959327 0.773543
vt 0.959327 0.814997
vt 0.931336 0.810207
vt 0.432853 0.877972
vt 0.460848 0.873207
vt 0.460848 0.917604
vt 0.432848 0.912106
vt 0.931331 0.815962
vt 0.965374 0.818371
vt 0.965377 0.850241
vt 0.931331 0.852653
vt 0.896284 0.360748
vt 0.851996 0.363883
vt 0.851996 0.316151
vt 0.896287 0.319289
vt 0.776810 0.321813
vt 0.776814 0.359487
vt 0.748819 0.365153
vt 0.748819 0.316151
vt 0.897252 0.358290
vt 0.897253 0.325132
vt 0.925262 0.320451
vt 0.925262 0.363883
vt 0.531696 0.953391
vt 0.531701 0.921520
vt 0.559691 0.916731
vt 0.559691 0.958184
vt 0.954236 0.325132
vt 0.954237 0.358290
vt 0.926227 0.363883
vt 0.926227 0.320451
vt 0.436912 0.918569
vt 0.436912 0.956237
vt 0.403887 0.953339
vt 0.403884 0.921470
vt 0.747851 0.319921
vt 0.747854 0.361381
vt 0.704580 0.365155
vt 0.704580 0.316151
vt 0.805770 0.321813
vt 0.805775 0.359487
vt 0.777780 0.365153
vt 0.777780 0.316151
vt 0.931331 0.722587
vt 0.931333 0.689429
vt 0.959341 0.684748
vt 0.959341 0.728180
vt 0.884567 0.953591
vt 0.884572 0.921720
vt 0.912562 0.916931
vt 0.912562 0.958385
vt 0.959340 0.733826
vt 0.959341 0.766984
vt 0.931332 0.772578
vt 0.931332 0.729145
vt 0.470906 0.918569
vt 0.470906 0.956237
vt 0.437881 0.953339
vt 0.437877 0.921470
vt 0.703611 0.319921
vt 0.703615 0.361381
vt 0.660341 0.365155
vt 0.660341 0.316151
s 0
usemtl Material.002
f 1/1/1 2/2/1 4/3/1 3/4/1
f 3/5/2 4/6/2 8/7/2 7/8/2
f 7/9/3 8/10/3 6/11/3 5/12/3
f 5/13/4 6/14/4 2/15/4 1/16/4
f 3/17/5 7/18/5 5/19/5 1/20/5
f 8/21/6 4/22/6 2/23/6 6/24/6
f 9/25/1 10/26/1 12/27/1 11/28/1
f 11/29/2 12/30/2 16/31/2 15/32/2
f 15/33/3 16/34/3 14/35/3 13/36/3
f 13/37/4 14/38/4 10/39/4 9/40/4
f 11/41/5 15/42/5 13/43/5 9/44/5
f 16/45/6 12/46/6 10/47/6 14/48/6
f 17/49/3 19/50/3 20/51/3 18/52/3
f 19/53/7 23/54/7 24/55/7 20/56/7
f 23/57/1 21/58/1 22/59/1 24/60/1
f 21/61/8 17/62/8 18/63/8 22/64/8
f 19/65/5 17/66/5 21/67/5 23/68/5
f 24/69/6 22/70/6 18/71/6 20/72/6
f 25/73/3 27/74/3 28/75/3 26/76/3
f 27/77/7 31/78/7 32/79/7 28/80/7
f 31/81/1 29/82/1 30/83/1 32/84/1
f 29/85/8 25/86/8 26/87/8 30/88/8
f 27/89/5 25/90/5 29/91/5 31/92/5
f 32/93/6 30/94/6 26/95/6 28/96/6
o 3_low
v 0.674008 -0.417021 0.519579
v 0.674008 0.532435 0.519579
v 0.674008 -0.417021 -0.511009
v 0.674008 0.532435 -0.511009
v 0.482161 0.588647 -0.582487
v 0.482161 -0.417021 -0.582487
v 0.482161 -0.417021 0.591058
v 0.482161 0.588647 0.591058
v 0.235821 0.588647 -0.565482
v 0.235821 -0.417021 -0.565483
v 0.235821 -0.417021 0.574053
v 0.235821 0.588647 0.574053
v 0.001054 0.462019 -0.536795
v 0.001054 -0.417021 -0.536795
v 0.001054 -0.417021 0.545366
v 0.001054 0.462019 0.545366
v -0.123733 -0.203694 -0.511822
v -0.123733 0.379734 -0.511822
v -0.123733 -0.203694 0.520392
v -0.123733 0.379734 0.520392
v -0.123733 0.394564 -0.527388
v -0.123733 0.394564 0.535958
v -0.123733 -0.417021 0.535958
v -0.123733 -0.417021 -0.527388
v -0.409358 -0.128576 -0.383858
v -0.409358 0.299106 -0.383858
v -0.409358 -0.128576 0.392429
v -0.409358 0.299106 0.392429
v -0.266545 0.339420 -0.447840
v -0.263200 -0.167015 -0.449339
v -0.266545 0.339420 0.456411
v -0.263200 -0.167015 0.457909
v -0.253720 -0.417021 -0.401639
v -0.253720 -0.417021 0.410210
v -0.253720 -0.205401 0.410210
v -0.253720 -0.205401 -0.401639
v -0.253720 -0.242080 -0.401639
v -0.253720 -0.242080 0.410210
v 0.674008 -0.417021 0.204679
v 0.674008 -0.417021 -0.196108
v 0.674008 0.532435 -0.196108
v 0.674008 0.532435 0.204679
v 0.482161 -0.417021 0.204679
v 0.482161 -0.417021 -0.196108
v 0.482161 0.588647 0.204679
v 0.482161 0.588647 -0.196108
v 0.235821 -0.417021 0.204679
v 0.235821 -0.417021 -0.196108
v 0.235821 0.588647 -0.196108
v 0.235821 0.588647 0.204679
v 0.001054 -0.417021 0.204679
v 0.001054 -0.417021 -0.196108
v 0.001054 0.462019 -0.196108
v 0.001054 0.462019 0.204679
v -0.123733 0.394564 -0.196108
v -0.123733 0.394564 0.204679
v -0.123733 -0.417021 0.410210
v -0.123733 -0.417021 -0.401639
v -0.123733 0.379734 -0.196108
v -0.123733 0.379734 0.204679
v -0.123733 -0.203694 0.410210
v -0.123733 -0.203694 -0.401639
v -0.409358 0.299106 0.204679
v -0.409358 0.299106 -0.196108
v -0.409358 -0.128576 -0.196108
v -0.409358 -0.128576 0.204679
v -0.263200 -0.167015 -0.401639
v -0.263200 -0.167015 0.410210
v -0.266545 0.339420 0.204679
v -0.266545 0.339420 -0.196108
v 0.674008 0.215950 -0.511009
v 0.674008 -0.100536 -0.511009
v 0.674008 0.215950 0.519579
v 0.674008 -0.100536 0.519579
v 0.482161 0.253424 -0.582487
v 0.482161 -0.081798 -0.582487
v 0.482161 0.253424 0.591058
v 0.482161 -0.081798 0.591058
v 0.235821 0.253424 -0.565483
v 0.235821 -0.081798 -0.565483
v 0.235821 0.253424 0.574053
v 0.235821 -0.081798 0.574053
v 0.001054 0.169005 -0.536795
v 0.001054 -0.124008 -0.536795
v 0.001054 0.169005 0.545366
v 0.001054 -0.124008 0.545366
v -0.123733 0.124036 -0.527388
v -0.123733 -0.146493 -0.527388
v -0.123733 0.124036 0.535958
v -0.123733 -0.146493 0.535958
v -0.123733 0.185258 -0.511822
v -0.123733 -0.009218 -0.511822
v -0.123733 0.185258 0.520392
v -0.123733 -0.009218 0.520392
v -0.409358 0.156545 -0.383858
v -0.409358 0.013984 -0.383858
v -0.409358 0.156545 0.392429
v -0.409358 0.013984 0.392429
v -0.264315 0.001797 0.457410
v -0.265430 0.170608 0.456910
v -0.265430 0.170608 -0.448339
v -0.264315 0.001797 -0.448839
v -0.409358 0.156545 0.204679
v -0.409358 0.013984 0.204679
v -0.409358 0.013984 -0.196108
v -0.409358 0.156545 -0.196108
v 0.674008 -0.100536 0.204679
v 0.674008 0.215950 0.204679
v 0.674008 0.215950 -0.196108
v 0.674008 -0.100536 -0.196108
vn 0.3491 -0.0000 -0.9371
vn 0.1434 -0.0000 -0.9897
vn 0.1234 -0.0000 -0.9924
vn 0.3491 -0.0000 0.9371
vn 0.1434 -0.0000 0.9897
vn -0.0951 -0.0000 0.9955
vn -0.0983 -0.0000 0.9952
vn -0.0951 -0.0000 -0.9955
vn -0.0902 -0.0000 -0.9959
vn -0.0000 -0.0000 -1.0000
vn -0.0752 -0.0000 0.9972
vn -1.0000 -0.0000 -0.0000
vn -0.9927 -0.1208 -0.0000
vn -0.0983 -0.0000 -0.9952
vn -0.1055 -0.0000 -0.9944
vn -0.0752 -0.0000 -0.9972
vn -0.4089 -0.0000 -0.9126
vn -0.4089 -0.0000 0.9126
vn -0.0000 -1.0000 -0.0000
vn -0.9708 -0.2398 -0.0000
vn -0.0000 -0.0000 1.0000
vn -0.2717 0.9624 -0.0000
vn -0.2543 -0.9671 -0.0000
vn -0.4751 0.8799 -0.0000
vn -0.4755 0.8797 -0.0000
vn -0.2448 0.9696 -0.0000
vn 0.2812 0.9597 -0.0000
vn 0.1420 0.9899 -0.0000
vn 1.0000 -0.0000 -0.0000
vn 0.1277 0.9918 -0.0000
vn -0.2309 0.9730 -0.0000
vn -0.1055 -0.0000 0.9944
vn 0.1234 -0.0000 0.9924
vn -0.0902 -0.0000 0.9959
vt 0.660342 0.198780
vt 0.724342 0.210254
vt 0.724294 0.315079
vt 0.660342 0.297709
vt 0.567157 0.900206
vt 0.631206 0.894624
vt 0.631255 0.999517
vt 0.567157 0.999180
vt 0.708483 0.894606
vt 0.782535 0.907450
vt 0.782782 0.999036
vt 0.708642 0.999445
vt 0.801508 0.210285
vt 0.801345 0.315185
vt 0.545734 0.702168
vt 0.504808 0.713467
vt 0.505187 0.701879
vt 0.502736 0.689822
vt 0.821702 0.914141
vt 0.821954 0.998684
vt 0.189468 0.940389
vt 0.189467 0.686451
vt 0.200939 0.686460
vt 0.200938 0.940396
vt 0.875468 0.184170
vt 0.875208 0.275778
vt 0.914632 0.170442
vt 0.914368 0.255001
vt 0.875208 0.805234
vt 0.924528 0.800810
vt 0.924532 0.845388
vt 0.875598 0.858037
vt 0.248851 0.812767
vt 0.253723 0.855770
vt 0.253723 0.940430
vt 0.248849 0.873626
vt 0.925498 0.873102
vt 0.930366 0.853955
vt 0.930366 0.938558
vt 0.925498 0.933924
vt 0.452056 0.807995
vt 0.501762 0.804194
vt 0.501758 0.848772
vt 0.451666 0.860798
vt 0.310804 0.311254
vt 0.270211 0.311454
vt 0.269078 0.055803
vt 0.309783 0.055214
vt 0.403884 0.811435
vt 0.403884 0.872242
vt 0.134773 0.940352
vt 0.134742 0.686525
vt 0.826646 0.809797
vt 0.826646 0.870604
vt 0.213304 0.940381
vt 0.213304 0.686489
vt 0.545734 0.835737
vt 0.504808 0.824438
vt 0.504717 0.769435
vt 0.545197 0.769435
vt 0.831690 0.589044
vt 0.831854 0.464648
vt 0.878152 0.464159
vt 0.878115 0.589565
vt 0.502736 0.848083
vt 0.505187 0.836026
vt 0.610058 0.050624
vt 0.609956 0.306438
vt 0.562876 0.241379
vt 0.562997 0.115640
vt 0.924472 0.463772
vt 0.924533 0.589961
vt 0.313670 0.748605
vt 0.313735 0.873946
vt 0.269144 0.873924
vt 0.269078 0.748583
vt 0.545197 0.768470
vt 0.504717 0.768470
vt 0.654391 0.229422
vt 0.654391 0.104073
vt 0.659029 0.104081
vt 0.659029 0.229414
vt 0.044870 0.121174
vt 0.044865 0.246603
vt 0.000519 0.246552
vt 0.000510 0.121220
vt 0.348833 0.119933
vt 0.349300 0.246222
vt 0.128212 0.121151
vt 0.128226 0.246627
vt 0.422064 0.120093
vt 0.422506 0.245784
vt 0.499005 0.120706
vt 0.499133 0.245265
vt 0.558853 0.121685
vt 0.559241 0.244488
vt 0.267673 0.121418
vt 0.267713 0.246346
vt 0.205171 0.246537
vt 0.205197 0.121242
vt 0.467201 0.590362
vt 0.467059 0.465021
vt 0.566049 0.464995
vt 0.566191 0.590336
vt 0.467078 0.366553
vt 0.566025 0.366553
vt 0.502002 0.000483
vt 0.561460 0.024512
vt 0.566083 0.688856
vt 0.467137 0.688856
vt 0.561460 0.341784
vt 0.502043 0.365587
vt 0.205633 0.000483
vt 0.268089 0.023114
vt 0.268112 0.344627
vt 0.205659 0.367289
vt 0.424176 0.004484
vt 0.424549 0.361484
vt 0.128442 0.362214
vt 0.128436 0.005581
vt 0.349978 0.013106
vt 0.350779 0.353078
vt 0.044864 0.014536
vt 0.044865 0.353237
vt 0.311095 0.015215
vt 0.311877 0.350981
vt 0.000483 0.017591
vt 0.000483 0.350185
vt 0.654722 0.005333
vt 0.659376 0.000483
vt 0.659376 0.333011
vt 0.654722 0.328162
vt 0.214539 0.940529
vt 0.214269 0.873966
vt 0.502735 0.915764
vt 0.502735 0.849050
vt 0.542061 0.849048
vt 0.537194 0.915765
vt 0.876489 0.668328
vt 0.829574 0.687218
vt 0.829574 0.366553
vt 0.876523 0.385365
vt 0.653426 0.031968
vt 0.606477 0.036268
vt 0.638700 0.000483
vt 0.638990 0.356325
vt 0.606437 0.320810
vt 0.653426 0.324714
vt 0.923397 0.649105
vt 0.313639 0.932647
vt 0.269078 0.932596
vt 0.269235 0.689822
vt 0.313796 0.689874
vt 0.923418 0.404611
vt 0.562425 0.299185
vt 0.562533 0.057877
vt 0.402852 0.748648
vt 0.358261 0.748627
vt 0.358357 0.689925
vt 0.402918 0.689977
vt 0.402761 0.932750
vt 0.358200 0.932699
vt 0.358327 0.873968
vt 0.402918 0.873989
vt 0.269220 0.590414
vt 0.368210 0.590388
vt 0.368191 0.688856
vt 0.269244 0.688856
vt 0.269186 0.366553
vt 0.368132 0.366553
vt 0.368068 0.465047
vt 0.269078 0.465073
vt 0.826646 0.688184
vt 0.874428 0.699627
vt 0.874818 0.752431
vt 0.826646 0.748991
vt 0.403884 0.689822
vt 0.452836 0.702389
vt 0.452446 0.755192
vt 0.403884 0.750629
vt 0.501770 0.715038
vt 0.501766 0.759616
vt 0.925498 0.751460
vt 0.930366 0.684748
vt 0.930366 0.769351
vt 0.925498 0.812281
vt 0.248856 0.691050
vt 0.253723 0.686451
vt 0.253723 0.771110
vt 0.248853 0.751909
vt 0.924520 0.711654
vt 0.924524 0.756232
vt 0.875988 0.000955
vt 0.915161 0.001323
vt 0.914896 0.085882
vt 0.875728 0.092563
vt 0.801833 0.000483
vt 0.801671 0.105384
vt 0.782041 0.724278
vt 0.821198 0.745055
vt 0.821450 0.829598
vt 0.782288 0.815864
vt 0.631107 0.684837
vt 0.708167 0.684930
vt 0.708325 0.789768
vt 0.631156 0.789731
vt 0.724437 0.000604
vt 0.724390 0.105429
vt 0.567157 0.702258
vt 0.567157 0.801232
vt 0.660342 0.000922
vt 0.660342 0.099851
s 1
usemtl Material.002
f 103/97/9 107/98/10 37/99/11 36/100/9
f 106/101/12 110/102/13 39/103/13 33/104/12
f 114/105/14 118/106/15 47/107/15 43/108/14
f 107/98/10 111/109/16 41/110/17 37/99/11
f 110/102/13 114/105/14 43/108/14 39/103/13
f 94/111/18 69/112/18 68/113/18 99/114/18
f 118/106/15 122/115/19 55/116/19 47/107/15
f 69/117/20 70/118/20 67/119/21 68/120/21
f 111/109/16 115/121/22 45/122/23 41/110/17
f 115/121/22 119/123/24 53/124/24 45/122/23
f 133/125/25 127/126/25 58/127/25 61/128/25
f 124/129/20 120/130/20 56/131/20 49/132/20
f 125/133/20 121/134/20 54/135/20 52/136/20
f 131/137/26 130/138/26 59/139/26 64/140/26
f 89/141/27 66/142/27 65/143/27 90/144/27
f 126/145/26 131/137/26 64/140/26 51/146/26
f 70/118/20 69/117/20 65/147/20 66/148/20
f 123/149/25 133/125/25 61/128/25 50/150/25
f 99/151/28 68/120/21 67/119/21 100/152/28
f 93/153/29 70/154/29 66/155/29 89/156/29
f 92/157/30 91/158/30 102/159/30 101/160/30
f 100/161/29 67/162/29 70/154/29 93/153/29
f 99/163/31 100/164/31 98/165/31 97/166/31
f 101/160/30 102/159/30 96/167/30 95/168/30
f 136/169/20 137/170/20 97/171/20 98/172/20
f 90/173/18 65/174/18 69/112/18 94/111/18
f 91/175/20 92/176/20 88/177/20 87/178/20
f 86/179/32 85/180/32 87/181/33 88/182/33
f 84/183/27 83/184/27 89/141/27 90/144/27
f 82/185/34 81/186/34 85/180/32 86/179/32
f 80/187/27 79/188/27 83/184/27 84/183/27
f 76/189/27 75/190/27 79/188/27 80/187/27
f 72/191/27 71/192/27 75/190/27 76/189/27
f 74/193/35 73/194/35 78/195/36 77/196/36
f 77/196/36 78/195/36 81/186/34 82/185/34
f 140/197/37 141/198/37 73/199/37 74/200/37
f 103/201/37 36/202/37 73/199/37 141/198/37
f 72/191/27 76/189/27 38/203/27 35/204/27
f 140/197/37 74/200/37 34/205/37 105/206/37
f 33/207/27 39/208/27 75/190/27 71/192/27
f 74/193/35 77/196/36 40/209/38 34/210/35
f 36/211/35 37/212/38 78/195/36 73/194/35
f 76/189/27 80/187/27 42/213/27 38/203/27
f 39/208/27 43/214/27 79/188/27 75/190/27
f 37/212/38 41/215/39 81/186/34 78/195/36
f 77/196/36 82/185/34 44/216/39 40/209/38
f 80/187/27 84/183/27 46/217/27 42/213/27
f 43/214/27 47/218/27 83/184/27 79/188/27
f 82/185/34 86/179/32 48/219/32 44/216/39
f 41/215/39 45/220/32 85/180/32 81/186/34
f 84/183/27 90/144/27 56/221/27 46/217/27
f 47/218/27 55/222/27 89/141/27 83/184/27
f 86/179/32 88/182/33 54/223/33 48/219/32
f 45/220/32 53/224/33 87/181/33 85/180/32
f 52/225/20 54/226/20 88/177/20 92/176/20
f 91/175/20 87/178/20 53/227/20 50/228/20
f 49/132/20 56/131/20 90/229/20 94/230/20
f 93/231/20 89/232/20 55/233/20 51/234/20
f 92/157/30 101/160/30 63/235/30 52/236/30
f 50/237/30 61/238/30 102/159/30 91/158/30
f 94/239/31 99/163/31 62/240/31 49/241/31
f 51/242/31 64/243/31 100/164/31 93/244/31
f 101/160/30 95/168/30 60/245/30 63/235/30
f 128/246/20 57/247/20 97/171/20 137/170/20
f 136/169/20 98/172/20 59/248/20 130/249/20
f 61/238/30 58/250/30 96/167/30 102/159/30
f 64/243/31 59/251/31 98/165/31 100/164/31
f 99/163/31 97/166/31 57/252/31 62/240/31
f 95/253/20 135/254/20 129/255/20 60/256/20
f 135/254/20 136/169/20 130/249/20 129/255/20
f 58/257/20 127/258/20 138/259/20 96/260/20
f 127/258/20 128/246/20 137/170/20 138/259/20
f 71/261/37 139/262/37 106/263/37 33/264/37
f 139/262/37 140/197/37 105/206/37 106/263/37
f 35/265/37 104/266/37 142/267/37 72/268/37
f 104/266/37 103/201/37 141/198/37 142/267/37
f 71/261/37 72/268/37 142/267/37 139/262/37
f 139/262/37 142/267/37 141/198/37 140/197/37
f 95/253/20 96/260/20 138/259/20 135/254/20
f 135/254/20 138/259/20 137/170/20 136/169/20
f 49/269/25 62/270/25 134/271/25 124/272/25
f 124/272/25 134/271/25 133/125/25 123/149/25
f 52/273/26 63/274/26 132/275/26 125/276/26
f 125/276/26 132/275/26 131/137/26 126/145/26
f 63/274/26 60/277/26 129/278/26 132/275/26
f 132/275/26 129/278/26 130/138/26 131/137/26
f 51/279/20 55/280/20 122/281/20 126/282/20
f 126/282/20 122/281/20 121/134/20 125/133/20
f 50/283/20 53/284/20 119/285/20 123/286/20
f 123/286/20 119/285/20 120/130/20 124/129/20
f 62/270/25 57/287/25 128/288/25 134/271/25
f 134/271/25 128/288/25 127/126/25 133/125/25
f 46/289/22 56/290/24 120/291/24 116/292/22
f 116/292/22 120/291/24 119/123/24 115/121/22
f 42/293/16 46/289/22 116/292/22 112/294/16
f 112/294/16 116/292/22 115/121/22 111/109/16
f 48/295/40 54/296/19 121/297/19 117/298/15
f 117/298/15 121/297/19 122/115/19 118/106/15
f 40/299/41 44/300/42 113/301/14 109/302/13
f 109/302/13 113/301/14 114/105/14 110/102/13
f 38/303/10 42/293/16 112/294/16 108/304/10
f 108/304/10 112/294/16 111/109/16 107/98/10
f 44/300/42 48/295/40 117/298/15 113/301/14
f 113/301/14 117/298/15 118/106/15 114/105/14
f 34/305/12 40/299/41 109/302/13 105/306/12
f 105/306/12 109/302/13 110/102/13 106/101/12
f 35/307/9 38/303/10 108/304/10 104/308/9
f 104/308/9 108/304/10 107/98/10 103/97/9
o 2_low
v -0.210939 -0.672929 0.507186
v -0.210939 -0.461456 0.507186
v -0.210939 -0.672929 -0.507186
v -0.210939 -0.461456 -0.507186
v 0.644753 -0.672929 0.507186
v 0.644753 -0.672929 -0.507186
v 0.644753 -0.508176 0.507186
v 0.602211 -0.461456 0.507186
v 0.623104 -0.470109 0.507186
v 0.602211 -0.461456 -0.507186
v 0.644753 -0.508176 -0.507186
v 0.623104 -0.470109 -0.507186
v 0.635351 -0.483568 -0.507186
v 0.635351 -0.483568 0.507186
v -0.210939 -0.672929 -0.338124
v -0.210939 -0.672929 -0.169062
v -0.210939 -0.672929 0.000000
v -0.210939 -0.672929 0.169062
v -0.210939 -0.672929 0.338124
v -0.210939 -0.461456 0.338124
v -0.210939 -0.461456 0.169062
v -0.210939 -0.461456 0.000000
v -0.210939 -0.461456 -0.169062
v -0.210939 -0.461456 -0.338124
v 0.644753 -0.672929 0.338124
v 0.644753 -0.672929 0.169062
v 0.644753 -0.672929 0.000000
v 0.644753 -0.672929 -0.169062
v 0.644753 -0.672929 -0.338124
v 0.602211 -0.461456 -0.338124
v 0.602211 -0.461456 -0.169062
v 0.602211 -0.461456 0.000000
v 0.602211 -0.461456 0.169062
v 0.602211 -0.461456 0.338124
v 0.623104 -0.470109 0.338124
v 0.623104 -0.470109 0.169062
v 0.623104 -0.470109 0.000000
v 0.623104 -0.470109 -0.169062
v 0.623104 -0.470109 -0.338124
v 0.644753 -0.508176 0.338124
v 0.644753 -0.508176 0.169062
v 0.644753 -0.508176 0.000000
v 0.644753 -0.508176 -0.169062
v 0.644753 -0.508176 -0.338124
v 0.635351 -0.483568 0.338124
v 0.635351 -0.483568 0.169062
v 0.635351 -0.483568 0.000000
v 0.635351 -0.483568 -0.169062
v 0.635351 -0.483568 -0.338124
v 0.644753 -0.590553 -0.507186
v 0.644753 -0.590553 0.507186
v 0.644753 -0.590553 -0.338124
v 0.644753 -0.590553 -0.169062
v 0.644753 -0.590553 0.000000
v 0.644753 -0.590553 0.169062
v 0.644753 -0.590553 0.338124
vn -1.0000 -0.0000 -0.0000
vn -0.0000 -1.0000 -0.0000
vn 0.1951 0.9808 -0.0000
vn 0.5750 0.8182 -0.0000
vn 0.8517 0.5241 -0.0000
vn 0.9834 0.1815 -0.0000
vn -0.0000 1.0000 -0.0000
vn 1.0000 -0.0000 -0.0000
vn -0.0000 -0.0000 1.0000
vn -0.0000 -0.0000 -1.0000
vt 0.925498 0.630912
vt 0.991633 0.630912
vt 0.991633 0.683784
vt 0.925498 0.683784
vt 0.268089 0.421126
vt 0.000482 0.421126
vt 0.000482 0.368254
vt 0.268089 0.368254
vt 0.574228 0.630986
vt 0.574228 0.683873
vt 0.567156 0.683848
vt 0.567156 0.630965
vt 0.921817 0.053362
vt 0.921817 0.000482
vt 0.930055 0.000486
vt 0.930055 0.053366
vt 0.828583 0.630850
vt 0.828609 0.683707
vt 0.955814 0.053380
vt 0.955812 0.000510
vt 0.133776 0.954038
vt 0.108063 0.954087
vt 0.082350 0.954135
vt 0.074654 0.951238
vt 0.070410 0.947426
vt 0.067612 0.940845
vt 0.067664 0.686450
vt 0.133776 0.686546
vt 0.000482 0.686546
vt 0.066595 0.686450
vt 0.066647 0.940845
vt 0.063849 0.947426
vt 0.059605 0.951238
vt 0.051909 0.954135
vt 0.026196 0.954087
vt 0.000482 0.954038
vt 0.916126 0.053366
vt 0.916126 0.000490
vt 0.916126 0.317745
vt 0.916126 0.264869
vt 0.921817 0.264881
vt 0.921817 0.317761
vt 0.916126 0.211993
vt 0.921817 0.212001
vt 0.916126 0.159118
vt 0.921817 0.159121
vt 0.916126 0.106242
vt 0.921817 0.106241
vt 0.955824 0.317731
vt 0.930056 0.317766
vt 0.930056 0.264886
vt 0.955822 0.264861
vt 0.930056 0.212006
vt 0.955820 0.211991
vt 0.930056 0.159126
vt 0.955818 0.159121
vt 0.930055 0.106246
vt 0.955816 0.106251
vt 0.574227 0.366555
vt 0.828452 0.366566
vt 0.828478 0.419423
vt 0.574228 0.419441
vt 0.828504 0.472279
vt 0.574228 0.472327
vt 0.828530 0.525136
vt 0.574228 0.525214
vt 0.828556 0.577993
vt 0.574228 0.578100
vt 0.567156 0.419435
vt 0.567156 0.366552
vt 0.567156 0.472317
vt 0.567156 0.525200
vt 0.567156 0.578083
vt 0.268089 0.685486
vt 0.000482 0.685486
vt 0.000482 0.632614
vt 0.268089 0.632614
vt 0.000482 0.579742
vt 0.268089 0.579742
vt 0.000482 0.526870
vt 0.268089 0.526870
vt 0.000482 0.473998
vt 0.268089 0.473998
vt 0.925498 0.366552
vt 0.991633 0.366552
vt 0.991633 0.419424
vt 0.925498 0.419424
vt 0.991633 0.472296
vt 0.925498 0.472296
vt 0.991633 0.525168
vt 0.925498 0.525168
vt 0.991633 0.578040
vt 0.925498 0.578040
vt 0.981576 0.106255
vt 0.981572 0.053395
vt 0.981580 0.159115
vt 0.981584 0.211976
vt 0.981588 0.264836
vt 0.981591 0.317696
vt 0.981568 0.000535
s 1
usemtl Material.002
f 157/309/43 166/310/43 146/311/43 145/312/43
f 161/313/44 167/314/44 147/315/44 143/316/44
f 176/317/45 150/318/45 151/319/46 177/320/46
f 187/321/47 156/322/47 149/323/48 182/324/48
f 176/317/45 162/325/49 144/326/49 150/318/45
f 198/327/50 182/324/48 149/323/48 193/328/50
f 147/329/51 193/330/51 149/331/51 156/332/51 151/333/51 150/334/51 144/335/51 143/336/51
f 145/337/52 146/338/52 152/339/52 154/340/52 155/341/52 153/342/52 192/343/52 148/344/52
f 177/345/46 151/346/46 156/322/47 187/321/47
f 154/347/46 181/348/46 191/349/47 155/350/47
f 181/348/46 180/351/46 190/352/47 191/349/47
f 180/351/46 179/353/46 189/354/47 190/352/47
f 179/353/46 178/355/46 188/356/47 189/354/47
f 178/355/46 177/345/46 187/321/47 188/356/47
f 192/357/50 153/358/48 186/359/48 194/360/50
f 194/360/50 186/359/48 185/361/48 195/362/50
f 195/362/50 185/361/48 184/363/48 196/364/50
f 196/364/50 184/363/48 183/365/48 197/366/50
f 197/366/50 183/365/48 182/324/48 198/327/50
f 152/367/45 146/368/49 166/369/49 172/370/45
f 172/370/45 166/369/49 165/371/49 173/372/45
f 173/372/45 165/371/49 164/373/49 174/374/45
f 174/374/45 164/373/49 163/375/49 175/376/45
f 175/376/45 163/375/49 162/325/49 176/317/45
f 155/350/47 191/349/47 186/359/48 153/358/48
f 191/349/47 190/352/47 185/361/48 186/359/48
f 190/352/47 189/354/47 184/363/48 185/361/48
f 189/354/47 188/356/47 183/365/48 184/363/48
f 188/356/47 187/321/47 182/324/48 183/365/48
f 152/367/45 172/370/45 181/377/46 154/378/46
f 172/370/45 173/372/45 180/379/46 181/377/46
f 173/372/45 174/374/45 179/380/46 180/379/46
f 174/374/45 175/376/45 178/381/46 179/380/46
f 175/376/45 176/317/45 177/320/46 178/381/46
f 145/382/44 148/383/44 171/384/44 157/385/44
f 157/385/44 171/384/44 170/386/44 158/387/44
f 158/387/44 170/386/44 169/388/44 159/389/44
f 159/389/44 169/388/44 168/390/44 160/391/44
f 160/391/44 168/390/44 167/314/44 161/313/44
f 143/392/43 144/393/43 162/394/43 161/395/43
f 161/395/43 162/394/43 163/396/43 160/397/43
f 160/397/43 163/396/43 164/398/43 159/399/43
f 159/399/43 164/398/43 165/400/43 158/401/43
f 158/401/43 165/400/43 166/310/43 157/309/43
f 168/402/50 197/366/50 198/327/50 167/403/50
f 169/404/50 196/364/50 197/366/50 168/402/50
f 170/405/50 195/362/50 196/364/50 169/404/50
f 171/406/50 194/360/50 195/362/50 170/405/50
f 148/407/50 192/357/50 194/360/50 171/406/50
f 167/403/50 198/327/50 193/328/50 147/408/50
