# Blender 4.3.2
# www.blender.org
mtllib 光碟.mtl
o Cylinder.024
v 0.000000 1.212908 -0.056115
v 0.039679 1.212908 -0.039679
v -0.039679 1.212908 -0.039679
v 0.000000 1.212908 -0.259088
v 0.000000 1.223319 -0.056115
v 0.039679 1.223319 -0.039679
v -0.039679 1.223319 -0.039679
v 0.000000 1.223319 -0.056115
v 0.039679 1.223319 -0.039679
v -0.039679 1.223319 -0.039679
v 0.000000 1.223319 -0.067455
v 0.047698 1.223319 -0.047698
v -0.047698 1.223319 -0.047698
v 0.000000 1.221643 -0.067455
v 0.000000 1.221643 -0.140086
v 0.047698 1.221643 -0.047698
v -0.047698 1.221643 -0.047698
v -0.099056 1.221643 -0.099056
v -0.067455 1.221643 0.000000
v -0.140086 1.221643 0.000000
v -0.047698 1.221643 0.047698
v -0.067455 1.223319 0.000000
v -0.056115 1.223319 0.000000
v -0.047698 1.223319 0.047698
v -0.039679 1.223319 0.039679
v 0.000000 1.223319 0.067455
v 0.000000 1.221643 0.067455
v 0.000000 1.223319 0.056115
v 0.047698 1.223319 0.047698
v 0.047698 1.221643 0.047698
v 0.039679 1.223319 0.039679
v 0.067455 1.223319 0.000000
v 0.067455 1.221643 0.000000
v 0.056115 1.223319 0.000000
v 0.056115 1.223319 0.000000
v 0.039679 1.223319 0.039679
v 0.056115 1.212908 0.000000
v 0.039679 1.212908 0.039679
v 0.259088 1.212908 0.000000
v 0.183203 1.212908 -0.183203
v 0.259088 1.223319 0.000000
v 0.183203 1.212908 0.183203
v 0.183203 1.223319 0.183203
v 0.000000 1.212908 0.259088
v 0.000000 1.223319 0.259088
v -0.183203 1.212908 0.183203
v 0.000000 1.212908 0.056115
v -0.039679 1.212908 0.039679
v 0.000000 1.223319 0.056115
v -0.039679 1.223319 0.039679
v -0.056115 1.223319 0.000000
v -0.056115 1.212908 0.000000
v -0.259088 1.212908 0.000000
v -0.259088 1.223319 0.000000
v -0.183203 1.212908 -0.183203
v -0.183203 1.223319 -0.183203
v 0.000000 1.223319 -0.259088
v -0.099056 1.223319 -0.099056
v 0.000000 1.223319 -0.140086
v -0.140086 1.223319 0.000000
v -0.099056 1.223319 -0.099056
v 0.000000 1.223319 -0.140086
v -0.140086 1.223319 0.000000
v -0.099056 1.223319 0.099056
v -0.099056 1.223319 0.099056
v 0.000000 1.223319 0.140086
v -0.099056 1.221643 0.099056
v 0.000000 1.221643 0.140086
v 0.099056 1.221643 0.099056
v 0.099056 1.223319 0.099056
v 0.140086 1.221643 0.000000
v 0.140086 1.223319 0.000000
v 0.099056 1.221643 -0.099056
v 0.099056 1.223319 -0.099056
v 0.099056 1.223319 -0.099056
v 0.183203 1.223319 -0.183203
v 0.140086 1.223319 0.000000
v 0.099056 1.223319 0.099056
v 0.000000 1.223319 0.140086
v -0.183203 1.223319 0.183203
vn -0.3827 -0.0000 0.9239
vn -0.0000 -1.0000 -0.0000
vn 0.3827 -0.0000 0.9239
vn -0.0000 1.0000 -0.0000
vn 0.3827 -0.0000 -0.9239
vn -0.3827 -0.0000 -0.9239
vn -0.9239 -0.0000 -0.3827
vn -0.9239 -0.0000 0.3827
vn 0.9239 -0.0000 0.3827
vn 0.9239 -0.0000 -0.3827
vt 0.286756 0.286756
vt 0.250000 0.301981
vt 0.750000 0.301981
vt 0.786756 0.286756
vt 0.750000 0.490000
vt 0.919706 0.419706
vt 0.713244 0.286756
vt 0.580294 0.419706
vt 0.213244 0.286756
vt 0.294184 0.294184
vt 0.250000 0.312486
vt 0.205816 0.294184
vt 0.341758 0.341758
vt 0.250000 0.379765
vt 0.158242 0.341758
vt 0.187514 0.250000
vt 0.120235 0.250000
vt 0.205816 0.205816
vt 0.158242 0.158242
vt 0.198019 0.250000
vt 0.213244 0.213244
vt 0.250000 0.187514
vt 0.250000 0.198019
vt 0.294184 0.205816
vt 0.286756 0.213244
vt 0.312486 0.250000
vt 0.301981 0.250000
vt 0.801981 0.250000
vt 0.786756 0.213244
vt 0.990000 0.250000
vt 0.919706 0.080294
vt 0.875000 0.500000
vt 0.875000 1.000000
vt 0.750000 1.000000
vt 0.750000 0.500000
vt 0.625000 1.000000
vt 0.625000 0.500000
vt 0.500000 1.000000
vt 0.500000 0.500000
vt 0.750000 0.198019
vt 0.750000 0.010000
vt 0.375000 1.000000
vt 0.375000 0.500000
vt 0.713244 0.213244
vt 0.580294 0.080294
vt 0.698019 0.250000
vt 0.510000 0.250000
vt 0.250000 1.000000
vt 0.250000 0.500000
vt 0.125000 1.000000
vt 0.125000 0.500000
vt 0.000000 1.000000
vt 0.000000 0.500000
vt 0.080294 0.419706
vt 0.010000 0.250000
vt 0.250000 0.490000
vt 0.250000 0.120235
vt 0.341758 0.158242
vt 0.379765 0.250000
vt 0.490000 0.250000
vt 0.419706 0.419706
vt 0.419706 0.080294
vt 0.250000 0.010000
vt 0.080294 0.080294
vt 1.000000 0.500000
vt 1.000000 1.000000
s 0
f 6/1/1 5/2/1 1/3/1 2/4/1
f 2/4/2 1/3/2 4/5/2 40/6/2
f 1/3/2 3/7/2 55/8/2 4/5/2
f 5/2/3 7/9/3 3/7/3 1/3/3
f 5/2/4 6/1/4 9/1/4 8/2/4
f 7/9/4 5/2/4 8/2/4 10/9/4
f 8/2/4 9/1/4 12/10/4 11/11/4
f 10/9/4 8/2/4 11/11/4 13/12/4
f 11/11/5 12/10/5 16/10/5 14/11/5
f 13/12/6 11/11/6 14/11/6 17/12/6
f 14/11/4 16/10/4 73/13/4 15/14/4
f 17/12/4 14/11/4 15/14/4 18/15/4
f 19/16/4 17/12/4 18/15/4 20/17/4
f 22/16/7 13/12/7 17/12/7 19/16/7
f 21/18/4 19/16/4 20/17/4 67/19/4
f 24/18/8 22/16/8 19/16/8 21/18/8
f 23/20/4 10/9/4 13/12/4 22/16/4
f 25/21/4 23/20/4 22/16/4 24/18/4
f 26/22/1 24/18/1 21/18/1 27/22/1
f 28/23/4 25/21/4 24/18/4 26/22/4
f 29/24/3 26/22/3 27/22/3 30/24/3
f 31/25/4 28/23/4 26/22/4 29/24/4
f 32/26/9 29/24/9 30/24/9 33/26/9
f 34/27/4 31/25/4 29/24/4 32/26/4
f 12/10/10 32/26/10 33/26/10 16/10/10
f 9/1/4 34/27/4 32/26/4 12/10/4
f 6/1/4 35/27/4 34/27/4 9/1/4
f 35/27/4 36/25/4 31/25/4 34/27/4
f 35/27/8 6/1/8 2/4/8 37/28/8
f 36/25/7 35/27/7 37/28/7 38/29/7
f 37/28/2 2/4/2 40/6/2 39/30/2
f 38/29/2 37/28/2 39/30/2 42/31/2
f 40/32/10 76/33/10 41/34/10 39/35/10
f 39/35/9 41/34/9 43/36/9 42/37/9
f 42/37/3 43/36/3 45/38/3 44/39/3
f 47/40/2 38/29/2 42/31/2 44/41/2
f 44/39/1 45/38/1 80/42/1 46/43/1
f 48/44/2 47/40/2 44/41/2 46/45/2
f 49/23/6 36/25/6 38/29/6 47/40/6
f 50/21/5 49/23/5 47/40/5 48/44/5
f 36/25/4 49/23/4 28/23/4 31/25/4
f 49/23/4 50/21/4 25/21/4 28/23/4
f 50/21/4 51/20/4 23/20/4 25/21/4
f 51/20/10 50/21/10 48/44/10 52/46/10
f 51/20/4 7/9/4 10/9/4 23/20/4
f 7/9/9 51/20/9 52/46/9 3/7/9
f 52/46/2 48/44/2 46/45/2 53/47/2
f 3/7/2 52/46/2 53/47/2 55/8/2
f 46/43/8 80/42/8 54/48/8 53/49/8
f 53/49/7 54/48/7 56/50/7 55/51/7
f 55/51/6 56/50/6 57/52/6 4/53/6
f 60/17/4 58/15/4 56/54/4 54/55/4
f 58/15/4 59/14/4 57/56/4 56/54/4
f 59/14/4 58/15/4 61/15/4 62/14/4
f 58/15/4 60/17/4 63/17/4 61/15/4
f 62/14/3 61/15/3 18/15/3 15/14/3
f 61/15/9 63/17/9 20/17/9 18/15/9
f 63/17/10 64/19/10 67/19/10 20/17/10
f 60/17/4 65/19/4 64/19/4 63/17/4
f 65/19/4 79/57/4 66/57/4 64/19/4
f 64/19/5 66/57/5 68/57/5 67/19/5
f 27/22/4 21/18/4 67/19/4 68/57/4
f 66/57/6 70/58/6 69/58/6 68/57/6
f 30/24/4 27/22/4 68/57/4 69/58/4
f 70/58/7 72/59/7 71/59/7 69/58/7
f 33/26/4 30/24/4 69/58/4 71/59/4
f 72/59/8 74/13/8 73/13/8 71/59/8
f 16/10/4 33/26/4 71/59/4 73/13/4
f 74/13/1 62/14/1 15/14/1 73/13/1
f 77/59/4 75/13/4 74/13/4 72/59/4
f 75/13/4 59/14/4 62/14/4 74/13/4
f 75/13/4 77/59/4 41/60/4 76/61/4
f 59/14/4 75/13/4 76/61/4 57/56/4
f 77/59/4 78/58/4 43/62/4 41/60/4
f 78/58/4 77/59/4 72/59/4 70/58/4
f 78/58/4 79/57/4 45/63/4 43/62/4
f 79/57/4 78/58/4 70/58/4 66/57/4
f 79/57/4 65/19/4 80/64/4 45/63/4
f 4/65/5 57/66/5 76/33/5 40/32/5
f 65/19/4 60/17/4 54/55/4 80/64/4
