# Blender 4.3.2
# www.blender.org
mtllib 技能牌.mtl
o Plane.022
v -0.189054 0.000000 0.107156
v 0.189054 0.000000 0.107156
v -0.189054 0.000000 -0.107156
v 0.189054 0.000000 -0.107156
v -0.207161 -0.008000 0.125263
v 0.207161 -0.008000 0.125263
v -0.207161 -0.008000 -0.125263
v 0.207161 -0.008000 -0.125263
v -0.207161 0.000000 -0.125263
v -0.207161 0.000000 0.125263
v 0.207161 0.000000 0.125263
v 0.207161 0.000000 -0.125263
v -0.189054 -0.004010 -0.107156
v -0.189054 -0.004010 0.107156
v 0.189054 -0.004010 0.107156
v 0.189054 -0.004010 -0.107156
vn -1.0000 -0.0000 -0.0000
vn -0.0000 -1.0000 -0.0000
vn -0.0000 -0.0000 1.0000
vn 1.0000 -0.0000 -0.0000
vn -0.0000 -0.0000 -1.0000
vn -0.0000 1.0000 -0.0000
vt 0.956298 0.072274
vt 0.956298 0.927726
vt 0.000000 0.000000
vt 0.000000 1.000000
vt 1.000000 1.000000
vt 1.000000 0.000000
vt 0.043702 0.072274
vt 0.043702 0.927726
s 0
f 2/1/1 4/2/1 16/2/1 15/1/1
f 5/3/2 7/4/2 8/5/2 6/6/2
f 10/3/1 9/4/1 7/4/1 5/3/1
f 11/6/3 10/3/3 5/3/3 6/6/3
f 12/5/4 11/6/4 6/6/4 8/5/4
f 9/4/5 12/5/5 8/5/5 7/4/5
f 1/7/6 3/8/6 9/4/6 10/3/6
f 2/1/6 1/7/6 10/3/6 11/6/6
f 4/2/6 2/1/6 11/6/6 12/5/6
f 3/8/6 4/2/6 12/5/6 9/4/6
f 14/7/6 15/1/6 16/2/6 13/8/6
f 3/8/4 1/7/4 14/7/4 13/8/4
f 4/2/3 3/8/3 13/8/3 16/2/3
f 1/7/5 2/1/5 15/1/5 14/7/5
